<svg xmlns="http://www.w3.org/2000/svg" width="130.53" height="130.57" viewBox="0 0 130.53 130.57">
  <g id="Group_57" data-name="Group 57" transform="translate(-1503.2 -1191.8)">
    <path id="Path_306" data-name="Path 306" d="M146.82,584.35V565.83L129,562.89a47,47,0,0,0-4.72-11.39l10.5-14.65-13.1-13.1-14.66,10.5a46.719,46.719,0,0,0-11.38-4.72L92.7,511.75H74.22l-2.94,17.78a46.4,46.4,0,0,0-11.38,4.72l-14.66-10.5-13.1,13.1,10.5,14.65a46.631,46.631,0,0,0-4.72,11.39l-17.78,2.94v18.52l17.78,2.94a47.12,47.12,0,0,0,4.72,11.38l-10.5,14.66,13.1,13.1,14.66-10.5a47,47,0,0,0,11.38,4.72l2.94,17.78H92.74l2.94-17.78a47,47,0,0,0,11.38-4.72l14.66,10.5,13.1-13.1-10.5-14.66A46.72,46.72,0,0,0,129,587.29ZM83.48,612.63a37.517,37.517,0,1,1,.007,0Z" transform="translate(1485 682)" fill="#575f84"/>
    <path id="Path_307" data-name="Path 307" d="M39.79,613.33l10.49-14.66a46.7,46.7,0,0,1-4.71-11.38l-17.78-2.94V565.83l17.78-2.94a46.609,46.609,0,0,1,4.71-11.39L39.79,536.85l9.91-9.91-4.46-3.19-13.1,13.1,10.5,14.65a47,47,0,0,0-4.72,11.39l-17.78,2.94v18.52l17.78,2.94a47.12,47.12,0,0,0,4.72,11.38l-10.5,14.66,13.1,13.1,4.46-3.19Z" transform="translate(1485 682)" fill="#383f5b"/>
    <path id="Path_308" data-name="Path 308" d="M148.73,586V564.21l-18.18-3a48.8,48.8,0,0,0-4-9.57l10.74-15-15.4-15.39-15,10.73a48.758,48.758,0,0,0-9.57-4l-3-18.18H72.6l-3,18.18A48.76,48.76,0,0,0,60,532L45,521.25,29.64,536.64l10.74,15a48.8,48.8,0,0,0-4,9.57l-18.18,3V586l18.18,3a48.8,48.8,0,0,0,4,9.57l-10.74,15L45,628.93l15-10.74a48.805,48.805,0,0,0,9.57,4l3,18.18H94.36l3-18.18a48.8,48.8,0,0,0,9.57-4l15,10.74,15.4-15.39-10.74-15a48.8,48.8,0,0,0,4-9.57Zm-21.54.83a45.29,45.29,0,0,1-4.52,10.92l-.62,1.06,10.27,14.34-10.81,10.81-14.34-10.27-1.06.62a45.131,45.131,0,0,1-10.92,4.52l-1.19.32-2.88,17.4H75.84L73,619.12l-1.19-.32a45.131,45.131,0,0,1-10.92-4.52l-1.06-.62L45.45,623.93,34.64,613.12l10.27-14.34-.62-1.06a45.289,45.289,0,0,1-4.52-10.92l-.32-1.19-17.4-2.88V567.45l17.4-2.88.32-1.19a45.13,45.13,0,0,1,4.52-10.92l.62-1.07L34.64,537.05l10.81-10.8,14.33,10.27,1.07-.62a45.131,45.131,0,0,1,10.92-4.52l1.19-.32,2.88-17.4H91.12L94,531.06l1.19.32a45.131,45.131,0,0,1,10.92,4.52l1.06.62,14.34-10.27,10.81,10.8L122.05,551.4l.62,1.06a45.131,45.131,0,0,1,4.52,10.92l.32,1.19,17.4,2.88v15.28l-17.4,2.88Z" transform="translate(1485 682)"/>
    <circle id="Ellipse_26" data-name="Ellipse 26" cx="38" cy="38" r="38" transform="translate(1530.48 1219.09)" fill="#ffe477"/>
    <path id="Path_309" data-name="Path 309" d="M81.34,578.44a3.1,3.1,0,0,1,0,6.19h-6.2a3.1,3.1,0,0,1,0-6.19Z" transform="translate(1485 682)" fill="#ffeaa7"/>
    <path id="Path_310" data-name="Path 310" d="M72.05,601.31a10.149,10.149,0,0,0,4.13.87h8.25v1a3.09,3.09,0,0,1-3.09,3.1h-6.2a3.09,3.09,0,0,1-3.09-3.1v-1.89Z" transform="translate(1485 682)" fill="#e6e9ed"/>
    <path id="Path_311" data-name="Path 311" d="M75.14,584.63h6.2a3.09,3.09,0,0,0,3.09-3.1v12.39h-.17a2.08,2.08,0,0,0-1.47.61L81.34,596H77.21a10.22,10.22,0,0,1-5.16-1.38V581.53a3.09,3.09,0,0,0,3.09,3.1Z" transform="translate(1485 682)" fill="#e6e9ed"/>
    <path id="Path_312" data-name="Path 312" d="M72.45,578l.45,1.41a3.08,3.08,0,0,0-.85,2.13v9.39l-4.48-6.7-7.41-11.09c.94,1,3.07,1.47,5.35,1,2.74-.58,4.69-2.28,4.45-3.85Z" transform="translate(1485 682)" fill="#e6e9ed"/>
    <path id="Path_313" data-name="Path 313" d="M70,570.26c.24,1.57-1.71,3.27-4.45,3.85-2.28.49-4.41,0-5.35-1l-.34-.51a1.6,1.6,0,0,1-.11-.33c-.38-1.6,1.6-3.38,4.42-4,2.58-.55,5,.08,5.66,1.41h0Z" transform="translate(1485 682)" fill="#f0d0b4"/>
    <path id="Path_314" data-name="Path 314" d="M95.75,554.69H86.5V544.57h0a11.41,11.41,0,0,1,9.25,10.13Z" transform="translate(1485 682)" fill="#ff826e"/>
    <path id="Path_315" data-name="Path 315" d="M82.37,544.57v10.12H73.12a11.35,11.35,0,0,1,9.25-10.13Z" transform="translate(1485 682)" fill="#ff826e"/>
    <path id="Path_316" data-name="Path 316" d="M86.5,544.57v10.12H82.37V544.57h0a11.32,11.32,0,0,1,4.13,0Z" transform="translate(1485 682)" fill="#fc6e51"/>
    <path id="Path_317" data-name="Path 317" d="M73.12,554.69h23.7a1,1,0,0,1,1,1v2.06a1,1,0,0,1-1,1H72.05a1,1,0,0,1-1-1v-2.06a1,1,0,0,1,1-1Z" transform="translate(1485 682)" fill="#fc6e51"/>
    <path id="Path_318" data-name="Path 318" d="M95.79,558.82V565a3.11,3.11,0,0,0-3.1-3.1h-1v-3.1Z" transform="translate(1485 682)" fill="#656d78"/>
    <path id="Path_319" data-name="Path 319" d="M76.18,561.92a3.09,3.09,0,0,0-3.1,3.1v-6.2h4.13v3.1Z" transform="translate(1485 682)" fill="#656d78"/>
    <path id="Path_320" data-name="Path 320" d="M103.52,586.55l1.56-13.28h6.19V589A7,7,0,0,1,98,592.1l-1.16-2.31v16.52H88.56v-4.13a2.07,2.07,0,0,0,2.07-2.07v-2.06A2.07,2.07,0,0,0,88.56,596V575.34l-.5-.4.5-.63A20.52,20.52,0,0,1,103.24,586Z" transform="translate(1485 682)" fill="#fcd770"/>
    <path id="Path_321" data-name="Path 321" d="M83.52,579.34a3.09,3.09,0,0,0-2.18-.9h-6.2a3.12,3.12,0,0,0-2.24,1L72.45,578A17.89,17.89,0,0,1,80,574.38l.32-.07,4.13,5.16v2.06a3.1,3.1,0,0,0-.91-2.19Z" transform="translate(1485 682)" fill="#fcd770"/>
    <path id="Path_322" data-name="Path 322" d="M67.57,584.22l4.48,6.7v3.68a10.219,10.219,0,0,0,5.16,1.4h4.13v6.2H76.18a10.151,10.151,0,0,1-4.13-.87,10.3,10.3,0,0,1-6.2-9.45,17.68,17.68,0,0,1,1.72-7.64Z" transform="translate(1485 682)" fill="#fcd770"/>
    <path id="Path_323" data-name="Path 323" d="M88.56,602.18v4.13H81.34a3.09,3.09,0,0,0,3.09-3.1v-1Z" transform="translate(1485 682)" fill="#75b1f2"/>
    <path id="Path_324" data-name="Path 324" d="M88.56,575.34V596h-1a2.07,2.07,0,0,0-2.06-2.06h-1V579.47l3.63-4.53Z" transform="translate(1485 682)" fill="#75b1f2"/>
    <path id="Path_325" data-name="Path 325" d="M90.63,598.05v2.06a2.07,2.07,0,0,1-2.07,2.07H81.34V596l1.45-1.45a2.08,2.08,0,0,1,1.47-.61h1.21A2.07,2.07,0,0,1,87.53,596h1a2.07,2.07,0,0,1,2.1,2.05Z" transform="translate(1485 682)" fill="#f0d0b4"/>
    <path id="Path_326" data-name="Path 326" d="M111.27,566.05v7.22h-6.19l-1.46-1.45a2.08,2.08,0,0,1-.61-1.47v-1.2a2.08,2.08,0,0,1,2.07-2.07v-1a2.07,2.07,0,0,1,2.06-2.07h2.07a2.07,2.07,0,0,1,2.06,2.04Z" transform="translate(1485 682)" fill="#f0d0b4"/>
    <path id="Path_327" data-name="Path 327" d="M94.88,562.83a3.09,3.09,0,0,1-2.19,5.28H91.52a3.51,3.51,0,0,0,.14-1v-5.16h1A3.08,3.08,0,0,1,94.88,562.83Z" transform="translate(1485 682)" fill="#f0d0b4"/>
    <path id="Path_328" data-name="Path 328" d="M87.53,571.21l1,3.1-.5.63-3.63,4.53-4.13-5.16,1-3.1Z" transform="translate(1485 682)" fill="#f0d0b4"/>
    <path id="Path_329" data-name="Path 329" d="M77.34,568.11a3.88,3.88,0,0,1-.13-1v-8.26H91.66v8.26a3.51,3.51,0,0,1-.14,1,4.11,4.11,0,0,1-4,3.1H81.34a4.13,4.13,0,0,1-4-3.1Z" transform="translate(1485 682)" fill="#f0d0b4"/>
    <path id="Path_330" data-name="Path 330" d="M77.34,568.11H76.18a3.1,3.1,0,1,1,0-6.19h1v5.16a3.88,3.88,0,0,0,.13,1Z" transform="translate(1485 682)" fill="#f0d0b4"/>
    <path id="Path_331" data-name="Path 331" d="M109.21,563h-2.07a3.1,3.1,0,0,0-3.09,3.1v.18a3.09,3.09,0,0,0-2.07,2.92v1.2a3.09,3.09,0,0,0,.91,2.2l1.1,1.1-1.11,9.46a21.65,21.65,0,0,0-13.52-9.69L88.89,572a5.15,5.15,0,0,0,3.36-2.89h.44A4.14,4.14,0,0,0,96.82,565v-5.16a2.07,2.07,0,0,0,2.06-2.07v-2.06a2.07,2.07,0,0,0-2.06-2.07h-.18a12.38,12.38,0,0,0-24.41,0h-.18A2.07,2.07,0,0,0,70,555.73v2.06a2.07,2.07,0,0,0,2.07,2.07V565a4.14,4.14,0,0,0,4.13,4.13h.43A5.19,5.19,0,0,0,80,572l-.46,1.38A19.191,19.191,0,0,0,73,576.3L71,570a.31.31,0,0,0,0-.1c-.52-2.18-3.6-3.32-7-2.59a7.41,7.41,0,0,0-4.76,2.87,3.08,3.08,0,0,0-.46,2.36,2.889,2.889,0,0,0,.63,1.2l7.08,10.6a18.7,18.7,0,0,0-1.59,7.53A11.36,11.36,0,0,0,71,602v1.25a4.14,4.14,0,0,0,4.13,4.13H97.85V593.82a8,8,0,0,0,14.4-4.8V566.05a3.1,3.1,0,0,0-3.09-3.1Zm-5.16,6.2a1,1,0,0,1,1-1h1v-2.06a1,1,0,0,1,1-1h2.07a1,1,0,0,1,1,1v6.19h-4.73l-1.16-1.15a1,1,0,0,1-.3-.74ZM87.53,603.21v2.06H84.89a4,4,0,0,0,.58-2.06Zm1-2.06H82.37v-4.74l1.16-1.16a1,1,0,0,1,.73-.3h1.21a1,1,0,0,1,1,1v1h2.06a1,1,0,0,1,1,1v2.06a1,1,0,0,1-1,1Zm-1.77-28.91.62,1.86-3,3.72-3-3.72.62-1.86Zm-5.32,5.18H75.11a16.692,16.692,0,0,1,4.8-1.94Zm-6.33,2.05h2.62a4.12,4.12,0,0,0-.55,2.06v1h2.06v-1a2.07,2.07,0,1,1,2.07,2.07h-6.2a2.07,2.07,0,0,1,0-4.13Zm-2.06,5.62a4.13,4.13,0,0,0,2.06.57h6.2a4.13,4.13,0,0,0,2.06-.57V593a3,3,0,0,0-1.33.78L80.91,595h-3.7a9.29,9.29,0,0,1-4.13-1Zm14.45,8.6a3,3,0,0,0-2.06-.8V581.53a4,4,0,0,0-.26-1.38l2.32-2.9Zm5.16-26.61V563a2.07,2.07,0,1,1,0,4.13Zm2.07-5.62a4.14,4.14,0,0,0-2.07-.57v-1h2.07Zm-.21-7.8h-7v-7.78a10.23,10.23,0,0,1,7.03,7.78Zm-9.08-8.2v8.2H83.4v-8.2a8.761,8.761,0,0,1,1-.06,8.929,8.929,0,0,1,1.07.06Zm-4.13.42v7.78h-7a10.23,10.23,0,0,1,7.03-7.78Zm-9.29,9.85h24.8v2.06H72.05Zm4.13,4.13v1a4.139,4.139,0,0,0-2.07.57v-1.6ZM74.11,565a2.07,2.07,0,0,1,2.07-2v4.13A2.07,2.07,0,0,1,74.11,565Zm4.13,2.06v-7.22H90.63v7.22a3.1,3.1,0,0,1-3.1,3.1H81.34a3.1,3.1,0,0,1-3.1-3.08ZM60.9,571.27a5.65,5.65,0,0,1,3.45-1.95,8.29,8.29,0,0,1,1.64-.18,3.48,3.48,0,0,1,2.84,1l.1.32a1.11,1.11,0,0,1-.19.7,5.6,5.6,0,0,1-3.45,2c-2.13.45-3.74,0-4.33-.65l-.21-.3v-.09a1.08,1.08,0,0,1,.15-.85Zm2.79,4.07a9.687,9.687,0,0,0,2-.22,8.22,8.22,0,0,0,4.06-2l2,6.1a4.12,4.12,0,0,0-.74,2.34v6l-8.16-12.22a7.726,7.726,0,0,0,.84.05Zm3.19,16.52a16.77,16.77,0,0,1,.91-5.46L71,591.23v1.34a9.11,9.11,0,0,1-1.23-1.33l-1.66,1.23a11.41,11.41,0,0,0,9.1,4.53H80.3v4.13H76.18a9.31,9.31,0,0,1-9.3-9.29Zm11.36,13.41h-3.1a2.06,2.06,0,0,1-2.06-2.06v-.44a11.271,11.271,0,0,0,3.1.44H83.4a2.06,2.06,0,0,1-2.06,2.06Zm26-10.32a6,6,0,0,1-5.35-3.31l-1.05-2.09v-3.89H95.79v19.61h-6.2V603a3.1,3.1,0,0,0,2.07-2.91v-2.06a3.11,3.11,0,0,0-2.07-2.91V575.61a19.58,19.58,0,0,1,12.71,10.77l.16.35-.47,4,2.05.24,2-16.63h4.24V589a6,6,0,0,1-6,6Z" transform="translate(1485 682)"/>
  </g>
</svg>
