<svg xmlns="http://www.w3.org/2000/svg" width="131.81" height="131.82" viewBox="0 0 131.81 131.82">
  <g id="Group_54" data-name="Group 54" transform="translate(-1497.45 -682)">
    <path id="Path_470" data-name="Path 470" d="M142.33,75.27V56.56l-18-3a47,47,0,0,0-4.76-11.5l10.6-14.81L117,14.06l-14.81,10.6A47.08,47.08,0,0,0,90.7,19.89l-3-18H69l-3,18a47,47,0,0,0-11.5,4.77L39.72,14.06,26.49,27.29,37.1,42.09a47,47,0,0,0-4.77,11.5l-18,3V75.27l18,3a47.31,47.31,0,0,0,4.77,11.5l-10.6,14.8L39.73,117.8l14.8-10.6A47,47,0,0,0,66,111.93l3,18H87.71l3-18a47.051,47.051,0,0,0,11.49-4.76l14.8,10.6,13.23-13.23-10.6-14.8a47.291,47.291,0,0,0,4.76-11.5Zm-64,28.57a37.92,37.92,0,1,1,.02,0Z" transform="translate(1485 682)" fill="#575f84"/>
    <path id="Path_471" data-name="Path 471" d="M34.22,104.54l10.6-14.8a47.71,47.71,0,0,1-4.77-11.5l-18-3V56.56l18-3a47.38,47.38,0,0,1,4.77-11.5L34.22,27.28l10-10-4.5-3.22L26.5,27.28,37.1,42.09a47,47,0,0,0-4.77,11.5l-18,3V75.27l18,3a47.31,47.31,0,0,0,4.77,11.5l-10.6,14.8L39.73,117.8l4.5-3.22Z" transform="translate(1485 682)" fill="#383f5b"/>
    <path id="Path_472" data-name="Path 472" d="M144.26,76.91v-22l-18.36-3a49.109,49.109,0,0,0-4-9.66l10.84-15.14L117.19,11.53,102.05,22.37a49.809,49.809,0,0,0-9.67-4L89.34,0h-22l-3,18.36a50.07,50.07,0,0,0-9.67,4L39.52,11.53,24,27.08,34.81,42.22a49.72,49.72,0,0,0-4,9.66l-18.36,3v22l18.36,3a49.561,49.561,0,0,0,4,9.67L24,104.75l15.55,15.54,15.13-10.84a49.45,49.45,0,0,0,9.67,4l3,18.37h22l3-18.37a49.2,49.2,0,0,0,9.67-4l15.14,10.84,15.54-15.54L121.89,89.61a49,49,0,0,0,4-9.67Zm-21.75.83a45.479,45.479,0,0,1-4.57,11l-.63,1.08,10.37,14.48-10.91,10.92-14.48-10.38-1.08.63a45.811,45.811,0,0,1-11,4.57l-1.2.32L86.07,128H70.63l-2.9-17.57-1.21-.32a45.579,45.579,0,0,1-11-4.57l-1.08-.63L39.93,115.25,29,104.33,39.39,89.85l-.62-1.08a45.09,45.09,0,0,1-4.57-11l-.33-1.2L16.3,73.63V58.2l17.57-2.91.33-1.2a45.09,45.09,0,0,1,4.57-11L39.39,42,29,27.49,39.93,16.58,54.42,27l1.08-.62a45.58,45.58,0,0,1,11-4.57l1.21-.32,2.9-17.58H86.07L89,21.44l1.2.32a45.649,45.649,0,0,1,11,4.57l1.08.62,14.48-10.37,10.91,10.91L117.31,42l.63,1.08a45.479,45.479,0,0,1,4.57,11l.32,1.2L140.4,58.2V73.63l-17.57,2.91Z" transform="translate(1485 682)"/>
    <circle id="Ellipse_39" data-name="Ellipse 39" cx="38" cy="38" r="38" transform="translate(1525.35 709.91)" fill="#ffe477"/>
    <path id="Path_473" data-name="Path 473" d="M97.09,88.38H59.47a3.26,3.26,0,0,1-3.27-3.27V47.49a3.26,3.26,0,0,1,3.27-3.27H97.09a3.27,3.27,0,0,1,3.27,3.27V85.11A3.27,3.27,0,0,1,97.09,88.38ZM59.47,45.86a1.63,1.63,0,0,0-1.64,1.63V85.11a1.63,1.63,0,0,0,1.64,1.64H97.09a1.63,1.63,0,0,0,1.63-1.64V47.49a1.63,1.63,0,0,0-1.63-1.63Z" transform="translate(1485 682)"/>
    <path id="Path_474" data-name="Path 474" d="M61.92,74.53a.82.82,0,0,1-.82-.82V72.18a.82.82,0,0,1,1.64,0v1.53A.82.82,0,0,1,61.92,74.53Z" transform="translate(1485 682)"/>
    <path id="Path_475" data-name="Path 475" d="M93.82,83.48H62.74a1.64,1.64,0,0,1-1.64-1.64v-4a.82.82,0,0,1,1.64,0v4H93.82V50.76H62.74V68.09a.82.82,0,0,1-1.64,0V50.76a1.63,1.63,0,0,1,1.64-1.63H93.82a1.63,1.63,0,0,1,1.63,1.63V81.84a1.64,1.64,0,0,1-1.63,1.64Z" transform="translate(1485 682)"/>
    <path id="Path_476" data-name="Path 476" d="M93,45.86a.82.82,0,0,1-.82-.82V38.49a.82.82,0,0,1,1.64,0V45a.82.82,0,0,1-.82.86Z" transform="translate(1485 682)"/>
    <path id="Path_477" data-name="Path 477" d="M87.11,45.86a.82.82,0,0,1-.82-.82V38.49a.82.82,0,0,1,1.64,0V45a.82.82,0,0,1-.82.86Z" transform="translate(1485 682)"/>
    <path id="Path_478" data-name="Path 478" d="M81.22,45.86A.82.82,0,0,1,80.4,45V38.49a.82.82,0,0,1,1.64,0V45a.82.82,0,0,1-.82.86Z" transform="translate(1485 682)"/>
    <path id="Path_479" data-name="Path 479" d="M75.33,45.86a.82.82,0,0,1-.81-.82V38.49a.81.81,0,0,1,.81-.81.82.82,0,0,1,.82.81V45a.82.82,0,0,1-.82.86Z" transform="translate(1485 682)"/>
    <path id="Path_480" data-name="Path 480" d="M69.44,45.86a.82.82,0,0,1-.81-.82V38.49a.82.82,0,0,1,1.63,0V45a.82.82,0,0,1-.82.86Z" transform="translate(1485 682)"/>
    <path id="Path_481" data-name="Path 481" d="M63.56,45.86a.82.82,0,0,1-.82-.82V38.49a.82.82,0,0,1,1.63,0V45a.82.82,0,0,1-.81.86Z" transform="translate(1485 682)"/>
    <path id="Path_482" data-name="Path 482" d="M93,94.93a.82.82,0,0,1-.82-.82V87.57a.82.82,0,0,1,1.64,0v6.54A.82.82,0,0,1,93,94.93Z" transform="translate(1485 682)"/>
    <path id="Path_483" data-name="Path 483" d="M87.11,94.93a.82.82,0,0,1-.82-.82V87.57a.82.82,0,0,1,1.64,0v6.54A.82.82,0,0,1,87.11,94.93Z" transform="translate(1485 682)"/>
    <path id="Path_484" data-name="Path 484" d="M81.22,94.93a.82.82,0,0,1-.82-.82V87.57a.82.82,0,0,1,1.64,0v6.54A.82.82,0,0,1,81.22,94.93Z" transform="translate(1485 682)"/>
    <path id="Path_485" data-name="Path 485" d="M75.33,94.93a.82.82,0,0,1-.81-.82V87.57a.81.81,0,0,1,.81-.82.82.82,0,0,1,.82.82v6.54A.82.82,0,0,1,75.33,94.93Z" transform="translate(1485 682)"/>
    <path id="Path_486" data-name="Path 486" d="M69.44,94.93a.82.82,0,0,1-.81-.82V87.57a.82.82,0,1,1,1.63,0v6.54A.82.82,0,0,1,69.44,94.93Z" transform="translate(1485 682)"/>
    <path id="Path_487" data-name="Path 487" d="M63.56,94.93a.82.82,0,0,1-.82-.82V87.57a.82.82,0,1,1,1.63,0v6.54a.82.82,0,0,1-.81.82Z" transform="translate(1485 682)"/>
    <path id="Path_488" data-name="Path 488" d="M106.08,81.84H99.54a.815.815,0,1,1,0-1.63h6.54a.81.81,0,0,1,.82.81A.82.82,0,0,1,106.08,81.84Z" transform="translate(1485 682)"/>
    <path id="Path_489" data-name="Path 489" d="M106.08,76H99.54a.82.82,0,1,1,0-1.63h6.54a.82.82,0,1,1,0,1.63Z" transform="translate(1485 682)"/>
    <path id="Path_490" data-name="Path 490" d="M106.08,70.06H99.54a.82.82,0,1,1,0-1.63h6.54a.82.82,0,1,1,0,1.63Z" transform="translate(1485 682)"/>
    <path id="Path_491" data-name="Path 491" d="M106.08,64.18H99.54a.82.82,0,0,1,0-1.64h6.54a.82.82,0,0,1,0,1.64Z" transform="translate(1485 682)"/>
    <path id="Path_492" data-name="Path 492" d="M106.08,58.29H99.54a.82.82,0,0,1,0-1.64h6.54a.82.82,0,0,1,0,1.64Z" transform="translate(1485 682)"/>
    <path id="Path_493" data-name="Path 493" d="M106.08,52.4H99.54a.82.82,0,0,1,0-1.64h6.54a.82.82,0,1,1,0,1.64Z" transform="translate(1485 682)"/>
    <path id="Path_494" data-name="Path 494" d="M57,81.84H50.47a.815.815,0,1,1,0-1.63H57a.815.815,0,1,1,0,1.63Z" transform="translate(1485 682)"/>
    <path id="Path_495" data-name="Path 495" d="M57,76H50.47a.82.82,0,1,1,0-1.63H57A.82.82,0,1,1,57,76Z" transform="translate(1485 682)"/>
    <path id="Path_496" data-name="Path 496" d="M57,70.06H50.47a.82.82,0,1,1,0-1.63H57a.82.82,0,1,1,0,1.63Z" transform="translate(1485 682)"/>
    <path id="Path_497" data-name="Path 497" d="M57,64.18H50.47a.82.82,0,0,1,0-1.64H57a.82.82,0,1,1,0,1.64Z" transform="translate(1485 682)"/>
    <path id="Path_498" data-name="Path 498" d="M57,58.29H50.47a.82.82,0,1,1,0-1.64H57a.82.82,0,0,1,0,1.64Z" transform="translate(1485 682)"/>
    <path id="Path_499" data-name="Path 499" d="M57,52.4H50.47a.82.82,0,0,1,0-1.64H57a.82.82,0,1,1,0,1.64Z" transform="translate(1485 682)"/>
    <path id="Path_500" data-name="Path 500" d="M72.55,57.31H61.92a.82.82,0,0,1,0-1.64H72.55a.82.82,0,1,1,0,1.64Z" transform="translate(1485 682)"/>
    <path id="Path_501" data-name="Path 501" d="M74.83,59.58a3.1,3.1,0,1,1,3.09-3.09h0a3.1,3.1,0,0,1-3.09,3.09Zm0-4.55a1.46,1.46,0,1,0,1.45,1.46h0A1.45,1.45,0,0,0,74.83,55Z" transform="translate(1485 682)"/>
    <path id="Path_502" data-name="Path 502" d="M94.63,74.48H86.91a.82.82,0,0,1,0-1.64h7.72a.82.82,0,0,1,0,1.64Z" transform="translate(1485 682)"/>
    <path id="Path_503" data-name="Path 503" d="M84.64,76.75a3.09,3.09,0,1,1,3.09-3.09h0a3.09,3.09,0,0,1-3.09,3.09Zm0-4.54a1.46,1.46,0,1,0,1.46,1.45h0a1.45,1.45,0,0,0-1.46-1.45Z" transform="translate(1485 682)"/>
    <path id="Path_504" data-name="Path 504" d="M70.74,67a3.1,3.1,0,1,1,3.09-3.1h0A3.11,3.11,0,0,1,70.74,67Zm0-4.55a1.46,1.46,0,1,0,1.45,1.45h0a1.45,1.45,0,0,0-1.45-1.5Z" transform="translate(1485 682)"/>
    <path id="Path_505" data-name="Path 505" d="M68.46,64.67H61.92a.82.82,0,0,1,0-1.64h6.54a.82.82,0,0,1,0,1.64Z" transform="translate(1485 682)"/>
    <path id="Path_506" data-name="Path 506" d="M68.87,77.39a2.86,2.86,0,1,1,2.86-2.86A2.86,2.86,0,0,1,68.87,77.39Zm0-4.09a1.22,1.22,0,1,0,.873.357A1.23,1.23,0,0,0,68.87,73.3Z" transform="translate(1485 682)"/>
    <path id="Path_507" data-name="Path 507" d="M72.37,83.48a.82.82,0,0,1-.82-.82V77.93l-1.61-1.62a.82.82,0,0,1,1.13-1.18h0L73,77a.83.83,0,0,1,.24.58v5.07a.82.82,0,0,1-.87.83Z" transform="translate(1485 682)"/>
    <path id="Path_508" data-name="Path 508" d="M84.87,61.25a2.86,2.86,0,1,1,2.86-2.86,2.86,2.86,0,0,1-2.86,2.86Zm0-4.09a1.23,1.23,0,1,0,1.23,1.23A1.23,1.23,0,0,0,84.87,57.16Z" transform="translate(1485 682)"/>
    <path id="Path_509" data-name="Path 509" d="M86.07,57.56a.82.82,0,0,1-.82-.81.83.83,0,0,1,.24-.58l1.86-1.86a.83.83,0,0,1,.58-.24h6.7a.82.82,0,0,1,0,1.64H88.27l-1.62,1.61a.78.78,0,0,1-.58.24Z" transform="translate(1485 682)"/>
    <path id="Path_510" data-name="Path 510" d="M85.05,69.09a2.86,2.86,0,1,1,2.86-2.86A2.86,2.86,0,0,1,85.05,69.09Zm0-4.09a1.23,1.23,0,1,0,1.23,1.23A1.23,1.23,0,0,0,85.05,65Z" transform="translate(1485 682)"/>
    <path id="Path_511" data-name="Path 511" d="M86.25,65.4a.81.81,0,0,1-.58-1.4l1.86-1.86a.83.83,0,0,1,.58-.24h6.52a.82.82,0,0,1,0,1.64H88.45l-1.62,1.61a.78.78,0,0,1-.58.24Z" transform="translate(1485 682)"/>
    <path id="Path_512" data-name="Path 512" d="M76.48,72.67a3.1,3.1,0,1,1,3.1-3.1h0a3.11,3.11,0,0,1-3.1,3.1Zm0-4.55a1.46,1.46,0,1,0,1.46,1.45h0a1.45,1.45,0,0,0-1.46-1.45Z" transform="translate(1485 682)"/>
    <path id="Path_513" data-name="Path 513" d="M79.1,83.48a.82.82,0,0,1-.82-.82v-4.1l-2.37-2.37a.78.78,0,0,1-.24-.58V71.85a.82.82,0,1,1,1.63,0v3.43l2.37,2.37a.8.8,0,0,1,.24.58v4.43a.82.82,0,0,1-.81.82Z" transform="translate(1485 682)"/>
  </g>
</svg>
