<svg id="Layer_2" data-name="Layer 2" xmlns="http://www.w3.org/2000/svg" width="131.83" height="131.82" viewBox="0 0 131.83 131.82">
  <g id="Layer_2-2" data-name="Layer 2">
    <path id="Path_149" data-name="Path 149" d="M129.89,75.27V56.56l-18-3a47,47,0,0,0-4.76-11.5l10.6-14.81L104.54,14.06l-14.8,10.6a47.31,47.31,0,0,0-11.5-4.77l-3-18H56.56l-3,18a47,47,0,0,0-11.5,4.77L27.28,14.06,14.06,27.29l10.6,14.8a47,47,0,0,0-4.77,11.5l-18,3V75.27l18,3a47.31,47.31,0,0,0,4.77,11.5l-10.6,14.8L27.29,117.8l14.8-10.6a47,47,0,0,0,11.5,4.76l3,18H75.27l3-18a47.29,47.29,0,0,0,11.5-4.76l14.8,10.6,13.23-13.23-10.6-14.8a47.291,47.291,0,0,0,4.76-11.5Zm-64,28.57a37.92,37.92,0,1,1,.02,0Z" fill="#575f84"/>
    <path id="Path_150" data-name="Path 150" d="M21.78,104.54l10.6-14.8a47.71,47.71,0,0,1-4.77-11.5l-17.95-3V56.56l18-3a47.38,47.38,0,0,1,4.77-11.5L21.78,27.28l10-10-4.5-3.22L14.06,27.28l10.6,14.81a47,47,0,0,0-4.77,11.5l-18,3V75.27l18,3a47.31,47.31,0,0,0,4.77,11.5l-10.6,14.8L27.29,117.8l4.5-3.22Z" fill="#383f5b"/>
    <path id="Path_151" data-name="Path 151" d="M131.83,76.91v-22l-18.37-3a49.11,49.11,0,0,0-4-9.66L120.3,27.11,104.75,11.53,89.61,22.37a49.56,49.56,0,0,0-9.67-4L76.91,0h-22l-3,18.36a49.72,49.72,0,0,0-9.66,4L27.08,11.53,11.53,27.08,22.37,42.22a49.72,49.72,0,0,0-4,9.66L0,54.92v22l18.36,3a49.56,49.56,0,0,0,4,9.67L11.53,104.75l15.55,15.54,15.14-10.84a49.11,49.11,0,0,0,9.66,4l3,18.37h22l3-18.37a49,49,0,0,0,9.67-4l15.14,10.84,15.54-15.54L109.45,89.61a49,49,0,0,0,4-9.67Zm-21.76.83a45.479,45.479,0,0,1-4.57,11l-.63,1.08,10.38,14.48-10.92,10.92L89.85,104.87l-1.08.63a45.48,45.48,0,0,1-11,4.57l-1.2.32L73.63,128H58.2l-2.91-17.57-1.2-.32a45.48,45.48,0,0,1-11-4.57L42,104.87,27.49,115.25,16.58,104.33,27,89.85l-.62-1.08a45.48,45.48,0,0,1-4.57-11l-.32-1.2L3.86,73.63V58.2l17.58-2.91.32-1.2a45.48,45.48,0,0,1,4.57-11L27,42,16.58,27.49,27.49,16.58,42,27l1.08-.62a45.48,45.48,0,0,1,11-4.57l1.2-.32L58.2,3.86H73.63l2.91,17.58,1.2.32a45.48,45.48,0,0,1,11,4.57l1.08.62L104.3,16.58l10.92,10.91L104.87,42l.63,1.08a45.48,45.48,0,0,1,4.57,11l.32,1.2L128,58.2V73.63l-17.57,2.91Z"/>
    <circle id="Ellipse_15" data-name="Ellipse 15" cx="37.92" cy="37.92" r="37.92" transform="translate(27.99 27.99)" fill="#ffe477"/>
    <path id="Path_152" data-name="Path 152" d="M45,72.06c3-1.83,10.94-1,15.45,2.63,4.35-2.29,8.69-3.71,13-3.61l-6.8-9a12.2,12.2,0,0,1-2.13-6.48v-13H54.69v13a12.11,12.11,0,0,1-2.12,6.48Z" fill="#f9f7f8" fill-rule="evenodd"/>
    <path id="Path_153" data-name="Path 153" d="M41.83,77.79c10,1.36,15-2.35,18.61-5.83-4.51-3.64-12.4-1.73-15.45.1l-1.23,1.62a11.82,11.82,0,0,0-1.93,4.11Z" fill="#a1d4ff" fill-rule="evenodd"/>
    <path id="Path_154" data-name="Path 154" d="M47.2,87.16H72a5.37,5.37,0,0,0,4.47-1.93c2.1-3.33.62-9.21-.94-11.43l-2.06-2.72c-5-2.88-8.64-1.41-13,.88-4.57,2.41-9.95,5.73-18.61,5.83C40.7,82.15,41.79,87.16,47.2,87.16Z" fill="#22a6fe" fill-rule="evenodd"/>
    <path id="Path_155" data-name="Path 155" d="M80.24,64.27a4.6,4.6,0,0,0,4.75,0V46.16h-9.5V64.27a4.65,4.65,0,0,1,4.75,0Z" fill="#f9f7f8" fill-rule="evenodd"/>
    <path id="Path_156" data-name="Path 156" d="M75.49,47.12h9.7a2.17,2.17,0,0,0,0-4.32H75.3a2.17,2.17,0,0,0,0,4.32Z" fill="#a1d4ff" fill-rule="evenodd"/>
    <path id="Path_157" data-name="Path 157" d="M54.69,43.63H64.91a2.16,2.16,0,1,0,0-4.32H54.26a2.16,2.16,0,1,0,0,4.32Z" fill="#a1d4ff" fill-rule="evenodd"/>
    <path id="Path_158" data-name="Path 158" d="M57.68,63.5a1.91,1.91,0,1,0,1.9-1.9,1.91,1.91,0,0,0-1.9,1.9Z" fill="#a1d4ff" fill-rule="evenodd"/>
    <path id="Path_159" data-name="Path 159" d="M64.15,80.09a2.93,2.93,0,1,0,2.92-2.92A2.93,2.93,0,0,0,64.15,80.09Z" fill="#a1d4ff" fill-rule="evenodd"/>
    <path id="Path_160" data-name="Path 160" d="M50.59,83.51a1.78,1.78,0,1,0-1.78-1.78,1.78,1.78,0,0,0,1.78,1.78Z" fill="#a1d4ff" fill-rule="evenodd"/>
    <path id="Path_161" data-name="Path 161" d="M64.5,55.64v-12h-3v12a12.2,12.2,0,0,0,2.13,6.48l5.66,7.45a11.61,11.61,0,0,1,4.16,1.51l-6.8-9a12.2,12.2,0,0,1-2.13-6.48Z" fill="#dddaec" fill-rule="evenodd"/>
    <path id="Path_162" data-name="Path 162" d="M75.41,73.68l-2-2.6a11.61,11.61,0,0,0-4.16-1.51l1.15,1.51c2.94,3.89,3.67,16.08-2.85,16.08H72a5.37,5.37,0,0,0,4.47-1.93,4.71,4.71,0,0,1-.94-2.82V73.79Z" fill="#0593fc" fill-rule="evenodd"/>
    <path id="Path_163" data-name="Path 163" d="M67.07,41.47a2.17,2.17,0,0,0-2.16-2.16h-3a2.16,2.16,0,1,1,0,4.32h3a2.16,2.16,0,0,0,2.16-2.16Z" fill="#80b4fb" fill-rule="evenodd"/>
    <path id="Path_164" data-name="Path 164" d="M85,63.31V47.12H82.55V64A4.36,4.36,0,0,0,85,63.31Z" fill="#dddaec" fill-rule="evenodd"/>
    <path id="Path_165" data-name="Path 165" d="M87.2,45a2.1,2.1,0,0,0-2-2.16H82.76a2.17,2.17,0,0,1,0,4.32H85.2a2.1,2.1,0,0,0,2-2.16Z" fill="#80b4fb" fill-rule="evenodd"/>
    <path id="Path_166" data-name="Path 166" d="M75.49,73.8v8.61a4.71,4.71,0,0,0,.94,2.82,4.76,4.76,0,0,0,3.71,1.93h.2A4.77,4.77,0,0,0,85,82.41V63.31a4.6,4.6,0,0,1-4.75,0,4.65,4.65,0,0,0-4.75,0V73.8Z" fill="#eb5468" fill-rule="evenodd"/>
    <path id="Path_167" data-name="Path 167" d="M80.24,71.94a1.7,1.7,0,1,0-1.7-1.7,1.7,1.7,0,0,0,1.7,1.7Z" fill="#a1d4ff" fill-rule="evenodd"/>
    <path id="Path_168" data-name="Path 168" d="M85,82.41V63.31a4.36,4.36,0,0,1-2.44.66V82.41A4.76,4.76,0,0,1,79,87a4.66,4.66,0,0,0,1.12.16h.2A4.77,4.77,0,0,0,85,82.41Z" fill="#e5384f" fill-rule="evenodd"/>
    <path id="Path_169" data-name="Path 169" d="M55.42,77.79h0a.72.72,0,0,0,0,1,.7.7,0,0,0,.51.22.71.71,0,0,0,.51-.21h0a.707.707,0,0,0-1-1Z"/>
    <path id="Path_170" data-name="Path 170" d="M61.31,75.48h0a.71.71,0,0,0,0,1,.68.68,0,0,0,.51.22.7.7,0,0,0,.51-.22h0a.72.72,0,0,0-1-1Z"/>
    <path id="Path_171" data-name="Path 171" d="M62.21,63.5a2.63,2.63,0,1,0-2.63,2.63,2.63,2.63,0,0,0,2.63-2.63Zm-3.81,0a1.18,1.18,0,1,1,.342.841A1.19,1.19,0,0,1,58.4,63.5Z"/>
    <path id="Path_172" data-name="Path 172" d="M67.07,76.45a3.64,3.64,0,1,0,2.58,1.063,3.65,3.65,0,0,0-2.58-1.063Zm0,5.84a2.2,2.2,0,1,1,1.562-.641A2.2,2.2,0,0,1,67.07,82.29Z"/>
    <path id="Path_173" data-name="Path 173" d="M50.59,79.23a2.5,2.5,0,1,0,2.5,2.5A2.5,2.5,0,0,0,50.59,79.23Zm0,3.55a1.06,1.06,0,1,1,1-.5,1.06,1.06,0,0,1-1,.5Z"/>
    <path id="Path_174" data-name="Path 174" d="M78.63,75.87h0a.72.72,0,0,0,0,1,.71.71,0,0,0,.51.21.73.73,0,0,0,.51-.21h0a.72.72,0,0,0,0-1,.71.71,0,0,0-1,0Z"/>
    <path id="Path_175" data-name="Path 175" d="M80.17,81.38h0a.72.72,0,0,0,0,1,.74.74,0,0,0,1,0h0a.707.707,0,0,0-1-1Z"/>
    <path id="Path_176" data-name="Path 176" d="M80.24,72.67a2.43,2.43,0,1,0-2.42-2.43,2.43,2.43,0,0,0,2.42,2.43Zm0-3.41a1,1,0,1,1-1,1A1,1,0,0,1,80.24,69.26Z"/>
    <path id="Path_177" data-name="Path 177" d="M85.19,42.08H75.3A2.81,2.81,0,0,0,72.57,45a2.85,2.85,0,0,0,2.2,2.83V71.65l-7.57-10a11.5,11.5,0,0,1-2-6V44.35a2.88,2.88,0,0,0-.29-5.75H54.26A2.88,2.88,0,0,0,54,44.34v11.3a11.42,11.42,0,0,1-2,6l-2.41,3.18a.72.72,0,0,0,.14,1,.71.71,0,0,0,1-.14l2.41-3.17a13,13,0,0,0,2.27-6.65h2.45a.73.73,0,0,0,0-1.45H55.39v-2.4h2.43a.73.73,0,0,0,0-1.45H55.4v-2.4h2.42a.73.73,0,0,0,0-1.45H55.41v-2.4h8.33V55.64a13,13,0,0,0,2.31,6.92l5.09,6.71A10,10,0,0,0,66,69a20.86,20.86,0,0,0-5.47,2.14c-3.79-2.72-9.44-2.13-13.21-.86l1.41-1.84a.71.71,0,0,0-.13-1,.73.73,0,0,0-1,.13l-4.38,5.71a12.7,12.7,0,0,0-2.31,5.52,9.65,9.65,0,0,0,.62,5.85,5.86,5.86,0,0,0,5.7,3.27H72a6.36,6.36,0,0,0,4.45-1.57,5.47,5.47,0,0,0,9.31-3.9V58.25a.73.73,0,0,0-1.45,0v4.64a3.94,3.94,0,0,1-3.63-.18,5.38,5.38,0,0,0-4.43-.53V59.4h2.42a.73.73,0,0,0,0-1.45H76.21V55.54h2.42a.72.72,0,0,0,0-1.44H76.21V51.69h2.42a.72.72,0,1,0,0-1.44H76.21V47.84h8.06v7.08a.73.73,0,0,0,1.45,0V47.79A2.85,2.85,0,0,0,87.92,45a2.81,2.81,0,0,0-2.73-2.88Zm-30.93.83a1.44,1.44,0,1,1,0-2.87H64.91a1.44,1.44,0,1,1,0,2.87ZM44.33,74.12,45.5,72.6c2.9-1.67,9.4-3.1,13.55-.71l-.16.08C54.7,74.22,50,76.74,42.81,77a10.73,10.73,0,0,1,1.52-2.92ZM72,86.44H47.2A4.49,4.49,0,0,1,42.79,84a8.6,8.6,0,0,1-.38-5.47c7.76-.22,13-3,17.16-5.25,4.82-2.59,8.32-4.46,13.38-1.61L74.77,74v8.38a5.41,5.41,0,0,0,.75,2.76A4.86,4.86,0,0,1,72,86.44Zm7.88-22.53a5.06,5.06,0,0,0,2.78.78,5.37,5.37,0,0,0,1.65-.25v18a4.03,4.03,0,0,1-8.06,0V63.73a4,4,0,0,1,3.63.18ZM85.19,46.4H75.3a1.45,1.45,0,0,1,0-2.88h9.89a1.45,1.45,0,0,1,0,2.88Z"/>
  </g>
</svg>
