<svg id="Layer_2" data-name="Layer 2" xmlns="http://www.w3.org/2000/svg" width="131.83" height="131.82" viewBox="0 0 131.83 131.82">
  <g id="Layer_2-2" data-name="Layer 2">
    <path id="Path_6" data-name="Path 6" d="M129.89,75.27V56.56l-18-3a47,47,0,0,0-4.76-11.5l10.6-14.81L104.54,14.06l-14.8,10.6a47.31,47.31,0,0,0-11.5-4.77l-3-18H56.56l-3,18a47,47,0,0,0-11.5,4.77L27.28,14.06,14.06,27.29l10.6,14.8a47,47,0,0,0-4.77,11.5l-18,3V75.27l18,3a47.31,47.31,0,0,0,4.77,11.5l-10.6,14.8L27.29,117.8l14.8-10.6a47,47,0,0,0,11.5,4.76l3,18H75.27l3-18a47.29,47.29,0,0,0,11.5-4.76l14.8,10.6,13.23-13.23-10.6-14.8a47.291,47.291,0,0,0,4.76-11.5Zm-64,28.57a37.92,37.92,0,1,1,.02,0Z" fill="#575f84"/>
    <path id="Path_7" data-name="Path 7" d="M21.78,104.54l10.6-14.8a47.71,47.71,0,0,1-4.77-11.5l-17.95-3V56.56l18-3a47.38,47.38,0,0,1,4.77-11.5L21.78,27.28l10-10-4.5-3.22L14.06,27.28l10.6,14.81a47,47,0,0,0-4.77,11.5l-18,3V75.27l18,3a47.31,47.31,0,0,0,4.77,11.5l-10.6,14.8L27.29,117.8l4.5-3.22Z" fill="#383f5b"/>
    <path id="Path_8" data-name="Path 8" d="M131.83,76.91v-22l-18.37-3a49.11,49.11,0,0,0-4-9.66L120.3,27.11,104.75,11.53,89.61,22.37a49.56,49.56,0,0,0-9.67-4L76.91,0h-22l-3,18.36a49.72,49.72,0,0,0-9.66,4L27.08,11.53,11.53,27.08,22.37,42.22a49.72,49.72,0,0,0-4,9.66L0,54.92v22l18.36,3a49.56,49.56,0,0,0,4,9.67L11.53,104.75l15.55,15.54,15.14-10.84a49.11,49.11,0,0,0,9.66,4l3,18.37h22l3-18.37a49,49,0,0,0,9.67-4l15.14,10.84,15.54-15.54L109.45,89.61a49,49,0,0,0,4-9.67Zm-21.76.83a45.479,45.479,0,0,1-4.57,11l-.63,1.08,10.38,14.48-10.92,10.92L89.85,104.87l-1.08.63a45.48,45.48,0,0,1-11,4.57l-1.2.32L73.63,128H58.2l-2.91-17.57-1.2-.32a45.48,45.48,0,0,1-11-4.57L42,104.87,27.49,115.25,16.58,104.33,27,89.85l-.62-1.08a45.48,45.48,0,0,1-4.57-11l-.32-1.2L3.86,73.63V58.2l17.58-2.91.32-1.2a45.48,45.48,0,0,1,4.57-11L27,42,16.58,27.49,27.49,16.58,42,27l1.08-.62a45.48,45.48,0,0,1,11-4.57l1.2-.32L58.2,3.86H73.63l2.91,17.58,1.2.32a45.48,45.48,0,0,1,11,4.57l1.08.62L104.3,16.58l10.92,10.91L104.87,42l.63,1.08a45.48,45.48,0,0,1,4.57,11l.32,1.2L128,58.2V73.63l-17.57,2.91Z"/>
    <circle id="Ellipse_1" data-name="Ellipse 1" cx="37.92" cy="37.92" r="37.92" transform="translate(27.99 27.99)" fill="#ffe477"/>
    <path id="Path_9" data-name="Path 9" d="M87.07,77.24V73.77H74.37l-.13,1a8.36,8.36,0,0,1-16.59,0l-.13-1H44.82v3.47h4.92a16.36,16.36,0,0,0,2.31,5.46l-3.58,3.58,4.93,4.89L57,87.59a16.27,16.27,0,0,0,5.46,2.31v5h6.93V89.88a16.19,16.19,0,0,0,5.46-2.31l3.58,3.58,4.91-4.91L79.76,82.7a16.36,16.36,0,0,0,2.31-5.46Z" fill="#4caecc"/>
    <path id="Path_10" data-name="Path 10" d="M86.8,66.46V64.15a20.81,20.81,0,0,0-13.12-19.4l-1.58-.63V41.23H59.72v2.9l-1.58.63A20.79,20.79,0,0,0,45,64.16v2.31l-2.9,1.26V73.8H89.73V67.71Z" fill="#fca53d"/>
    <path id="Path_11" data-name="Path 11" d="M90.16,66.65l-2.23-1V64.16a21.93,21.93,0,0,0-14.7-20.78V41.23a1.15,1.15,0,0,0-1.16-1.15H59.72a1.15,1.15,0,0,0-1.16,1.15v2.16a22,22,0,0,0-14.7,20.79v1.53l-2.2.94A1.15,1.15,0,0,0,41,67.71v6.06a1.16,1.16,0,0,0,1.16,1.16h1.5v2.31a1.16,1.16,0,0,0,1.15,1.15h4.15a17.25,17.25,0,0,0,1.72,4.14L47.7,85.46a1.15,1.15,0,0,0,0,1.63L52.6,92a1.15,1.15,0,0,0,1.63,0l2.94-2.93a17.11,17.11,0,0,0,4.12,1.72v4.15a1.16,1.16,0,0,0,1.15,1.15h6.93a1.16,1.16,0,0,0,1.16-1.15V90.78a17.35,17.35,0,0,0,4.13-1.72L77.59,92a1.15,1.15,0,0,0,1.63,0l4.91-4.9a1.15,1.15,0,0,0,0-1.63L81.2,82.53a18.1,18.1,0,0,0,1.72-4.14h4.14a1.16,1.16,0,0,0,1.16-1.15V74.93h1.5a1.15,1.15,0,0,0,1.15-1.16V67.71A1.13,1.13,0,0,0,90.16,66.65ZM60.85,42.4H70.92V61.69H60.87ZM85.92,76.08H82.07a1.16,1.16,0,0,0-1.15.91,15.34,15.34,0,0,1-2.11,5.08A1.15,1.15,0,0,0,79,83.52l2.76,2.76-3.31,3.28-2.8-2.76a1.14,1.14,0,0,0-1.44-.15,15.13,15.13,0,0,1-5.08,2.11,1.15,1.15,0,0,0-.91,1.16v3.89H63.6V89.88a1.15,1.15,0,0,0-.91-1.15,15.2,15.2,0,0,1-5.09-2.12,1.16,1.16,0,0,0-1.44.15L53.4,89.52l-3.27-3.26,2.76-2.76A1.15,1.15,0,0,0,53,82.05,15.21,15.21,0,0,1,50.9,77a1.17,1.17,0,0,0-1.16-.91H45.89V74.93H56.45a9.51,9.51,0,0,0,18.89,0H85.91ZM58.8,74.93H73a7.21,7.21,0,0,1-14.23,0Zm29.78-2.31H43.25V68.47l2.23-1a1.14,1.14,0,0,0,.7-1.06V64.14a19.65,19.65,0,0,1,12.38-18.3v17A1.15,1.15,0,0,0,59.72,64H72.1a1.15,1.15,0,0,0,1.15-1.15v-17A19.63,19.63,0,0,1,85.64,64.16v2.31a1.16,1.16,0,0,0,.71,1.07l2.23.95Z" fill="#050505"/>
  </g>
</svg>
