<svg id="Layer_2" data-name="Layer 2" xmlns="http://www.w3.org/2000/svg" width="131.83" height="131.82" viewBox="0 0 131.83 131.82">
  <g id="Layer_2-2" data-name="Layer 2">
    <path id="Path_130" data-name="Path 130" d="M129.89,75.27V56.56l-18-3a47,47,0,0,0-4.76-11.5l10.6-14.81L104.54,14.06l-14.8,10.6a47.31,47.31,0,0,0-11.5-4.77l-3-18H56.56l-3,18a47,47,0,0,0-11.5,4.77L27.28,14.06,14.06,27.29l10.6,14.8a47,47,0,0,0-4.77,11.5l-18,3V75.27l18,3a47.31,47.31,0,0,0,4.77,11.5l-10.6,14.8L27.29,117.8l14.8-10.6a47,47,0,0,0,11.5,4.76l3,18H75.27l3-18a47.29,47.29,0,0,0,11.5-4.76l14.8,10.6,13.23-13.23-10.6-14.8a47.291,47.291,0,0,0,4.76-11.5Zm-64,28.57a37.92,37.92,0,1,1,.02,0Z" fill="#575f84"/>
    <path id="Path_131" data-name="Path 131" d="M21.78,104.54l10.6-14.8a47.71,47.71,0,0,1-4.77-11.5l-17.95-3V56.56l18-3a47.38,47.38,0,0,1,4.77-11.5L21.78,27.28l10-10-4.5-3.22L14.06,27.28l10.6,14.81a47,47,0,0,0-4.77,11.5l-18,3V75.27l18,3a47.31,47.31,0,0,0,4.77,11.5l-10.6,14.8L27.29,117.8l4.5-3.22Z" fill="#383f5b"/>
    <path id="Path_132" data-name="Path 132" d="M131.83,76.91v-22l-18.37-3a49.11,49.11,0,0,0-4-9.66L120.3,27.11,104.75,11.53,89.61,22.37a49.56,49.56,0,0,0-9.67-4L76.91,0h-22l-3,18.36a49.72,49.72,0,0,0-9.66,4L27.08,11.53,11.53,27.08,22.37,42.22a49.72,49.72,0,0,0-4,9.66L0,54.92v22l18.36,3a49.56,49.56,0,0,0,4,9.67L11.53,104.75l15.55,15.54,15.14-10.84a49.11,49.11,0,0,0,9.66,4l3,18.37h22l3-18.37a49,49,0,0,0,9.67-4l15.14,10.84,15.54-15.54L109.45,89.61a49,49,0,0,0,4-9.67Zm-21.76.83a45.479,45.479,0,0,1-4.57,11l-.63,1.08,10.38,14.48-10.92,10.92L89.85,104.87l-1.08.63a45.48,45.48,0,0,1-11,4.57l-1.2.32L73.63,128H58.2l-2.91-17.57-1.2-.32a45.48,45.48,0,0,1-11-4.57L42,104.87,27.49,115.25,16.58,104.33,27,89.85l-.62-1.08a45.48,45.48,0,0,1-4.57-11l-.32-1.2L3.86,73.63V58.2l17.58-2.91.32-1.2a45.48,45.48,0,0,1,4.57-11L27,42,16.58,27.49,27.49,16.58,42,27l1.08-.62a45.48,45.48,0,0,1,11-4.57l1.2-.32L58.2,3.86H73.63l2.91,17.58,1.2.32a45.48,45.48,0,0,1,11,4.57l1.08.62L104.3,16.58l10.92,10.91L104.87,42l.63,1.08a45.48,45.48,0,0,1,4.57,11l.32,1.2L128,58.2V73.63l-17.57,2.91Z"/>
    <circle id="Ellipse_11" data-name="Ellipse 11" cx="37.92" cy="37.92" r="37.92" transform="translate(27.99 27.99)" fill="#ffe477"/>
    <path id="Path_133" data-name="Path 133" d="M89.62,43.57H50.42a.89.89,0,0,0-.89.89V70.3a.89.89,0,0,0,.89.89h24v8H70.91V81H85.16v1.78H70.91v1.78H86.05a.89.89,0,0,0,.9-.89V71.19h2.67a.89.89,0,0,0,.89-.89V44.46A.89.89,0,0,0,89.62,43.57Zm-.89,1.78v3.57H51.31V45.35ZM76.26,71.19H78V73a.89.89,0,0,0,1.78,0V71.19H81.6v8H76.26Zm8.9,8H83.38v-8h1.78ZM51.31,69.41V50.7H88.73V69.41Z"/>
    <path id="Path_134" data-name="Path 134" d="M41.52,84.55H64.68a4.46,4.46,0,0,0,4.45-4.46.89.89,0,0,0-.89-.89H64.68V73H62.89v6.2H43.3V64.06h4.45V62.28H42.41a.89.89,0,0,0-.89.89v16H38a.89.89,0,0,0-.89.89,4.46,4.46,0,0,0,4.41,4.49ZM50.05,81l.63.63a.94.94,0,0,0,.63.26h3.57a.94.94,0,0,0,.63-.26l.63-.63H67.2a2.69,2.69,0,0,1-2.52,1.78H41.52A2.67,2.67,0,0,1,39,81Z"/>
    <circle id="Ellipse_12" data-name="Ellipse 12" cx="0.89" cy="0.89" r="0.89" transform="translate(52.21 46.25)"/>
    <circle id="Ellipse_13" data-name="Ellipse 13" cx="0.89" cy="0.89" r="0.89" transform="translate(54.88 46.25)"/>
    <circle id="Ellipse_14" data-name="Ellipse 14" cx="0.89" cy="0.89" r="0.89" transform="translate(57.55 46.25)"/>
    <path id="Path_135" data-name="Path 135" d="M53.1,52.48h2.67v1.78H53.1Z"/>
    <path id="Path_136" data-name="Path 136" d="M58.44,52.48h6.24v1.78H58.44Z"/>
    <path id="Path_137" data-name="Path 137" d="M66.46,52.48h2.67v1.78H66.46Z"/>
    <path id="Path_138" data-name="Path 138" d="M53.1,56.93h2.67v1.79H53.1Z"/>
    <path id="Path_139" data-name="Path 139" d="M58.44,56.93H62v1.79H58.44Z"/>
    <path id="Path_140" data-name="Path 140" d="M63.79,56.93h5.34v1.79H63.79Z"/>
    <path id="Path_141" data-name="Path 141" d="M53.1,61.39h2.67v1.78H53.1Z"/>
    <path id="Path_142" data-name="Path 142" d="M58.44,61.39H69.13v1.78H58.44Z"/>
    <path id="Path_143" data-name="Path 143" d="M53.1,65.84h2.67v1.78H53.1Z"/>
    <path id="Path_144" data-name="Path 144" d="M58.44,65.84H62v1.78H58.44Z"/>
    <path id="Path_145" data-name="Path 145" d="M63.79,65.84h5.34v1.78H63.79Z"/>
    <path id="Path_146" data-name="Path 146" d="M74.74,56.3,72.06,59a.91.91,0,0,0,0,1.26l2.68,2.67L76,61.65l-2-2,2-2Z"/>
    <path id="Path_147" data-name="Path 147" d="M83.12,56.3l-1.26,1.26,2,2-2,2,1.26,1.26,2.67-2.67a.89.89,0,0,0,0-1.26Z"/>
    <path id="Path_148" data-name="Path 148" d="M76.3,64.65,79.86,54l1.69.56L78,65.22Z"/>
  </g>
</svg>
