<svg xmlns="http://www.w3.org/2000/svg" width="131.76" height="131.75" viewBox="0 0 131.76 131.75">
  <g id="Group_66" data-name="Group 66" transform="translate(2611.39 -3971.63)">
    <path id="Path_451" data-name="Path 451" d="M142.43,2171.87v-18.71l-18-3a47.713,47.713,0,0,0-4.77-11.5l10.6-14.8-13.23-13.23-14.8,10.6a47.285,47.285,0,0,0-11.5-4.76l-3-18H69.1l-3,18a47.125,47.125,0,0,0-11.5,4.76l-14.8-10.6-13.2,13.26,10.6,14.8a47.31,47.31,0,0,0-4.77,11.5l-18,3v18.71l18,3a47,47,0,0,0,4.77,11.5l-10.6,14.81,13.23,13.23,14.8-10.61a47.151,47.151,0,0,0,11.5,4.77l3,18H87.81l3-18a47.31,47.31,0,0,0,11.5-4.77l14.8,10.61,13.23-13.23-10.6-14.81a47.384,47.384,0,0,0,4.77-11.5Zm-64,28.57a39.357,39.357,0,1,1,.014,0Z" transform="translate(-2624 1875)" fill="#575f84"/>
    <path id="Path_452" data-name="Path 452" d="M34.32,2201.14l10.6-14.8a47.12,47.12,0,0,1-4.76-11.5l-18-3v-18.71l18-3a47.291,47.291,0,0,1,4.76-11.5l-10.6-14.8,10-10-4.5-3.22L26.6,2123.89l10.6,14.8a47.31,47.31,0,0,0-4.77,11.5l-18,3v18.71l18,3a47,47,0,0,0,4.77,11.5l-10.6,14.81,13.23,13.23,4.5-3.23Z" transform="translate(-2624 1875)" fill="#383f5b"/>
    <path id="Path_453" data-name="Path 453" d="M144.37,2173.51v-22l-18.37-3a49.2,49.2,0,0,0-4-9.67l10.84-15.14-15.54-15.54L102.15,2119a48.981,48.981,0,0,0-9.67-4l-3-18.37h-22l-3,18.37a49.109,49.109,0,0,0-9.66,4l-15.14-10.84L24.13,2123.7l10.84,15.14a49.808,49.808,0,0,0-4,9.67l-18.36,3v22l18.36,3a50.068,50.068,0,0,0,4,9.67l-10.84,15.13,15.55,15.55,15.14-10.84a49.738,49.738,0,0,0,9.66,4l3,18.36h22l3-18.36a49.568,49.568,0,0,0,9.67-4l15.14,10.84,15.54-15.55L122,2186.22a49.453,49.453,0,0,0,4-9.67Zm-21.76.84a45.579,45.579,0,0,1-4.57,11l-.63,1.08,10.38,14.49-10.92,10.91-14.48-10.37-1.08.62a45.089,45.089,0,0,1-11,4.57l-1.2.33-2.91,17.57H70.74L67.83,2207l-1.2-.32a45.091,45.091,0,0,1-11-4.57l-1.08-.62L40,2211.85l-10.91-10.91,10.37-14.49-.62-1.08a45.58,45.58,0,0,1-4.57-11l-.32-1.21-17.58-2.91V2154.8L34,2151.89l.32-1.2a45.647,45.647,0,0,1,4.57-11l.62-1.08L29.12,2124.1,40,2113.18l14.49,10.38,1.08-.63a45.494,45.494,0,0,1,11-4.57l1.2-.32,2.91-17.57H86.17L89.08,2118l1.2.32a45.485,45.485,0,0,1,11,4.57l1.08.63,14.48-10.38,10.92,10.92-10.38,14.48.63,1.08a45.647,45.647,0,0,1,4.57,11l.32,1.2,17.57,2.91v15.43l-17.57,2.91Z" transform="translate(-2624 1875)"/>
    <circle id="Ellipse_38" data-name="Ellipse 38" cx="38" cy="38" r="38" transform="translate(-2583.55 3999.52)" fill="#ffe477"/>
    <path id="Path_454" data-name="Path 454" d="M81.21,2174.39h0l-.08.07Z" transform="translate(-2624 1875)" fill="#5ec2ff"/>
    <path id="Path_455" data-name="Path 455" d="M81.12,2174.46l-1,.77A7.994,7.994,0,0,0,81.12,2174.46Z" transform="translate(-2624 1875)" fill="#5ec2ff"/>
    <path id="Path_456" data-name="Path 456" d="M86.59,2161.63H77.48a2,2,0,0,1,0-4h8.4a2.17,2.17,0,0,0-.07-.24,1.223,1.223,0,0,0-.14-.39,16.167,16.167,0,0,0-2.23-4.13H73.09a4.78,4.78,0,0,1-4.78-4.78,4.591,4.591,0,0,1,.22-1.43,15.921,15.921,0,0,0-12.77,10.2h7a1.6,1.6,0,0,1,0,3.19h-2.4a2.4,2.4,0,0,0,0,4.79H76.68a2.79,2.79,0,0,1,0,5.58H66.32a2,2,0,0,0,0,4H81.2a15.827,15.827,0,0,0,4.47-6.55,1.523,1.523,0,0,1,.14-.39c.04-.13.16-.51.23-.77s.12-.45.17-.67.1-.45.14-.67.1-.59.14-.89.05-.36.07-.54c0-.49.07-1,.07-1.49C86.63,2162.16,86.61,2161.89,86.59,2161.63Z" transform="translate(-2624 1875)" fill="#5ec2ff"/>
    <path id="Path_457" data-name="Path 457" d="M68.53,2146.63h0c.3,0,.6-.08.9-.1C69.13,2146.56,68.83,2146.6,68.53,2146.63Z" transform="translate(-2624 1875)" fill="#5ec2ff"/>
    <path id="Path_458" data-name="Path 458" d="M86.41,2159.85v-.32l-.06-.27a.714.714,0,0,0-.09-.42,3.255,3.255,0,0,1-.17-.67c-.06-.22-.1-.36-.16-.53h-8.4a2,2,0,0,0,0,4h9.11a17.584,17.584,0,0,0-.23-1.79Z" transform="translate(-2624 1875)" fill="#ffc145"/>
    <path id="Path_459" data-name="Path 459" d="M68.31,2148.07a4.78,4.78,0,0,0,4.78,4.78H83.42a16.334,16.334,0,0,0-3.07-3.09l-.28-.21a10.882,10.882,0,0,0-1-.65c-.17-.11-.34-.22-.51-.31l-.57-.32-1-.47-.45-.18c-.31-.12-.63-.24-1-.35l-.3-.1a12.863,12.863,0,0,0-1.26-.32l-.33-.07c-.44-.08-.88-.16-1.34-.2h-.27a13.889,13.889,0,0,0-1.46-.08,7.481,7.481,0,0,0-1.25.07c-.42.07-.6.06-.9.1A4.59,4.59,0,0,0,68.31,2148.07Z" transform="translate(-2624 1875)" fill="#ffc145"/>
    <path id="Path_460" data-name="Path 460" d="M66.32,2174.39a2,2,0,0,1,0-4H76.68a2.79,2.79,0,0,0,0-5.58H60.33a2.4,2.4,0,0,1,0-4.79h2.4a1.6,1.6,0,0,0,0-3.19h-7c-.16.43-.31.87-.43,1.31a.29.29,0,0,0,0,.09c-.12.41-.22.83-.3,1.25l-.06.43c-.06.33-.11.66-.14,1a15.158,15.158,0,0,0-.08,1.52,16,16,0,0,0,16,16h0a10.381,10.381,0,0,0,1.56-.08,4.408,4.408,0,0,0,.62-.09c.21-.03.59-.08.88-.14s.53-.12.79-.18l.65-.17c.3-.09.6-.19.89-.3l.47-.17c.33-.13.65-.27,1-.42a3.136,3.136,0,0,1,.32-.16c.34-.18.68-.36,1-.56l.2-.12a9.331,9.331,0,0,0,1-.7l.09-.07a9.063,9.063,0,0,0,1-.84Z" transform="translate(-2624 1875)" fill="#ffc145"/>
    <path id="Path_461" data-name="Path 461" d="M97,2139.3H87.43a4,4,0,0,0-4,4v9.6a16.17,16.17,0,0,1,2.23,4.13,1.527,1.527,0,0,0,.14.39l.09.24h0l.06.23c.06.19.11.39.16.58s0,.07,0,.11l.06.32a4.7,4.7,0,0,0,.13.63c.03.21.1.59.14.89s.05.36.07.54c0,.49.07,1,.07,1.48a10.691,10.691,0,0,1-.07,1.49,1.437,1.437,0,0,1-.07.54c-.07.18-.08.6-.14.89s-.09.45-.14.67-.11.45-.17.67-.14.52-.23.77-.09.26-.14.39a15.869,15.869,0,0,1-2.23,4.13v9.6a4,4,0,0,0,4,4H97a4,4,0,0,0,4-4V2143.3a4,4,0,0,0-4-4Z" transform="translate(-2624 1875)" fill="#d3d6db"/>
    <path id="Path_462" data-name="Path 462" d="M93.1,2151.26c5.58,0,0-8.77,0-8.77S87.52,2151.26,93.1,2151.26Z" transform="translate(-2624 1875)" fill="#5ec2ff"/>
    <path id="Path_463" data-name="Path 463" d="M93,2168.81a3.18,3.18,0,0,0,1.6-5.94v-6a1.6,1.6,0,0,0-3.19,0v6a3.18,3.18,0,0,0,1.59,5.94Z" transform="translate(-2624 1875)" fill="#ff8a8a"/>
    <path id="Path_464" data-name="Path 464" d="M93.17,2177.58a4.78,4.78,0,0,0,4.79-4.79A4.79,4.79,0,0,0,93.17,2177.58Z" transform="translate(-2624 1875)" fill="#63af3a"/>
    <path id="Path_465" data-name="Path 465" d="M86.63,2175.83h0a4.79,4.79,0,0,0,6.38,1.83h0l.16-.08a4.78,4.78,0,0,0-6.53-1.75Z" transform="translate(-2624 1875)" fill="#63af3a"/>
    <rect id="Rectangle_148" data-name="Rectangle 148" width="1.6" height="1.6" transform="translate(-2570.07 4015.09)"/>
    <rect id="Rectangle_149" data-name="Rectangle 149" width="1.6" height="1.6" transform="translate(-2568.47 4013.5)"/>
    <rect id="Rectangle_150" data-name="Rectangle 150" width="1.6" height="1.6" transform="translate(-2566.87 4015.09)"/>
    <rect id="Rectangle_151" data-name="Rectangle 151" width="1.6" height="1.6" transform="translate(-2568.47 4016.69)"/>
    <rect id="Rectangle_152" data-name="Rectangle 152" width="1.6" height="1.6" transform="translate(-2550.13 4058.16)"/>
    <rect id="Rectangle_153" data-name="Rectangle 153" width="1.6" height="1.6" transform="translate(-2548.53 4056.56)"/>
    <rect id="Rectangle_154" data-name="Rectangle 154" width="1.6" height="1.6" transform="translate(-2546.94 4058.16)"/>
    <rect id="Rectangle_155" data-name="Rectangle 155" width="1.6" height="1.6" transform="translate(-2548.53 4059.75)"/>
    <rect id="Rectangle_156" data-name="Rectangle 156" width="1.6" height="1.6" transform="translate(-2570.07 4050.98)"/>
    <rect id="Rectangle_157" data-name="Rectangle 157" width="1.6" height="1.6" transform="translate(-2546.94 4015.89)"/>
    <rect id="Rectangle_158" data-name="Rectangle 158" width="1.6" height="1.6" transform="translate(-2554.11 4031.04)"/>
    <rect id="Rectangle_159" data-name="Rectangle 159" width="1.6" height="1.6" transform="translate(-2563.68 4057.36)"/>
    <rect id="Rectangle_160" data-name="Rectangle 160" width="1.6" height="1.6" transform="translate(-2564.48 4042.21)"/>
    <path id="Path_466" data-name="Path 466" d="M97,2138.5H87.43a4.79,4.79,0,0,0-4.79,4.78v7.45a16.74,16.74,0,1,0-.28,23.68,3.856,3.856,0,0,0,.28-.29v7.45a4.79,4.79,0,0,0,4.79,4.78H97a4.79,4.79,0,0,0,4.79-4.78v-38.29A4.79,4.79,0,0,0,97,2138.5Zm-15.3,13.56H73.09a4,4,0,0,1-4-3.921,4.222,4.222,0,0,1,.07-.79,14.8,14.8,0,0,1,1.5-.08,15.091,15.091,0,0,1,11.04,4.79Zm-26.17,10.37a15,15,0,0,1,.79-4.79h6.41a.8.8,0,0,1,0,1.59h-2.4a3.2,3.2,0,0,0,0,6.39H76.68a2,2,0,0,1,0,4H66.32a2.8,2.8,0,1,0,0,5.59h12.5a15.12,15.12,0,0,1-23.29-12.76Zm25.36,11.16H66.32a1.2,1.2,0,1,1,0-2.39H76.68a3.59,3.59,0,1,0,0-7.18H60.33a1.6,1.6,0,0,1,0-3.19h2.4a2.4,2.4,0,0,0,0-4.79H57a15.21,15.21,0,0,1,10.59-8.44,3.729,3.729,0,0,0,0,.47,5.59,5.59,0,0,0,5.58,5.581H83a15.016,15.016,0,0,1,1.75,3.19H77.48a2.8,2.8,0,0,0,0,5.59h8.35a15.071,15.071,0,0,1-4.942,11.161Zm4.86-12.76H77.48a1.2,1.2,0,1,1,0-2.39h7.8a14.87,14.87,0,0,1,.47,2.39Zm14.44,20.74a3.19,3.19,0,0,1-3.19,3.19H87.43a3.19,3.19,0,0,1-3.19-3.19v-9.35a16.64,16.64,0,0,0,0-19.59v-9.35a3.19,3.19,0,0,1,3.19-3.19H97a3.19,3.19,0,0,1,3.19,3.19Z" transform="translate(-2624 1875)"/>
    <path id="Path_467" data-name="Path 467" d="M93.1,2152.06a3,3,0,0,0,2.9-1.43c1.46-2.64-1.84-8-2.23-8.57a.83.83,0,0,0-1.16-.19,1.136,1.136,0,0,0-.19.19c-.38.6-3.68,5.93-2.23,8.57a3,3,0,0,0,2.91,1.43Zm0-8c1.12,2.06,2.1,4.71,1.51,5.79-.08.15-.33.6-1.51.6s-1.42-.45-1.5-.6c-.6-1.07.4-3.72,1.5-5.78Z" transform="translate(-2624 1875)"/>
    <path id="Path_468" data-name="Path 468" d="M93,2169.6a4,4,0,0,0,2.4-7.16v-5.6a2.4,2.4,0,0,0-4.79,0v5.6A4,4,0,0,0,93,2169.6Zm-1.19-6a.851.851,0,0,0,.4-.69v-6a.79.79,0,0,1,.79-.8.8.8,0,0,1,.8.8v6a.811.811,0,0,0,.4.69,2.36,2.36,0,0,1,1.2,2.06,2.4,2.4,0,0,1-4.79,0,2.36,2.36,0,0,1,1.21-2.1Z" transform="translate(-2624 1875)"/>
    <path id="Path_469" data-name="Path 469" d="M98,2172a5.59,5.59,0,0,0-5.28,3.76,5.57,5.57,0,0,0-6.44-.62.8.8,0,0,0-.3,1.09h0a5.58,5.58,0,0,0,6.27,2.6v2.74h1.59v-3.23a5.58,5.58,0,0,0,4.94-5.55A.79.79,0,0,0,98,2172Zm-10.1,4.16a4,4,0,0,1,4.08,1.09,4,4,0,0,1-4.12-1.09Zm6.21.52a4,4,0,0,1,3-3,4,4,0,0,1-3.04,3Z" transform="translate(-2624 1875)"/>
  </g>
</svg>
