<svg xmlns="http://www.w3.org/2000/svg" width="130.53" height="130.59" viewBox="0 0 130.53 130.59">
  <g id="Group_58" data-name="Group 58" transform="translate(-1503.2 -1363.59)">
    <path id="Path_332" data-name="Path 332" d="M146.82,756.15V737.63L129,734.69a47.12,47.12,0,0,0-4.72-11.38l10.5-14.66-13.1-13.1-14.66,10.5a47.119,47.119,0,0,0-11.38-4.72L92.7,683.55H74.22l-2.94,17.78a46.787,46.787,0,0,0-11.38,4.72l-14.66-10.5-13.1,13.1,10.5,14.66a46.72,46.72,0,0,0-4.72,11.38l-17.78,2.94v18.52l17.78,2.94a47,47,0,0,0,4.72,11.39l-10.5,14.65,13.1,13.1,14.66-10.5a46.554,46.554,0,0,0,11.38,4.72l2.94,17.78H92.74l2.94-17.78a46.559,46.559,0,0,0,11.38-4.72l14.66,10.5,13.1-13.1-10.5-14.65A46.629,46.629,0,0,0,129,759.09ZM83.48,784.44A37.55,37.55,0,1,1,121,746.89,37.55,37.55,0,0,1,83.48,784.44Z" transform="translate(1485 682)" fill="#575f84"/>
    <path id="Path_333" data-name="Path 333" d="M39.79,785.13l10.49-14.65a46.61,46.61,0,0,1-4.71-11.39l-17.78-2.94V737.63l17.78-2.94a46.7,46.7,0,0,1,4.71-11.38L39.79,708.65l9.91-9.91-4.46-3.19-13.1,13.1,10.5,14.66a47.12,47.12,0,0,0-4.72,11.38l-17.78,2.94v18.52l17.78,2.94a47,47,0,0,0,4.72,11.39l-10.5,14.65,13.1,13.1L49.7,795Z" transform="translate(1485 682)" fill="#383f5b"/>
    <path id="Path_334" data-name="Path 334" d="M148.73,757.77V736l-18.18-3a48.8,48.8,0,0,0-4-9.57l10.74-15-15.4-15.39-15,10.73a48.8,48.8,0,0,0-9.57-4l-3-18.18H72.6l-3,18.18a48.8,48.8,0,0,0-9.57,4L45,693.06,29.64,708.45l10.74,15a48.8,48.8,0,0,0-4,9.57l-18.18,3v21.76l18.18,3a48.8,48.8,0,0,0,4,9.57l-10.74,15L45,800.73,60,790a48.762,48.762,0,0,0,9.57,4l3,18.18H94.36l3-18.18a48.766,48.766,0,0,0,9.57-4l15,10.73,15.4-15.39-10.74-15a48.8,48.8,0,0,0,4-9.57Zm-21.54.83a45.129,45.129,0,0,1-4.52,10.92l-.62,1.07,10.27,14.34-10.81,10.8-14.34-10.27-1.06.62a45.162,45.162,0,0,1-10.92,4.53l-1.19.31-2.88,17.4H75.84L73,790.92l-1.19-.31a45.16,45.16,0,0,1-10.92-4.53l-1.06-.62L45.45,795.73l-10.81-10.8,10.27-14.34-.62-1.07a45.13,45.13,0,0,1-4.52-10.92l-.32-1.19-17.4-2.88V739.25l17.4-2.88.32-1.19a45.29,45.29,0,0,1,4.52-10.92l.62-1.06L34.64,708.86l10.81-10.81,14.33,10.27,1.07-.62a45.131,45.131,0,0,1,10.92-4.52l1.19-.32,2.88-17.4H91.12L94,702.86l1.19.32a45.131,45.131,0,0,1,10.92,4.52l1.06.62,14.34-10.27,10.81,10.81L122.05,723.2l.62,1.06a45.291,45.291,0,0,1,4.52,10.92l.32,1.19,17.4,2.88v15.28l-17.4,2.88Z" transform="translate(1485 682)"/>
    <circle id="Ellipse_27" data-name="Ellipse 27" cx="38" cy="38" r="38" transform="translate(1530.48 1390.89)" fill="#ffe477"/>
    <path id="Path_335" data-name="Path 335" d="M71.18,743.32c2.2.77,3.56,1,5.13.26,2.27-1.13.9-3.22-.33-4.38s-3.83.1-4.46-1c-2.45-4.18,4-3.24,4.42-5.3.72-3.36-2.71-2.41-4.1-2.55-2.49-.23-1.22-1.9-3.68-4a27.05,27.05,0,0,0-8.6,14.22c4.77.86,2.54,3.69,7.09,1.18C67.64,741.26,70,742.92,71.18,743.32Z" transform="translate(1485 682)" fill="#cbe558" fill-rule="evenodd"/>
    <path id="Path_336" data-name="Path 336" d="M76.31,743.58c-1.57.78-2.93.51-5.13-.26-1.15-.4-3.54-2.06-4.53-1.52-4.55,2.51-2.32-.32-7.09-1.18a27.18,27.18,0,0,0,5.91,24.06c.74-.82,1.33-.63,1.89-1.16.94-.92,0-1.87,1.51-2.32,2.95-.87,5.59,3.08,6.73.31.79-1.91,3.19-2,.72-5.37-1-1.32,1-3.41,1.54-3.46,1.76-.14.83,2.13,4.55,1.94,2.28-.11,2,2,3.57,1.76V719.74a27.05,27.05,0,0,0-17.82,6.66c2.46,2.08,1.19,3.75,3.68,4,1.39.14,4.82-.81,4.1,2.55-.44,2.06-6.87,1.12-4.42,5.3.63,1.07,3.17-.25,4.46,1s2.6,3.25.33,4.38Z" transform="translate(1485 682)" fill="#60a4ff" fill-rule="evenodd"/>
    <path id="Path_337" data-name="Path 337" d="M77.86,752.68c-.53.05-2.5,2.14-1.54,3.46,2.47,3.38.07,3.46-.72,5.37-1.14,2.77-3.78-1.18-6.73-.31-1.54.45-.57,1.4-1.51,2.32-.56.53-1.15.34-1.89,1.16A27.08,27.08,0,0,0,86,774.05V756.38c-1.53.21-1.29-1.87-3.57-1.76-3.72.19-2.79-2.08-4.55-1.94Z" transform="translate(1485 682)" fill="#cbe558" fill-rule="evenodd"/>
    <path id="Path_338" data-name="Path 338" d="M108.72,746.89A22.74,22.74,0,0,1,86,769.63v4.42a27.157,27.157,0,1,0,0-54.315v4.415a22.74,22.74,0,0,1,22.72,22.74Z" transform="translate(1485 682)" fill="#c68a65" fill-rule="evenodd"/>
    <path id="Path_339" data-name="Path 339" d="M86,769.63a22.74,22.74,0,1,0,0-45.48v6.63A16.12,16.12,0,1,1,86,763Z" transform="translate(1485 682)" fill="#ffc144" fill-rule="evenodd"/>
    <path id="Path_340" data-name="Path 340" d="M86,763a16.12,16.12,0,1,0,0-32.23v6.62a9.5,9.5,0,0,1,0,19Z" transform="translate(1485 682)" fill="#ff9346" fill-rule="evenodd"/>
    <path id="Path_341" data-name="Path 341" d="M86,756.38a9.5,9.5,0,0,0,0-19v5.08a4.42,4.42,0,1,1,0,8.83Z" transform="translate(1485 682)" fill="#ff764e" fill-rule="evenodd"/>
    <path id="Path_342" data-name="Path 342" d="M86,751.31a4.42,4.42,0,1,0,0-8.83Z" transform="translate(1485 682)" fill="#ff5d7d" fill-rule="evenodd"/>
    <path id="Path_343" data-name="Path 343" d="M86,718.63a28.26,28.26,0,1,0,28.26,28.26A28.26,28.26,0,0,0,86,718.63Zm1.11,25.14a3.31,3.31,0,0,1,0,6.24Zm0,8.53a5.52,5.52,0,0,0,0-10.81v-2.91a8.39,8.39,0,0,1,0,16.63Zm0,11.78A17.23,17.23,0,0,0,101.29,739a1.1,1.1,0,0,0-1.96,1.01,14.92,14.92,0,0,1,1.66,6.88,15.08,15.08,0,0,1-13.9,15v-4.43a10.6,10.6,0,0,0,0-21.08v-4.43a14.81,14.81,0,0,1,5.77,1.63,1.13,1.13,0,0,0,.51.12,1.11,1.11,0,0,0,.5-2.09,17.09,17.09,0,0,0-6.78-1.87v-4.42a21.63,21.63,0,0,1,0,43.21Zm-19-36.15a5.191,5.191,0,0,1,.75,1.36,3,3,0,0,0,2.86,2.19,7.091,7.091,0,0,0,1.13,0c.61,0,1.73-.07,2,.22a1.44,1.44,0,0,1,0,1,5.181,5.181,0,0,1-1.57.7c-1.29.43-2.75.92-3.26,2.28a3.58,3.58,0,0,0,.54,3.12c.64,1.09,1.89,1,2.89,1,.71,0,1.44-.08,1.76.23a3.16,3.16,0,0,1,1.2,2c0,.21-.24.41-.61.59-1.09.55-2,.48-4.27-.31a10.539,10.539,0,0,1-1.14-.54c-1.51-.77-3.07-1.57-4.28-.9-1.7.93-2.07.88-2.1.87a2.344,2.344,0,0,1-.38-.31,6.27,6.27,0,0,0-2.73-1.59,26.14,26.14,0,0,1,7.22-11.88ZM60.4,742a4.161,4.161,0,0,1,1.74,1,2.62,2.62,0,0,0,2,.9,7,7,0,0,0,3-1.12,7.894,7.894,0,0,1,2.27.91,11.923,11.923,0,0,0,1.41.65,11,11,0,0,0,3.55.8,5.359,5.359,0,0,0,2.44-.59,3,3,0,0,0,1.8-2.25c.26-1.72-1.22-3.32-1.87-3.93a4.34,4.34,0,0,0-3.38-.83,4.9,4.9,0,0,1-.94,0c-.4-.73-.35-1-.32-1.11.15-.38,1.16-.72,1.9-1,1.28-.43,2.73-.91,3-2.32a3.22,3.22,0,0,0-.49-2.88c-.94-1.12-2.57-1-3.75-1h-.84a1.41,1.41,0,0,1-.69-.2,2.42,2.42,0,0,1-.33-.64,7,7,0,0,0-1.12-2,25.88,25.88,0,0,1,15.08-5.62v33.5a3.3,3.3,0,0,0-2.53-.85c-1.61.08-1.93-.33-2.3-.81a2.42,2.42,0,0,0-2.28-1.13c-1,.08-2.07,1.44-2.48,2.33a2.78,2.78,0,0,0,.14,2.89c.81,1.09.89,1.6.87,1.8s-.21.44-.56.82a5.49,5.49,0,0,0-1.16,1.67,1,1,0,0,1-.19.32,5,5,0,0,1-1.36-.5,6.24,6.24,0,0,0-4.47-.77,2.22,2.22,0,0,0-1.79,2.08c0,.32-.06.39-.18.5a.909.909,0,0,1-.38.19c-.16.07-.35.14-.56.25A26,26,0,0,1,60.4,742Zm6.78,22.94a2.629,2.629,0,0,0,.94-.59,2.81,2.81,0,0,0,.84-1.79c0-.06,0-.14,0-.19l.19-.08a4.38,4.38,0,0,1,2.92.66,4,4,0,0,0,3.1.55,2.57,2.57,0,0,0,1.42-1.53,3.681,3.681,0,0,1,.74-1c1.12-1.21,2-2.54-.14-5.42,0,0-.09-.11,0-.34a2.88,2.88,0,0,1,.89-1.35,2.413,2.413,0,0,1,.23.27c.67.87,1.6,1.78,4.16,1.66a1.355,1.355,0,0,1,1.27.64,3.18,3.18,0,0,0,1.14,1v15.6a26,26,0,0,1-17.7-8Zm19.91,8v-2.21a23.84,23.84,0,0,0,0-47.63v-2.21a26,26,0,0,1,0,52Z" transform="translate(1485 682)"/>
    <path id="Path_344" data-name="Path 344" d="M96.56,734.75h0a1.11,1.11,0,0,0,.07,1.56,1.14,1.14,0,0,0,.75.29,1.07,1.07,0,0,0,.81-.36,1.1,1.1,0,1,0-1.63-1.49Z" transform="translate(1485 682)"/>
  </g>
</svg>
