<svg xmlns="http://www.w3.org/2000/svg" width="131.82" height="131.88" viewBox="0 0 131.82 131.88">
  <g id="Group_96" data-name="Group 96" transform="translate(-102 -2518)">
    <g id="Group_92" data-name="Group 92">
      <g id="Group_65" data-name="Group 65" transform="translate(-1395.55 -75.48)">
        <path id="Path_446" data-name="Path 446" d="M142.43,1986.77v-18.71l-18-3a47.468,47.468,0,0,0-4.77-11.49l10.6-14.81-13.23-13.23-14.8,10.6a47.678,47.678,0,0,0-11.5-4.76l-3-18H69.1l-3,18a47.517,47.517,0,0,0-11.5,4.76l-14.8-10.6-13.2,13.26,10.6,14.81a47.081,47.081,0,0,0-4.77,11.49l-18,3v18.71l18,3a47.076,47.076,0,0,0,4.77,11.49L26.6,2016.1l13.23,13.23,14.8-10.61a47.146,47.146,0,0,0,11.5,4.77l3,18H87.81l3-18a47.316,47.316,0,0,0,11.5-4.77l14.8,10.61,13.23-13.23-10.6-14.81a47.467,47.467,0,0,0,4.77-11.49Zm-64,28.57a37.922,37.922,0,1,1,.017,0Z" transform="translate(1485 682)" fill="#575f84"/>
        <path id="Path_447" data-name="Path 447" d="M34.32,2016.05l10.6-14.81a47,47,0,0,1-4.76-11.5l-18-3v-18.71l18-3a47.052,47.052,0,0,1,4.76-11.49l-10.6-14.81,10-10-4.5-3.23L26.6,1938.79l10.6,14.81a47.081,47.081,0,0,0-4.77,11.49l-18,3v18.71l18,3a47.076,47.076,0,0,0,4.77,11.49L26.6,2016.1l13.23,13.23,4.5-3.23Z" transform="translate(1485 682)" fill="#383f5b"/>
        <path id="Path_448" data-name="Path 448" d="M144.37,1988.41v-22l-18.37-3a49.2,49.2,0,0,0-4-9.67l10.84-15.13L117.29,1923l-15.14,10.84a49,49,0,0,0-9.67-4l-3-18.36h-22l-3,18.36a49.109,49.109,0,0,0-9.66,4L39.62,1923l-15.55,15.55,10.84,15.13a50.069,50.069,0,0,0-4,9.67l-18.36,3v22l18.36,3a50.069,50.069,0,0,0,4,9.67l-10.84,15.13,15.55,15.55L54.76,2021a49.111,49.111,0,0,0,9.66,4l3,18.36h22l3-18.36a49,49,0,0,0,9.67-4l15.14,10.84,15.54-15.55L122,2001.12a49.454,49.454,0,0,0,4-9.67Zm-21.76.84a45.58,45.58,0,0,1-4.57,11l-.63,1.08,10.38,14.49-10.92,10.91-14.48-10.37-1.08.62a45.116,45.116,0,0,1-11,4.58l-1.2.32-2.91,17.57H70.74l-2.91-17.57-1.2-.32a45.116,45.116,0,0,1-11-4.58l-1.08-.62L40,2026.75l-10.91-10.91,10.37-14.49-.62-1.08a45.581,45.581,0,0,1-4.57-11L34,1988l-17.58-2.9v-15.4L34,1966.8l.32-1.21a45.809,45.809,0,0,1,4.57-11l.62-1.08L29.12,1939,40,1928.09l14.49,10.37,1.08-.63a45.48,45.48,0,0,1,11-4.57l1.2-.32,2.91-17.57H86.17l2.91,17.57,1.2.32a45.485,45.485,0,0,1,11,4.57l1.08.63,14.48-10.37L127.79,1939l-10.38,14.49.63,1.07a45.812,45.812,0,0,1,4.57,11l.32,1.21,17.57,2.9v15.44l-17.57,2.9Z" transform="translate(1485 682)"/>
        <circle id="Ellipse_37" data-name="Ellipse 37" cx="38" cy="38" r="38" transform="translate(1525.45 2621.42)" fill="#ffe477"/>
        <path id="Path_449" data-name="Path 449" d="M94.22,1975.39h2.21a3.76,3.76,0,1,0,0-1.49H94.22a15.72,15.72,0,0,0-4.1-9.87l4-4a4.659,4.659,0,0,0,2.79.91,4.76,4.76,0,1,0-3.85-2l-4,4a15.75,15.75,0,0,0-9.87-4.1v-2.21a3.76,3.76,0,1,0-1.49,0v2.21a15.719,15.719,0,0,0-9.87,4.1l-4-4a4.75,4.75,0,0,0-1.18-6.73.75.75,0,0,0-1,.2.74.74,0,0,0,.2,1,3.268,3.268,0,1,1-2.71-.41.75.75,0,0,0-.41-1.44A4.762,4.762,0,1,0,60,1961a4.659,4.659,0,0,0,2.79-.91l4,4a15.719,15.719,0,0,0-4.1,9.87H60.48a3.76,3.76,0,1,0,0,1.49h2.21a15.72,15.72,0,0,0,4.1,9.87l-4,4a4.658,4.658,0,0,0-2.79-.91,4.76,4.76,0,1,0,3.84,2l4-4a15.721,15.721,0,0,0,9.87,4.1v2.21a3.75,3.75,0,1,0,1.49,0v-2.21a15.749,15.749,0,0,0,9.87-4.1l4,4a4.75,4.75,0,1,0,8.6,2.79,4.87,4.87,0,0,0-.24-1.51.743.743,0,1,0-1.41.47,3.369,3.369,0,0,1,.16,1,3.27,3.27,0,1,1-3.26-3.27,3.228,3.228,0,0,1,1.19.23.75.75,0,1,0,.55-1.39,4.919,4.919,0,0,0-1.74-.32,4.659,4.659,0,0,0-2.79.91l-4-4a15.72,15.72,0,0,0,4.1-9.87Zm5.89-3a.941.941,0,1,1,0-.01Zm-3.21-19.45a1.355,1.355,0,1,1,0-.01Zm-20.71.06a2.26,2.26,0,1,1,.658,1.6,2.27,2.27,0,0,1-.658-1.6ZM56.8,1976.91a2.27,2.27,0,1,1,2.26-2.26A2.27,2.27,0,0,1,56.8,1976.91Zm21.65-16.56a14.3,14.3,0,1,1-14.29,14.3A14.3,14.3,0,0,1,78.45,1960.35Zm-18.44,36a437.892,437.892,0,1,1-.01.01Zm20.71-.06a2.287,2.287,0,1,0,0,.01Z" transform="translate(1485 682)"/>
        <path id="Path_450" data-name="Path 450" d="M70,1983.81h6.69a.75.75,0,0,0,0-1.49H75v-1.26a.75.75,0,0,0-.75-.74.74.74,0,0,0-.74.74v1.26H70.78v-3.66a3.26,3.26,0,0,1,3.26-3.27h8.82a3.27,3.27,0,0,1,3.27,3.27v3.66H83.41v-1.26a.75.75,0,0,0-.75-.74.74.74,0,0,0-.74.74v1.26H80.19a.75.75,0,0,0,0,1.49h6.68a.75.75,0,0,0,.75-.74v-4.41a4.76,4.76,0,0,0-4.76-4.76h-.55a5.75,5.75,0,1,0-7.72,0H74a4.76,4.76,0,0,0-4.75,4.76v4.41a.74.74,0,0,0,.74.74Zm4.16-14.18a4.26,4.26,0,1,1,1.244,3.019,4.27,4.27,0,0,1-1.244-3.019Z" transform="translate(1485 682)"/>
      </g>
    </g>
  </g>
</svg>
