<svg id="Layer_2" data-name="Layer 2" xmlns="http://www.w3.org/2000/svg" width="131.83" height="131.82" viewBox="0 0 131.83 131.82">
  <g id="Layer_2-2" data-name="Layer 2">
    <path id="Path_240" data-name="Path 240" d="M129.89,75.27V56.56l-18-3a47,47,0,0,0-4.76-11.5l10.6-14.81L104.54,14.06l-14.8,10.6a47.31,47.31,0,0,0-11.5-4.77l-3-18H56.56l-3,18a47,47,0,0,0-11.5,4.77L27.28,14.06,14.06,27.29l10.6,14.8a47,47,0,0,0-4.77,11.5l-18,3V75.27l18,3a47.31,47.31,0,0,0,4.77,11.5l-10.6,14.8L27.29,117.8l14.8-10.6a47,47,0,0,0,11.5,4.76l3,18H75.27l3-18a47.29,47.29,0,0,0,11.5-4.76l14.8,10.6,13.23-13.23-10.6-14.8a47.291,47.291,0,0,0,4.76-11.5Zm-64,28.57a37.92,37.92,0,1,1,.02,0Z" fill="#575f84"/>
    <path id="Path_241" data-name="Path 241" d="M21.78,104.54l10.6-14.8a47.71,47.71,0,0,1-4.77-11.5l-17.95-3V56.56l18-3a47.38,47.38,0,0,1,4.77-11.5L21.78,27.28l10-10-4.5-3.22L14.06,27.28l10.6,14.81a47,47,0,0,0-4.77,11.5l-18,3V75.27l18,3a47.31,47.31,0,0,0,4.77,11.5l-10.6,14.8L27.29,117.8l4.5-3.22Z" fill="#383f5b"/>
    <path id="Path_242" data-name="Path 242" d="M131.83,76.91v-22l-18.37-3a49.11,49.11,0,0,0-4-9.66L120.3,27.11,104.75,11.53,89.61,22.37a49.56,49.56,0,0,0-9.67-4L76.91,0h-22l-3,18.36a49.72,49.72,0,0,0-9.66,4L27.08,11.53,11.53,27.08,22.37,42.22a49.72,49.72,0,0,0-4,9.66L0,54.92v22l18.36,3a49.56,49.56,0,0,0,4,9.67L11.53,104.75l15.55,15.54,15.14-10.84a49.11,49.11,0,0,0,9.66,4l3,18.37h22l3-18.37a49,49,0,0,0,9.67-4l15.14,10.84,15.54-15.54L109.45,89.61a49,49,0,0,0,4-9.67Zm-21.76.83a45.479,45.479,0,0,1-4.57,11l-.63,1.08,10.38,14.48-10.92,10.92L89.85,104.87l-1.08.63a45.48,45.48,0,0,1-11,4.57l-1.2.32L73.63,128H58.2l-2.91-17.57-1.2-.32a45.48,45.48,0,0,1-11-4.57L42,104.87,27.49,115.25,16.58,104.33,27,89.85l-.62-1.08a45.48,45.48,0,0,1-4.57-11l-.32-1.2L3.86,73.63V58.2l17.58-2.91.32-1.2a45.48,45.48,0,0,1,4.57-11L27,42,16.58,27.49,27.49,16.58,42,27l1.08-.62a45.48,45.48,0,0,1,11-4.57l1.2-.32L58.2,3.86H73.63l2.91,17.58,1.2.32a45.48,45.48,0,0,1,11,4.57l1.08.62L104.3,16.58l10.92,10.91L104.87,42l.63,1.08a45.48,45.48,0,0,1,4.57,11l.32,1.2L128,58.2V73.63l-17.57,2.91Z"/>
    <circle id="Ellipse_24" data-name="Ellipse 24" cx="37.92" cy="37.92" r="37.92" transform="translate(27.99 27.99)" fill="#ffe477"/>
    <g id="Page-1">
      <g id="_005---Factory-" data-name="005---Factory-">
        <g id="Icons">
          <path id="Shape" d="M74.71,57.91l-7.37,4.42V58.66a.86.86,0,0,0-.44-.75.85.85,0,0,0-.87,0l-7.37,4.42V58.66a.86.86,0,0,0-.44-.75.85.85,0,0,0-.87,0L50,62.33V58.66a.88.88,0,0,0-1.32-.75L41.3,62.33v1.74H76V58.66a.86.86,0,0,0-.44-.75.85.85,0,0,0-.85,0Z" fill="#0377bc"/>
          <path id="Shape-2" data-name="Shape" d="M63,38.76a7.19,7.19,0,0,1,.81-.13l-.12.33h-.06a6.478,6.478,0,0,0-.63-.2Z" fill="#607d8b"/>
          <path id="Shape-3" data-name="Shape" d="M83,38.89a6.17,6.17,0,0,0-5-1.11l-.53.11a8.9,8.9,0,0,0-2.25.81l-.2.19a5.35,5.35,0,0,0-1.23-.7,8.2,8.2,0,0,0-4.22-.42,5.261,5.261,0,0,0-.78.12,11.069,11.069,0,0,0-2.25.7l-.13.37h-.06a6.69,6.69,0,0,0-2.43-.3l-.12.33h-.06a6.481,6.481,0,0,0-.63-.17,4.71,4.71,0,0,0-1.39.58,4.85,4.85,0,0,0-1.92,5.41A4.2,4.2,0,0,0,63,47.43v.14s0,4.35,6.94,4.35h0a4.07,4.07,0,0,0,1.56,1.23,5.29,5.29,0,0,0,1.35.42,8,8,0,0,0,1.38.12,6.23,6.23,0,0,0,5.3-3l5.12-8.32A4.83,4.83,0,0,0,83,38.89Z" fill="#607d8b"/>
          <path id="Shape-4" data-name="Shape" d="M81.78,42.88,77,50.69a6.24,6.24,0,0,1-4.07,2.84,5.29,5.29,0,0,1-1.35-.42A4.07,4.07,0,0,1,70,51.88h0c-7,.04-7-4.31-7-4.31v-.14a4.2,4.2,0,0,1-3.29-2.68,4.85,4.85,0,0,1,1.92-5.41A4.71,4.71,0,0,1,63,38.76a6.48,6.48,0,0,1,.63.17h.06l.12-.33a6.69,6.69,0,0,1,2.43.3h.06l.13-.37a11.07,11.07,0,0,1,2.25-.7,5.26,5.26,0,0,1,.78-.12,8.2,8.2,0,0,1,4.22.42,5.35,5.35,0,0,1,1.23.7l.2-.19a8.9,8.9,0,0,1,2.25-.81l.53-.11a5.15,5.15,0,0,1,2.43,1.11A5,5,0,0,1,82,41.65,1.72,1.72,0,0,1,81.78,42.88Z" fill="#cfd8dc"/>
          <path id="Shape-5" data-name="Shape" d="M86.43,46.9v4.15H81.22V46.9a1.07,1.07,0,0,1,1.06-1.06h3.09a1.05,1.05,0,0,1,1.06,1.06Z" fill="#37474f"/>
          <path id="Shape-6" data-name="Shape" d="M89.04,69.28H78.62L81,51.05l.22-1.74h5.21Z" fill="#37474f"/>
          <path id="Shape-7" data-name="Shape" d="M83.83,46.9v4.15H81l.22-1.74V46.9a1.07,1.07,0,0,1,1.06-1.06h.49a1.06,1.06,0,0,1,1.06,1.06Z" fill="#607d8b"/>
          <path id="Shape-8" data-name="Shape" d="M86.43,69.28H78.62L81,51.05l.22-1.74h2.61l.22,1.74Z" fill="#607d8b"/>
          <path id="Shape-9" data-name="Shape" d="M91.64,69.3V84.9H74.28V68.41H90.75a.89.89,0,0,1,.63.26.88.88,0,0,1,.26.63Z" fill="#1566c0"/>
          <path id="Shape-10" data-name="Shape" d="M89,69.3V84.9H74.28V68.41H88.14a.9.9,0,0,1,.64.26.92.92,0,0,1,.22.63Z" fill="#2296f3"/>
          <rect id="Rectangle-path" width="34.72" height="22.57" transform="translate(41.3 62.33)" fill="#0377bc"/>
          <rect id="Rectangle-path-2" data-name="Rectangle-path" width="32.12" height="22.57" transform="translate(41.3 62.33)" fill="#02a9f4"/>
          <rect id="Rectangle-path-3" data-name="Rectangle-path" width="6.08" height="5.21" rx="0.87" transform="translate(44.77 72.75)" fill="#fff"/>
          <rect id="Rectangle-path-4" data-name="Rectangle-path" width="6.08" height="5.21" rx="0.87" transform="translate(54.32 72.75)" fill="#fff"/>
          <path id="Shape-11" data-name="Shape" d="M72.54,71.07V84.9H63.86V71.07a.91.91,0,0,1,.87-.93h7a.89.89,0,0,1,.81.93Z" fill="#607d8b"/>
          <path id="Shape-12" data-name="Shape" d="M82.09,78h3.47a.86.86,0,0,1,.87.86V84H81.22V78.82a.86.86,0,0,1,.87-.82Z" fill="#ffeb3a"/>
          <path id="Shape-13" data-name="Shape" d="M91.64,84v2.61a.86.86,0,0,1-.87.86H42.16a.85.85,0,0,1-.86-.86V84Z" fill="#fdd834"/>
          <path id="Shape-14" data-name="Shape" d="M89,84v2.61a.86.86,0,0,1-.87.86h-46a.85.85,0,0,1-.86-.86V84Z" fill="#ffeb3a"/>
        </g>
        <g id="Outline">
          <path id="Shape-15" data-name="Shape" d="M42.16,88.37H90.77a1.74,1.74,0,0,0,1.74-1.73V68.41a.87.87,0,0,0-.87-.87H89.79L87.3,49.25V45.84a.87.87,0,0,0-.87-.87H81.22a.87.87,0,0,0-.86.87v3.41l-2.5,18.29h-1V57.12a.87.87,0,0,0-1.31-.74L68.2,60.8V57.12a.87.87,0,0,0-1.31-.74L59.52,60.8V57.12a.87.87,0,0,0-1.31-.74L53.87,59a.87.87,0,0,0-.28,1.19.86.86,0,0,0,1.17.3l3-1.81v2.8H50.84V57.12a.87.87,0,0,0-1.31-.74l-8.68,5.21-.08.07a.709.709,0,0,0-.13.12l-.09.13a1,1,0,0,0-.07.15.47.47,0,0,0,0,.17.36.36,0,0,0,0,.1V86.64a1.74,1.74,0,0,0,1.73,1.73Zm33-25.17v20H73.41V71a1.72,1.72,0,0,0-1.73-1.73h-7A1.72,1.72,0,0,0,63,71V83.16H42.16V67.54h6.08a.87.87,0,1,0,0-1.74H42.16V63.2ZM64.73,81.43h4.34a.87.87,0,0,0,0-1.74H64.73V78h4.34a.87.87,0,0,0,0-1.74H64.73V74.48h4.34a.87.87,0,1,0,0-1.73H64.73V71h7V83.16h-7Zm26,5.21H42.16V84.9H90.77Zm-5.21-3.48H82.09V78.82h3.47ZM82.09,46.71h3.47v1.73H82.09ZM82,50.18h3.69L88,67.54H79.62Zm8.79,19.1V83.16H87.3V78.82a1.74,1.74,0,0,0-1.74-1.73H82.09a1.73,1.73,0,0,0-1.73,1.73v4.34H76.88V73.62h3.48a.87.87,0,1,0,0-1.74H76.88v-2.6ZM75.15,61.46H70.47l4.68-2.8Zm-8.68,0H61.79l4.68-2.8Zm-17.36,0H44.43l4.68-2.8Z"/>
          <path id="Shape-16" data-name="Shape" d="M51.71,67.54h9.55a.87.87,0,0,0,0-1.74H51.71a.87.87,0,0,0,0,1.74Z"/>
          <path id="Shape-17" data-name="Shape" d="M43.9,73.62v3.47a1.73,1.73,0,0,0,1.74,1.73H50a1.73,1.73,0,0,0,1.73-1.73V73.62A1.74,1.74,0,0,0,50,71.88H45.64a1.74,1.74,0,0,0-1.74,1.74ZM50,77.09H45.64V73.62H50Z"/>
          <path id="Shape-18" data-name="Shape" d="M59.52,71.88H55.18a1.73,1.73,0,0,0-1.73,1.74v3.47a1.72,1.72,0,0,0,1.73,1.73h4.34a1.73,1.73,0,0,0,1.74-1.73V73.62a1.74,1.74,0,0,0-1.74-1.74Zm-4.34,5.21V73.62h4.34v3.47Z"/>
          <path id="Shape-19" data-name="Shape" d="M83.83,73.62h4.34a.87.87,0,1,0,0-1.74H83.83a.87.87,0,0,0,0,1.74Z"/>
          <path id="Shape-20" data-name="Shape" d="M62.19,48.08c.24,1.28,1.45,4.57,7.42,4.69a6.11,6.11,0,0,0,4.67,1.75L75.2,54a.88.88,0,0,0,.82.56h1.13l-1.43-.87,1.43-.87H76a.89.89,0,0,0-.82.56l-.92-.56c-4.17,0-4.33-3.11-4.34-3.47a.87.87,0,0,0-1.74,0A5.13,5.13,0,0,0,68.51,51c-3-.32-4.05-1.64-4.43-2.54h.39a.87.87,0,1,0,0-1.73c-1.49,0-3.41-.58-3.91-2.22a4,4,0,0,1,1.56-4.42A4.73,4.73,0,0,1,66,39.75a11.4,11.4,0,0,1,1.79.78A.87.87,0,1,0,68.62,39l-.26-.12.54-.14c1.31-.26,3.76-.49,5.53.84A3.8,3.8,0,0,1,76,42.39a.85.85,0,0,0,.86.84h0a.84.84,0,0,0,.61-.27.87.87,0,0,0,.23-.62,5.3,5.3,0,0,0-1.33-3.25,6.84,6.84,0,0,1,1.17-.35,5.68,5.68,0,0,1,4.81.81,4,4,0,0,1,1.43,2.84.86.86,0,0,0,.87.84h0a.87.87,0,0,0,.61-.26.89.89,0,0,0,.23-.62,5.68,5.68,0,0,0-2-4.12A7.15,7.15,0,0,0,77.22,37a9.68,9.68,0,0,0-2.28.81A9,9,0,0,0,68.56,37a12.09,12.09,0,0,0-2.44.75,1,1,0,0,0-.2.15,6.26,6.26,0,0,0-4.73.67A5.66,5.66,0,0,0,58.9,45a4.78,4.78,0,0,0,3.29,3.08Z"/>
        </g>
      </g>
    </g>
  </g>
</svg>
