<svg xmlns="http://www.w3.org/2000/svg" width="131.83" height="131.82" viewBox="0 0 131.83 131.82">
  <g id="Group_102" data-name="Group 102" transform="translate(-102 -2715)">
    <g id="Layer_2" data-name="Layer 2" transform="translate(102 2715)">
      <g id="Layer_2-2" data-name="Layer 2">
        <path id="Path_178" data-name="Path 178" d="M129.89,75.27V56.56l-18-3a47,47,0,0,0-4.76-11.5l10.6-14.81L104.54,14.06l-14.8,10.6a47.31,47.31,0,0,0-11.5-4.77l-3-18H56.56l-3,18a47,47,0,0,0-11.5,4.77L27.28,14.06,14.06,27.29l10.6,14.8a47,47,0,0,0-4.77,11.5l-18,3V75.27l18,3a47.31,47.31,0,0,0,4.77,11.5l-10.6,14.8L27.29,117.8l14.8-10.6a47,47,0,0,0,11.5,4.76l3,18H75.27l3-18a47.29,47.29,0,0,0,11.5-4.76l14.8,10.6,13.23-13.23-10.6-14.8a47.291,47.291,0,0,0,4.76-11.5Zm-64,28.57a37.92,37.92,0,1,1,.02,0Z" fill="#575f84"/>
        <path id="Path_179" data-name="Path 179" d="M21.78,104.54l10.6-14.8a47.71,47.71,0,0,1-4.77-11.5l-17.95-3V56.56l18-3a47.38,47.38,0,0,1,4.77-11.5L21.78,27.28l10-10-4.5-3.22L14.06,27.28l10.6,14.81a47,47,0,0,0-4.77,11.5l-18,3V75.27l18,3a47.31,47.31,0,0,0,4.77,11.5l-10.6,14.8L27.29,117.8l4.5-3.22Z" fill="#383f5b"/>
        <path id="Path_180" data-name="Path 180" d="M131.83,76.91v-22l-18.37-3a49.11,49.11,0,0,0-4-9.66L120.3,27.11,104.75,11.53,89.61,22.37a49.56,49.56,0,0,0-9.67-4L76.91,0h-22l-3,18.36a49.72,49.72,0,0,0-9.66,4L27.08,11.53,11.53,27.08,22.37,42.22a49.72,49.72,0,0,0-4,9.66L0,54.92v22l18.36,3a49.56,49.56,0,0,0,4,9.67L11.53,104.75l15.55,15.54,15.14-10.84a49.11,49.11,0,0,0,9.66,4l3,18.37h22l3-18.37a49,49,0,0,0,9.67-4l15.14,10.84,15.54-15.54L109.45,89.61a49,49,0,0,0,4-9.67Zm-21.76.83a45.479,45.479,0,0,1-4.57,11l-.63,1.08,10.38,14.48-10.92,10.92L89.85,104.87l-1.08.63a45.48,45.48,0,0,1-11,4.57l-1.2.32L73.63,128H58.2l-2.91-17.57-1.2-.32a45.48,45.48,0,0,1-11-4.57L42,104.87,27.49,115.25,16.58,104.33,27,89.85l-.62-1.08a45.48,45.48,0,0,1-4.57-11l-.32-1.2L3.86,73.63V58.2l17.58-2.91.32-1.2a45.48,45.48,0,0,1,4.57-11L27,42,16.58,27.49,27.49,16.58,42,27l1.08-.62a45.48,45.48,0,0,1,11-4.57l1.2-.32L58.2,3.86H73.63l2.91,17.58,1.2.32a45.48,45.48,0,0,1,11,4.57l1.08.62L104.3,16.58l10.92,10.91L104.87,42l.63,1.08a45.48,45.48,0,0,1,4.57,11l.32,1.2L128,58.2V73.63l-17.57,2.91Z"/>
        <circle id="Ellipse_16" data-name="Ellipse 16" cx="37.92" cy="37.92" r="37.92" transform="translate(27.99 27.99)" fill="#ffe477"/>
        <path id="Path_181" data-name="Path 181" d="M86.06,55.61a7.53,7.53,0,0,1-3.47.38,21.41,21.41,0,0,0-6.08.39c-8.14,1.73-9.84,5.47-9.84,5.47s-1.7-3.74-9.85-5.47A21.37,21.37,0,0,0,50.74,56a7.51,7.51,0,0,1-3.46-.38.32.32,0,0,0-.45.29v3.22l19.84,7.82,19.84-7.82V55.9a.32.32,0,0,0-.45-.29Z" fill="#fdf6ec"/>
        <path id="Path_182" data-name="Path 182" d="M86.51,55.9v3.22L84.38,60V56.3a.4.4,0,0,0-.09-.25,5.33,5.33,0,0,0,1.77-.4.32.32,0,0,1,.45.29Z" fill="#fcead0"/>
        <path id="Path_183" data-name="Path 183" d="M66.67,66.94l-21.9-8.63a.51.51,0,0,0-.69.48v2.72l22.59,9.28,22.59-9.28V58.79a.51.51,0,0,0-.7-.48Z" fill="#6ed5a1"/>
        <path id="Path_184" data-name="Path 184" d="M89.26,58.79v2.72l-2.13.87v-3a.56.56,0,0,0-.21-.45l1.64-.65a.51.51,0,0,1,.7.51Z" fill="#46cc8d"/>
        <path id="Path_185" data-name="Path 185" d="M92.9,81.58,40.73,60.13a.39.39,0,0,0-.53.36V63.8a.39.39,0,0,0,.21.35L84.7,87a.45.45,0,0,0,.3,0l2.93-.8a.33.33,0,0,1,.24,0L92.61,88a.38.38,0,0,0,.53-.35V81.94a.4.4,0,0,0-.24-.36Z" fill="#c68d7a"/>
        <path id="Path_186" data-name="Path 186" d="M93.14,81.93v2a.35.35,0,0,0-.13-.08L40.73,62.35a.39.39,0,0,0-.53.36V60.49a.39.39,0,0,1,.53-.36L92.9,81.58A.39.39,0,0,1,93.14,81.93Z" fill="#bc7c63"/>
        <path id="Path_187" data-name="Path 187" d="M40.44,81.58,92.6,60.13a.39.39,0,0,1,.54.36V63.8a.39.39,0,0,1-.21.35L48.64,87a.45.45,0,0,1-.28,0l-2.93-.8a.36.36,0,0,0-.25,0L40.73,88a.38.38,0,0,1-.53-.35V81.94A.38.38,0,0,1,40.44,81.58Z" fill="#935b44"/>
        <path id="Path_188" data-name="Path 188" d="M40.2,81.93v2a.32.32,0,0,1,.12-.08L92.6,62.35a.39.39,0,0,1,.54.36V60.49a.39.39,0,0,0-.54-.36L40.44,81.58a.38.38,0,0,0-.24.35Z" fill="#87523e"/>
        <circle id="Ellipse_17" data-name="Ellipse 17" cx="1.07" cy="1.07" r="1.07" transform="translate(65.6 72.82)"/>
        <path id="Path_189" data-name="Path 189" d="M93.94,63.8V60.49a1.19,1.19,0,0,0-1.64-1.1l-2.24.92V58.79a1.3,1.3,0,0,0-1.79-1.22l-1,.38V55.9a1.08,1.08,0,0,0-.5-.93,1.11,1.11,0,0,0-1.06-.09,6.77,6.77,0,0,1-3.08.32,21.89,21.89,0,0,0-6.31.4c-5.84,1.24-8.54,3.51-9.68,4.85a11.18,11.18,0,0,0-1-1,17.35,17.35,0,0,0-6.62-3.34.8.8,0,0,0-.44,1.54c5.18,1.49,6.89,3.83,7.24,4.4v.77a36.37,36.37,0,0,0-11.44-4.65.8.8,0,0,0-.32,1.56c.07,0,6.91,1.45,11.76,5v1L61.27,64,47.63,58.58v-2a9.24,9.24,0,0,0,3.17.21,20.32,20.32,0,0,1,4.41.12.8.8,0,0,0,.22-1.58,22.19,22.19,0,0,0-4.75-.13,6.75,6.75,0,0,1-3.08-.32,1.11,1.11,0,0,0-1.06.09,1.09,1.09,0,0,0-.51.93V58l-1-.38a1.3,1.3,0,0,0-1.79,1.22v1.52L41,59.39a1.19,1.19,0,0,0-1.64,1.1V63.8A1.2,1.2,0,0,0,40,64.86l17.3,8.91L40.13,80.84a1.18,1.18,0,0,0-.73,1.1v5.74a1.2,1.2,0,0,0,.52,1,1.22,1.22,0,0,0,.66.2,1.13,1.13,0,0,0,.45-.09L45.36,87l2.79.76a1.19,1.19,0,0,0,.85-.09l17.67-9.1,9.47,4.88A.814.814,0,0,0,76.88,82l-8.47-4.36,5.73-3,18.2,7.48v4.85l-3.88-1.58a1.17,1.17,0,0,0-.76,0l-2.78.75L80.2,83.75a.8.8,0,1,0-.73,1.42l4.86,2.51a1.22,1.22,0,0,0,.86.09L88,87l4.32,1.76a1.189,1.189,0,0,0,1.64-1.11V81.93a1.17,1.17,0,0,0-.74-1.09L76,73.77l17.29-8.91a1.19,1.19,0,0,0,.65-1.06Zm-26.47,1c4.84-3.59,11.68-5,11.75-5a.8.8,0,1,0-.32-1.56,36.45,36.45,0,0,0-11.43,4.65v-.77A6.6,6.6,0,0,1,69,60.39a18,18,0,0,1,7.65-3.22,20.16,20.16,0,0,1,5.85-.38,9.3,9.3,0,0,0,3.18-.21v2L72.07,64l-4.6,1.81v-1Zm-22.6-5.57L66.38,67.7a.83.83,0,0,0,.58,0l21.5-8.47V61L66.67,70l-21.8-9ZM41,63.55V61.1l23.57,9.69L59.28,73ZM40.74,82.32Zm51.6-18.77L48.41,86.18l-2.77-.75a1.17,1.17,0,0,0-.76,0L41,87.06V82.21L92.34,61.1Z"/>
        <circle id="Ellipse_18" data-name="Ellipse 18" cx="1.07" cy="1.07" r="1.07" transform="translate(69.6 39.83)"/>
        <circle id="Ellipse_19" data-name="Ellipse 19" cx="1.07" cy="1.07" r="1.07" transform="translate(72.86 39.83)"/>
        <path id="Path_190" data-name="Path 190" d="M79.7,52.74a.8.8,0,0,0,.8-.8V42.78a.8.8,0,1,0-1.6,0v9.16a.8.8,0,0,0,.8.8Z"/>
        <path id="Path_191" data-name="Path 191" d="M54.26,42.78v9.16a.8.8,0,1,0,1.6,0V42.78a.8.8,0,0,0-1.6,0Z"/>
        <path id="Path_192" data-name="Path 192" d="M59.78,53.25a4.6,4.6,0,0,0,2.19.49,5.65,5.65,0,0,0,3.82-1.34,4,4,0,0,0,.94-1.57,6.21,6.21,0,0,0,3.19.92c2.87,0,5.62-1.77,5.59-4.85A4.25,4.25,0,0,0,74,43.52a2.88,2.88,0,0,0-2.65-.4,2.76,2.76,0,0,0-2,3.33,2.6,2.6,0,0,0,1.49,1.67,4.27,4.27,0,0,0,2.79.15c-.41.89-1.35,1.67-3.35,1.86a4.58,4.58,0,0,1-3.21-1l-.1-.07a13.779,13.779,0,0,0-.34-2.52l-.29-1.41a.8.8,0,1,0-1.56.32l.28,1.41a10.07,10.07,0,0,1,.3,2.48,2.86,2.86,0,0,1-.72,1.92,4.32,4.32,0,0,1-4.11.58,1.52,1.52,0,0,1-.81-1.19,1.33,1.33,0,0,1,.53-1.19.81.81,0,0,0,.11-1.13.79.79,0,0,0-1.12-.11,2.91,2.91,0,0,0-1.11,2.57,3.12,3.12,0,0,0,1.63,2.45Zm13.85-6.66a2.74,2.74,0,0,1-2.11.07A1,1,0,0,1,70.9,46a1.2,1.2,0,0,1,.91-1.35,2,2,0,0,1,.52-.08,1.16,1.16,0,0,1,.72.24,2.5,2.5,0,0,1,.84,1.7A.87.87,0,0,0,73.63,46.59Z"/>
        <path id="Path_193" data-name="Path 193" d="M52.9,40.47a.81.81,0,0,0,.74.48.7.7,0,0,0,.31-.07c1.37-.59,2.84-1.35,2.9-1.38a.82.82,0,0,0,.4-.93.8.8,0,0,0-.83-.58c-1.07.08-1.7-.12-1.88-.59a.64.64,0,0,1,.09-.69.7.7,0,0,1,.69-.22.79.79,0,0,0,1-.6.8.8,0,0,0-.6-1,2.3,2.3,0,0,0-2.25.73,2.3,2.3,0,0,0,.53,3.5l-.67.3a.8.8,0,0,0-.43,1.05Z"/>
      </g>
    </g>
  </g>
</svg>
