<svg xmlns="http://www.w3.org/2000/svg" width="130.54" height="130.56" viewBox="0 0 130.54 130.56">
  <g id="Group_55" data-name="Group 55" transform="translate(-1502.55 -848.82)">
    <path id="Path_514" data-name="Path 514" d="M146.18,241.36V222.83l-17.78-2.94a47.12,47.12,0,0,0-4.72-11.38l10.49-14.65-13.09-13.1-14.66,10.49A46.7,46.7,0,0,0,95,186.54l-2.9-17.78H73.57l-2.94,17.78a46.7,46.7,0,0,0-11.38,4.71L44.59,180.76,31.5,193.86,42,208.51a47.12,47.12,0,0,0-4.72,11.38l-17.77,3v18.52l17.77,2.94A47.12,47.12,0,0,0,42,255.68L31.5,270.34l13.1,13.09,14.65-10.49a47.121,47.121,0,0,0,11.38,4.72l2.94,17.78H92.1L95,277.66a47.12,47.12,0,0,0,11.38-4.72l14.66,10.49,13.09-13.09-10.49-14.66a47.12,47.12,0,0,0,4.72-11.38ZM82.84,269.64a37.537,37.537,0,1,1,.007,0Z" transform="translate(1485 682)" fill="#575f84"/>
    <path id="Path_515" data-name="Path 515" d="M39.15,270.34l10.49-14.66a47.12,47.12,0,0,1-4.72-11.38l-17.78-2.94V222.83l17.78-2.94a47.12,47.12,0,0,1,4.72-11.38L39.15,193.86l9.9-9.91-4.45-3.19-13.1,13.1L42,208.51a47.12,47.12,0,0,0-4.72,11.38l-17.77,3v18.52l17.77,2.94A47.12,47.12,0,0,0,42,255.68L31.5,270.34l13.1,13.09,4.45-3.19Z" transform="translate(1485 682)" fill="#383f5b"/>
    <path id="Path_516" data-name="Path 516" d="M148.09,243V221.21l-18.18-3a48.8,48.8,0,0,0-4-9.57l10.73-15-15.39-15.39L106.3,189a49.311,49.311,0,0,0-9.57-4l-3-18.18H72L69,185a48.8,48.8,0,0,0-9.57,4l-15-10.73L29,193.65l10.73,15a48.8,48.8,0,0,0-4,9.57l-18.18,3V243l18.18,3a49.31,49.31,0,0,0,4,9.57L29,270.54l15.39,15.39,15-10.73a49,49,0,0,0,9.56,4l3,18.18H93.72l3-18.18a49.31,49.31,0,0,0,9.57-4l15,10.73,15.39-15.39-10.73-15a49.309,49.309,0,0,0,4-9.57Zm-21.54.82a44.6,44.6,0,0,1-4.55,10.9l-.62,1.07,10.27,14.34-10.8,10.8-14.34-10.26-1.07.61a44.761,44.761,0,0,1-10.92,4.53l-1.19.32-2.87,17.39H75.2l-2.88-17.39-1.19-.32a44.761,44.761,0,0,1-10.92-4.53l-1.07-.61L44.8,280.93,34,270.13l10.27-14.34-.62-1.07a44.76,44.76,0,0,1-4.53-10.92l-.32-1.19-17.39-2.87V224.46l17.39-2.88.32-1.19a44.76,44.76,0,0,1,4.53-10.92l.62-1.07L34,194.06l10.8-10.8,14.34,10.27,1.07-.62a44.759,44.759,0,0,1,10.92-4.53l1.19-.32,2.88-17.39H90.48l2.87,17.39,1.19.32a44.6,44.6,0,0,1,10.92,4.53l1.07.62,14.34-10.27,10.8,10.8L121.41,208.4l.61,1.07a44.76,44.76,0,0,1,4.53,10.92l.32,1.19,17.39,2.88v15.28l-17.39,2.87Z" transform="translate(1485 682)"/>
    <circle id="Ellipse_40" data-name="Ellipse 40" cx="38" cy="38" r="38" transform="translate(1529.84 876.47)" fill="#ffe477"/>
    <path id="Path_517" data-name="Path 517" d="M108.93,239.6a9,9,0,0,0-9.56-2l-1.43-1.43a2.791,2.791,0,0,0,.32-.28l3.58-3.57a3.11,3.11,0,0,0,0-4.4h0a3.09,3.09,0,0,0-2.37-.9,3.747,3.747,0,0,0,0-.48,3.44,3.44,0,0,0-3.28-3.43,3.5,3.5,0,0,0-.83-3.53,3.45,3.45,0,0,0-2.84-1v-.4a3.39,3.39,0,0,0-1-2.43,3.43,3.43,0,0,0-4.87,0l-2.29,2.28-.18-.18a2.22,2.22,0,0,0-3.11,0l-.76.76L78.1,216.4a8.89,8.89,0,0,0-10-12c-.42.08-1.68.32-1.94,1.29s.65,1.72,1.08,2.1l3.57,3.55a2.49,2.49,0,0,1,.15,3.37,2.53,2.53,0,0,1-3.38-.15l-3.56-3.57c-.37-.43-1.15-1.33-2.1-1.08s-1.21,1.53-1.29,1.94a8.87,8.87,0,0,0,2.45,8,9,9,0,0,0,9.55,2l2.56,2.55a6.13,6.13,0,0,0-.4,2.59c.12,2-.94,4-3.56,6.57l-2.71,2.71a2.46,2.46,0,0,0-2.85.45l-3.81,3.8a2.43,2.43,0,0,0,0,3.45l10.51,10.5a2.48,2.48,0,0,0,1.73.71,2.44,2.44,0,0,0,1.73-.71l3.81-3.8a2.45,2.45,0,0,0,.72-1.73,2.38,2.38,0,0,0-.27-1.12l4.63-4.61c1.37-1.37,1.59-1.33,3-1.09l.83.13a6.46,6.46,0,0,0,3.58-.91L93.94,243a8.9,8.9,0,0,0-.6,3.62.74.74,0,0,0,.74.72h0a.75.75,0,0,0,.71-.78,7.4,7.4,0,0,1,.67-3.42.75.75,0,0,0-.15-.84L83.4,230.41a6.46,6.46,0,0,0,.79-2.84,8.18,8.18,0,0,0,3.1,1.63,5.3,5.3,0,0,0,2.51.13h0a3.44,3.44,0,0,0,3.29,3.43,3.1,3.1,0,0,0,2.97,4.02h.37L98.67,239a.75.75,0,0,0,.84.15,7.4,7.4,0,0,1,10.39,8.1,2.23,2.23,0,0,1-.22.72,3.718,3.718,0,0,1-.57-.56c-.06-.08-3.63-3.65-3.63-3.65a4,4,0,0,0-5.46-.18.46.46,0,0,0-.07.07,4,4,0,0,0,.18,5.45l4.22,4.19a2.33,2.33,0,0,1-.73.22,7.44,7.44,0,0,1-8-3.88.74.74,0,0,0-1-.33.75.75,0,0,0-.33,1,8.91,8.91,0,0,0,7.93,4.83,9.531,9.531,0,0,0,1.67-.16c.42-.08,1.68-.32,1.94-1.29s-.65-1.72-1.08-2.1l-3.57-3.55a2.49,2.49,0,0,1-.15-3.37,2.53,2.53,0,0,1,3.38.15l3.56,3.56c.38.44,1.16,1.34,2.1,1.09s1.21-1.53,1.29-1.94a8.9,8.9,0,0,0-2.44-8Zm-14.6-18.95a2,2,0,0,1,0,2.73L92,225.77c-.41-.59-2.68-2.84-2.68-2.84l2.28-2.28a2,2,0,0,1,2.73,0Zm-6.59-3.82a1.955,1.955,0,1,1,2.77,2.76l-2.29,2.28-2.76-2.76Zm-14.33,3.61a.75.75,0,0,0-.84-.15,7.4,7.4,0,0,1-10.39-8.1,2.54,2.54,0,0,1,.22-.72,3.3,3.3,0,0,1,.6.53c.06.08,3.63,3.64,3.63,3.64a4,4,0,0,0,5.46.19l.07-.07a4,4,0,0,0-.18-5.45s-4.14-4.09-4.22-4.19a2.33,2.33,0,0,1,.73-.22,7.39,7.39,0,0,1,8.12,10.36.75.75,0,0,0,.15.84l2.57,2.57-2.78,2.77a4.632,4.632,0,0,0-.5.58Zm17.4,6.48a3.378,3.378,0,0,0-.5.63c-1.59,1-4.1-.1-5.35-1.31l-.16-.15L83,224.28h0a.75.75,0,0,0-1.06,1.05h0a2.82,2.82,0,0,1,.77,2.06,5.78,5.78,0,0,1-1.8,3.91.75.75,0,0,0,1.06,1c.21-.21.41-.44.6-.67l8.58,8.56a4.46,4.46,0,0,1-2.25.54l-.8-.13c-1.73-.28-2.51-.33-4.35,1.51l-4.54,4.53L75.44,243a.75.75,0,0,0-1.06,0,.73.73,0,0,0,0,1.05l4.28,4.28h0A.93.93,0,0,1,79,249a1,1,0,0,1-.28.67l-3.81,3.8a1,1,0,0,1-1.35,0L63,242.93a1,1,0,0,1,0-1.35l3.81-3.8a1,1,0,0,1,1.35,0l3.77,3.76a.74.74,0,0,0,1,0,.75.75,0,0,0,0-1.06l-3.23-3.22,2.63-2.63c2.94-2.94,4.14-5.25,4-7.72a4.5,4.5,0,0,1,1.21-3.38l4.6-4.59a.72.72,0,0,1,1,0l.7.7,4.87,4.86.39.38a12.451,12.451,0,0,1,1.75,2Zm2.44,4.38a2,2,0,0,1-1.38-3.3l2.8-2.79a2,2,0,0,1,2.77,0h0a1.94,1.94,0,0,1,0,2.75h0l-2.81,2.8a1.9,1.9,0,0,1-1.38.57Zm1.67,3.54a1.62,1.62,0,0,1,0-2.28L98.49,229a1.66,1.66,0,0,1,1.15-.47,1.64,1.64,0,0,1,1.15.47h0a1.62,1.62,0,0,1,0,2.28l-3.58,3.57a1.62,1.62,0,0,1-2.29,0Z" transform="translate(1485 682)"/>
  </g>
</svg>
