<svg xmlns="http://www.w3.org/2000/svg" width="130.53" height="130.52" viewBox="0 0 130.53 130.52">
  <g id="Group_56" data-name="Group 56" transform="translate(-1503.2 -1020.55)">
    <path id="Path_263" data-name="Path 263" d="M146.82,413.05V394.53L129,391.58a47.12,47.12,0,0,0-4.72-11.38l10.5-14.65-13.1-13.1-14.66,10.49a46.7,46.7,0,0,0-11.38-4.71L92.7,340.45H74.22l-2.94,17.78a46.37,46.37,0,0,0-11.38,4.71L45.24,352.45l-13.1,13.1,10.5,14.65a46.63,46.63,0,0,0-4.72,11.39l-17.78,2.94v18.52L37.92,416a47.121,47.121,0,0,0,4.72,11.38L32.14,442l13.1,13.09L59.9,444.63a47,47,0,0,0,11.38,4.72l2.94,17.78H92.74l2.94-17.78a47,47,0,0,0,11.38-4.72l14.66,10.49L134.82,442l-10.5-14.66A46.72,46.72,0,0,0,129,416ZM83.48,441.33A37.55,37.55,0,1,1,121,403.793,37.55,37.55,0,0,1,83.48,441.33Z" transform="translate(1485 682)" fill="#575f84"/>
    <path id="Path_264" data-name="Path 264" d="M39.79,442l10.49-14.66A46.7,46.7,0,0,1,45.57,416l-17.78-2.94V394.53l17.78-2.95a46.7,46.7,0,0,1,4.71-11.38L39.79,365.55l9.91-9.91-4.46-3.19-13.1,13.1,10.5,14.65a47.12,47.12,0,0,0-4.72,11.38l-17.78,2.95v18.52L37.92,416a47.121,47.121,0,0,0,4.72,11.38L32.14,442l13.1,13.09,4.46-3.19Z" transform="translate(1485 682)" fill="#383f5b"/>
    <path id="Path_265" data-name="Path 265" d="M148.73,414.67V392.9l-18.18-3a48.8,48.8,0,0,0-4-9.57l10.74-15L121.92,350l-15,10.73a48.159,48.159,0,0,0-9.57-4l-3-18.18H72.6l-3,18.18a48.159,48.159,0,0,0-9.57,4L45,350,29.64,365.34l10.74,15a48.8,48.8,0,0,0-4,9.57l-18.18,3v21.77l18.18,3a48.8,48.8,0,0,0,4,9.57l-10.74,15L45,457.62l15-10.73a48.8,48.8,0,0,0,9.57,4l3,18.18H94.36l3-18.18a48.8,48.8,0,0,0,9.57-4l15,10.73,15.4-15.39-10.74-15a48.8,48.8,0,0,0,4-9.57Zm-21.54.83a45.061,45.061,0,0,1-4.52,10.91l-.62,1.07,10.27,14.34-10.81,10.81-14.34-10.27-1.06.61a44.761,44.761,0,0,1-10.92,4.53l-1.19.32-2.88,17.4H75.84L73,447.82l-1.19-.32A44.761,44.761,0,0,1,60.85,443l-1.06-.61L45.45,452.63,34.64,441.82l10.27-14.34-.62-1.07a45.061,45.061,0,0,1-4.52-10.91l-.32-1.2-17.4-2.87V396.15l17.4-2.88.32-1.19a45.13,45.13,0,0,1,4.52-10.92l.62-1.07L34.64,365.75,45.45,355l14.33,10.27,1.07-.62a45.163,45.163,0,0,1,10.92-4.53l1.19-.31,2.88-17.4H91.12L94,359.76l1.19.31a45.161,45.161,0,0,1,10.92,4.53l1.06.62L121.51,355l10.81,10.8-10.27,14.34.62,1.07a45.13,45.13,0,0,1,4.52,10.92l.32,1.19,17.4,2.88v15.28l-17.4,2.87Z" transform="translate(1485 682)"/>
    <circle id="Ellipse_25" data-name="Ellipse 25" cx="38" cy="38" r="38" transform="translate(1530.48 1047.79)" fill="#ffe477"/>
    <path id="Path_266" data-name="Path 266" d="M74.21,417.27v5.44l-8.16,8.15H95l-6.34-6.34v-5.44l2.72-4.52v-5.44H74.21Z" transform="translate(1485 682)" fill="#e7cdce"/>
    <path id="Path_267" data-name="Path 267" d="M71.44,397.33a.9.9,0,0,0-.91-.89h0a.9.9,0,0,0-.9.91v6.34H64.24l-.23.05a1.81,1.81,0,1,0,0,1.72,1,1,0,0,0,.23.05h6.34a.93.93,0,0,0,.65-.27.92.92,0,0,0,.26-.65Z" transform="translate(1485 682)" fill="#e7cdce"/>
    <path id="Path_268" data-name="Path 268" d="M70.58,387.38H63.34v-3.62a1.55,1.55,0,0,0-.05-.23,1.81,1.81,0,1,0-1.72,0,.86.86,0,0,0,0,.23v4.53a.9.9,0,0,0,.91.9h8.15a.91.91,0,1,0,0-1.81Z" transform="translate(1485 682)" fill="#e7cdce"/>
    <path id="Path_269" data-name="Path 269" d="M72,392.65h0l-10.44.16-.21.05a1.81,1.81,0,1,0,0,1.72.87.87,0,0,0,.22.05h0L72,394.47a.91.91,0,0,0,0-1.82Z" transform="translate(1485 682)" fill="#e7cdce"/>
    <path id="Path_270" data-name="Path 270" d="M62.43,407.31a2.72,2.72,0,1,1,2.72-2.72A2.72,2.72,0,0,1,62.43,407.31Zm0-3.63a.91.91,0,1,0,.91.91A.91.91,0,0,0,62.43,403.68Z" transform="translate(1485 682)" fill="#c854ff"/>
    <path id="Path_271" data-name="Path 271" d="M62.43,384.66a2.72,2.72,0,1,1,2.72-2.72A2.72,2.72,0,0,1,62.43,384.66Zm0-3.62a.91.91,0,1,0,.91.9.9.9,0,0,0-.91-.94Z" transform="translate(1485 682)" fill="#c854ff"/>
    <path id="Path_272" data-name="Path 272" d="M59.71,396.44a2.71,2.71,0,1,1,.84-.13A3,3,0,0,1,59.71,396.44Zm0-3.63a1.281,1.281,0,0,0-.27.05.9.9,0,0,0,.55,1.72.89.89,0,0,0,.62-1,.91.91,0,0,0-.9-.77Z" transform="translate(1485 682)" fill="#c854ff"/>
    <path id="Path_273" data-name="Path 273" d="M93,399.16H86.21a.93.93,0,1,1,0-1.82H93a.93.93,0,1,1,0,1.82Z" transform="translate(1485 682)" fill="#802a2c"/>
    <path id="Path_274" data-name="Path 274" d="M91.42,393.72H84.17a.91.91,0,1,1,0-1.81h7.25a.91.91,0,0,1,0,1.81Z" transform="translate(1485 682)" fill="#802a2c"/>
    <path id="Path_275" data-name="Path 275" d="M91.42,388.29H86a.91.91,0,0,1,0-1.82h5.44a.91.91,0,0,1,0,1.82Z" transform="translate(1485 682)" fill="#802a2c"/>
    <path id="Path_276" data-name="Path 276" d="M96,381.94H87.79a.9.9,0,0,1-.9-.9v-1.81H79.64v3.62a.91.91,0,1,1-1.81,0v-4.53a.9.9,0,0,1,.9-.9h9.06a.9.9,0,0,1,.91.9v1.81H96Z" transform="translate(1485 682)" fill="#802a2c"/>
    <path id="Path_277" data-name="Path 277" d="M82.36,402.78h1.81v1.81H82.36Z" transform="translate(1485 682)" fill="#802a2c"/>
    <path id="Path_278" data-name="Path 278" d="M86,402.78h1.81v1.81H86Z" transform="translate(1485 682)" fill="#802a2c"/>
    <path id="Path_279" data-name="Path 279" d="M89.6,402.78H95v1.81H89.6Z" transform="translate(1485 682)" fill="#802a2c"/>
    <path id="Path_280" data-name="Path 280" d="M77.83,410.93a.9.9,0,0,1-.91-.9v-8.16a.91.91,0,0,1,1.81,0V410a.9.9,0,0,1-.9.93Z" transform="translate(1485 682)" fill="#802a2c"/>
    <path id="Path_281" data-name="Path 281" d="M84.6,392.81a6.27,6.27,0,0,0,0-.74l3.24-2.67L86,386.26l-3.93,1.48a6.391,6.391,0,0,0-1.29-.75l-.69-4.14H76.45L75.76,387a6.389,6.389,0,0,0-1.29.75l-3.94-1.48-1.81,3.14L72,392.07a6.19,6.19,0,0,0,0,1.49l-3.24,2.67,1.81,3.14,3.94-1.48a6.389,6.389,0,0,0,1.29.75l.23,1.42.46,2.72h3.62l.69-4.14a6.391,6.391,0,0,0,1.29-.75L86,399.37l1.81-3.14-3.24-2.67a6.3,6.3,0,0,0,.03-.75Zm-6.34,2.72a2.72,2.72,0,1,1,1.936-.79,2.72,2.72,0,0,1-1.936.79Z" transform="translate(1485 682)" fill="#e7cdce"/>
    <path id="Path_282" data-name="Path 282" d="M81.45,409.12v14.49l-6.34,7.25H66.05l8.16-8.15V409.12Z" transform="translate(1485 682)" fill="#e7cdce"/>
    <path id="Path_283" data-name="Path 283" d="M88.7,420.9H81.45V409.12h10v5.44l-2.72,4.52Z" transform="translate(1485 682)" fill="#e5c8c9"/>
    <path id="Path_284" data-name="Path 284" d="M85.08,420.9v10H95l-6.34-6.34V420.9Z" transform="translate(1485 682)" fill="#e7cdce"/>
    <path id="Path_285" data-name="Path 285" d="M85.08,409.12v6.34l3.62,3.62,4.53-6.34v-3.62Z" transform="translate(1485 682)" fill="#e7cdce"/>
    <path id="Path_286" data-name="Path 286" d="M76.92,413.65h1.81v1.81H76.92Z" transform="translate(1485 682)" fill="#941fcc"/>
    <path id="Path_287" data-name="Path 287" d="M76.92,417.27h1.81v1.81H76.92Z" transform="translate(1485 682)" fill="#941fcc"/>
    <path id="Path_288" data-name="Path 288" d="M76.92,428.79l1.81-2.07V420.9H76.92Z" transform="translate(1485 682)" fill="#941fcc"/>
    <path id="Path_289" data-name="Path 289" d="M90.49,416.58l2.74-3.84v-3.62H87.79v5.44Z" transform="translate(1485 682)" fill="#ca9092"/>
    <path id="Path_290" data-name="Path 290" d="M96,380.13l-4.53,6.34v10.87L94.13,401v3.62L89.6,406.4v7.25s7.25,4.53,8.16,4.53h5.43v-5.44l1.81-1.81v-3.62h2.23a.91.91,0,0,0,.83-1.28L105,399.16a6.21,6.21,0,0,0,1.82-4.38,14.9,14.9,0,0,0-8.25-13.33Z" transform="translate(1485 682)" fill="#ce989a"/>
    <path id="Path_291" data-name="Path 291" d="M102.29,400.06H99.57a.91.91,0,1,1,0-1.81h1.81v-1.81a.91.91,0,1,1,1.81,0v2.72A.9.9,0,0,1,102.29,400.06Z" transform="translate(1485 682)" fill="#4e1cff"/>
    <path id="Path_292" data-name="Path 292" d="M100.21,408.48a.91.91,0,0,0-1.28,1.28,7.09,7.09,0,0,0,5,2.08h.16l.9-.91V410h-1.06a5.28,5.28,0,0,1-3.72-1.52Z" transform="translate(1485 682)" fill="#4e1cff"/>
    <path id="Path_293" data-name="Path 293" d="M94.13,386.47H96v3.63H94.13Z" transform="translate(1485 682)" fill="#fdfcfc"/>
    <path id="Path_294" data-name="Path 294" d="M94.13,391.91H96v1.81H94.13Z" transform="translate(1485 682)" fill="#fdfcfc"/>
    <path id="Path_295" data-name="Path 295" d="M94.13,395.53H96v1.81H94.13Z" transform="translate(1485 682)" fill="#fdfcfc"/>
    <path id="Path_296" data-name="Path 296" d="M99.57,400.06h2.72a.9.9,0,0,0,.9-.9v-2.72a.91.91,0,1,0-1.81,0v1.81H99.57a.91.91,0,1,0,0,1.81Z" transform="translate(1485 682)"/>
    <path id="Path_297" data-name="Path 297" d="M78.26,396.44a3.62,3.62,0,1,0-2.563-1.064,3.63,3.63,0,0,0,2.563,1.064Zm0-5.44a1.82,1.82,0,1,1-1.81,1.81A1.82,1.82,0,0,1,78.26,391Z" transform="translate(1485 682)"/>
    <path id="Path_298" data-name="Path 298" d="M58.47,396.14a2.67,2.67,0,0,0,1.24.3,2.7,2.7,0,0,0,2.56-1.82l7.12-.11-1.24,1a.9.9,0,0,0-.21,1.15l1.69,2.93v4.07H64.99a2.72,2.72,0,1,0,0,1.74h5.59a.93.93,0,0,0,.65-.27.92.92,0,0,0,.26-.65v-4.59l2.89-1.09a6.207,6.207,0,0,0,.6.35l.62,3.68a.9.9,0,0,0,.89.75h.47v4.53H74.21a.91.91,0,0,0-.91.91v13.21l-7.89,7.89a.91.91,0,0,0,.64,1.55H95a.91.91,0,0,0,.64-1.55l-6.08-6.08v-4.8l2-3.38c3.42,2.06,5.49,3.12,6.13,3.12h5.43a.9.9,0,0,0,.91-.9v-5.06l1.54-1.55a.91.91,0,0,0,.27-.64v-2.72h1.32a1.81,1.81,0,0,0,1.66-2.54L106,399.23a7,7,0,0,0,1.65-4.55A15.73,15.73,0,0,0,99,380.64l-2.63-1.32a.9.9,0,0,0-1.14.29l-.38.52H88.7v-1.81a.9.9,0,0,0-.91-.9H78.73a.9.9,0,0,0-.9.9v3.62H76.45a.91.91,0,0,0-.9.76l-.61,3.67-.6.35-3.49-1.3a.9.9,0,0,0-1.1.39l-.91,1.58h-5.5V384.5a2.72,2.72,0,1,0-1.82,0v3.79a.9.9,0,0,0,.91.9h5.42a.9.9,0,0,0,.3.91L71,392.46v.2l-8.76.14a2.72,2.72,0,1,0-3.79,3.34Zm4,9.36a.963.963,0,1,0-.04,0Zm0-24.46a.91.91,0,1,1-.91.9.9.9,0,0,1,.87-.94Zm16.3,22.64h1.34a.89.89,0,0,0,.89-.75l.62-3.67.59-.35,3.49,1.3a.91.91,0,0,0,1.11-.39l.38-.66h4.46l1.62,2.15v1.51H89.6v1.81h2.09l-2.42,1a.9.9,0,0,0-.57.84v1.81h-10ZM88.58,389l-.38-.66h2.31v3.62H86.17l2.2-1.81a.91.91,0,0,0,.21-1.15Zm1.93,4.77v3.62H88.2l.38-.66a.91.91,0,0,0-.21-1.15l-2.2-1.81ZM84.44,416.1l3.35,3.36V420H82.36V410h1.81v5.43A.91.91,0,0,0,84.44,416.1Zm-5.75,12h0l3.4-3.89a.88.88,0,0,0,.23-.6V421.8h1.81V430H77.1ZM68.24,430l6.61-6.6a.9.9,0,0,0,.26-.64V410h5.44v13.24l-1.82,2.07V420.9H76.92v6.52L74.7,430Zm24.61,0H86v-8.2h1.81v2.72a.91.91,0,0,0,.27.64Zm-4.33-12.33L86,415.09V410h2.7v3.62a.92.92,0,0,0,.42.77l1,.59Zm7.71-36.33,1.94,1a13.91,13.91,0,0,1,7.74,12.52,5.26,5.26,0,0,1-1.55,3.74.89.89,0,0,0-.18,1l3,6.88H105a.9.9,0,0,0-.9.91V410h-.16a5.28,5.28,0,0,1-3.73-1.55.91.91,0,0,0-1.28,1.28,7,7,0,0,0,4,2l-.35.35a.9.9,0,0,0-.26.64v4.53H97.84a49.3,49.3,0,0,1-6-3.34h0l-1.28-.78V407l4-1.59a.91.91,0,0,0,.57-.84V401a.91.91,0,0,0-.18-.55L92.32,397V386.76Zm-16.59-2.06h7.25V381a.9.9,0,0,0,.9.9h5.75l-2.86,4a.9.9,0,0,0-.17.52H87.15l-.38-.66a.91.91,0,0,0-1.11-.39l-3.48,1.3-.6-.35L81,382.7a.9.9,0,0,0-.89-.76h-.43Zm-9.75,10,1-1.81,3.21,1.21a.92.92,0,0,0,.86-.13,5.741,5.741,0,0,1,1.1-.64.89.89,0,0,0,.54-.68l.56-3.38H79.3l.57,3.38a.9.9,0,0,0,.53.68,5.74,5.74,0,0,1,1.1.64.92.92,0,0,0,.86.13l3.22-1.21,1,1.81L84,391.37a.92.92,0,0,0-.32.81,4.5,4.5,0,0,1,0,1.27.92.92,0,0,0,.32.81l2.65,2.18-1,1.81L82.36,397a.92.92,0,0,0-.86.13,5.74,5.74,0,0,1-1.1.64.9.9,0,0,0-.53.68l-.57,3.38H77.21l-.56-3.38a.9.9,0,0,0-.53-.68,5.53,5.53,0,0,1-1.11-.64.89.89,0,0,0-.86-.13l-3.21,1.21-1-1.81,2.65-2.18v-.05h0a1.319,1.319,0,0,0,.16-.25h0a1.13,1.13,0,0,0,0-.32h0v-.06a5.4,5.4,0,0,1,0-1.27.9.9,0,0,0-.32-.81Zm-11,4.12a.9.9,0,0,1,.53-.46.91.91,0,0,1,1.08.6.88.88,0,1,1-1.61-.14Z" transform="translate(1485 682)" fill="#191919"/>
    <path id="Path_299" data-name="Path 299" d="M76.92,413.65h1.81v1.81H76.92Z" transform="translate(1485 682)"/>
    <path id="Path_300" data-name="Path 300" d="M76.92,417.27h1.81v1.81H76.92Z" transform="translate(1485 682)"/>
    <path id="Path_301" data-name="Path 301" d="M82.36,402.78h1.81v1.81H82.36Z" transform="translate(1485 682)"/>
    <path id="Path_302" data-name="Path 302" d="M86,402.78h1.81v1.81H86Z" transform="translate(1485 682)"/>
    <path id="Path_303" data-name="Path 303" d="M94.13,386.47H96v3.63H94.13Z" transform="translate(1485 682)"/>
    <path id="Path_304" data-name="Path 304" d="M94.13,391.91H96v1.81H94.13Z" transform="translate(1485 682)"/>
    <path id="Path_305" data-name="Path 305" d="M94.13,395.53H96v1.81H94.13Z" transform="translate(1485 682)"/>
  </g>
</svg>
