<svg id="Layer_2" data-name="Layer 2" xmlns="http://www.w3.org/2000/svg" width="131.83" height="131.82" viewBox="0 0 131.83 131.82">
  <g id="Layer_2-2" data-name="Layer 2">
    <path id="Path_12" data-name="Path 12" d="M129.89,75.27V56.56l-18-3a47,47,0,0,0-4.76-11.5l10.6-14.81L104.54,14.06l-14.8,10.6a47.31,47.31,0,0,0-11.5-4.77l-3-18H56.56l-3,18a47,47,0,0,0-11.5,4.77L27.28,14.06,14.06,27.29l10.6,14.8a47,47,0,0,0-4.77,11.5l-18,3V75.27l18,3a47.31,47.31,0,0,0,4.77,11.5l-10.6,14.8L27.29,117.8l14.8-10.6a47,47,0,0,0,11.5,4.76l3,18H75.27l3-18a47.29,47.29,0,0,0,11.5-4.76l14.8,10.6,13.23-13.23-10.6-14.8a47.291,47.291,0,0,0,4.76-11.5Zm-64,28.57a37.92,37.92,0,1,1,.02,0Z" fill="#575f84"/>
    <path id="Path_13" data-name="Path 13" d="M21.78,104.54l10.6-14.8a47.71,47.71,0,0,1-4.77-11.5l-17.95-3V56.56l18-3a47.38,47.38,0,0,1,4.77-11.5L21.78,27.28l10-10-4.5-3.22L14.06,27.28l10.6,14.81a47,47,0,0,0-4.77,11.5l-18,3V75.27l18,3a47.31,47.31,0,0,0,4.77,11.5l-10.6,14.8L27.29,117.8l4.5-3.22Z" fill="#383f5b"/>
    <path id="Path_14" data-name="Path 14" d="M131.83,76.91v-22l-18.37-3a49.11,49.11,0,0,0-4-9.66L120.3,27.11,104.75,11.53,89.61,22.37a49.56,49.56,0,0,0-9.67-4L76.91,0h-22l-3,18.36a49.72,49.72,0,0,0-9.66,4L27.08,11.53,11.53,27.08,22.37,42.22a49.72,49.72,0,0,0-4,9.66L0,54.92v22l18.36,3a49.56,49.56,0,0,0,4,9.67L11.53,104.75l15.55,15.54,15.14-10.84a49.11,49.11,0,0,0,9.66,4l3,18.37h22l3-18.37a49,49,0,0,0,9.67-4l15.14,10.84,15.54-15.54L109.45,89.61a49,49,0,0,0,4-9.67Zm-21.76.83a45.479,45.479,0,0,1-4.57,11l-.63,1.08,10.38,14.48-10.92,10.92L89.85,104.87l-1.08.63a45.48,45.48,0,0,1-11,4.57l-1.2.32L73.63,128H58.2l-2.91-17.57-1.2-.32a45.48,45.48,0,0,1-11-4.57L42,104.87,27.49,115.25,16.58,104.33,27,89.85l-.62-1.08a45.48,45.48,0,0,1-4.57-11l-.32-1.2L3.86,73.63V58.2l17.58-2.91.32-1.2a45.48,45.48,0,0,1,4.57-11L27,42,16.58,27.49,27.49,16.58,42,27l1.08-.62a45.48,45.48,0,0,1,11-4.57l1.2-.32L58.2,3.86H73.63l2.91,17.58,1.2.32a45.48,45.48,0,0,1,11,4.57l1.08.62L104.3,16.58l10.92,10.91L104.87,42l.63,1.08a45.48,45.48,0,0,1,4.57,11l.32,1.2L128,58.2V73.63l-17.57,2.91Z"/>
    <circle id="Ellipse_2" data-name="Ellipse 2" cx="37.92" cy="37.92" r="37.92" transform="translate(27.99 27.99)" fill="#ffe477"/>
    <path id="Path_15" data-name="Path 15" d="M84.57,74.35a2.87,2.87,0,0,0-2.87,2.87v8.94h5.74V77.22A2.88,2.88,0,0,0,84.57,74.35Z" fill="#9baac4"/>
    <path id="Path_16" data-name="Path 16" d="M86,74.74a2.79,2.79,0,0,0-1.43-.39,2.87,2.87,0,0,0-2.87,2.87v8.94h2.87V77.22A2.85,2.85,0,0,1,86,74.74Z" fill="#3b4456"/>
    <path id="Path_17" data-name="Path 17" d="M58.36,64.72H73.47v3.83H58.36Z" fill="#fcf3f0"/>
    <path id="Path_18" data-name="Path 18" d="M47.26,46.14H84.57V50H47.26Z" fill="#3b4456"/>
    <path id="Path_19" data-name="Path 19" d="M64.57,66.64a1.92,1.92,0,0,1,1.92-1.92H58.36v3.83h8.13a1.92,1.92,0,0,1-1.92-1.91Z" fill="#d3cab2"/>
    <path id="Path_20" data-name="Path 20" d="M57.4,75.44h17v3.83h-17Z" fill="#fcf3f0"/>
    <path id="Path_21" data-name="Path 21" d="M64.57,77.36a1.92,1.92,0,0,1,1.92-1.92H57.4v3.83h9.09a1.92,1.92,0,0,1-1.92-1.91Z" fill="#d3cab2"/>
    <path id="Path_22" data-name="Path 22" d="M53.42,87l7.74-38.93,3.75.74L57.17,87.73Z" fill="#eab8a4"/>
    <path id="Path_23" data-name="Path 23" d="M57.75,75a1.91,1.91,0,0,1-1.5-2.25L53.41,87l3.75.75L60,73.45A1.9,1.9,0,0,1,57.75,75Z" fill="#d3cab2"/>
    <path id="Path_24" data-name="Path 24" d="M74.67,87.73,66.93,48.79l3.75-.74L78.42,87Z" fill="#eab8a4"/>
    <path id="Path_25" data-name="Path 25" d="M74.07,75a1.9,1.9,0,0,0,1.5-2.25L78.42,87l-3.76.75-2.84-14.3A1.91,1.91,0,0,0,74.07,75Z" fill="#d3cab2"/>
    <path id="Path_26" data-name="Path 26" d="M87.77,88.07H44.06a1.91,1.91,0,0,1,0-3.82H87.77a1.91,1.91,0,1,1,0,3.82Z" fill="#fff1ce"/>
    <path id="Path_27" data-name="Path 27" d="M47.26,74.35a2.88,2.88,0,0,1,2.87,2.87v8.94H44.39V77.22a2.87,2.87,0,0,1,2.87-2.87Z" fill="#9baac4"/>
    <path id="Path_28" data-name="Path 28" d="M48.69,74.74a2.79,2.79,0,0,0-1.43-.39,2.87,2.87,0,0,0-2.87,2.87v8.94h2.87V77.22a2.87,2.87,0,0,1,1.43-2.48Z" fill="#3b4456"/>
    <path id="Path_29" data-name="Path 29" d="M51.71,86.16a1.91,1.91,0,0,1,1.91-1.91H44.06a1.91,1.91,0,1,0,0,3.82h9.56a1.91,1.91,0,0,1-1.91-1.91Z" fill="#ffe1bd"/>
    <circle id="Ellipse_3" data-name="Ellipse 3" cx="7.52" cy="7.52" r="7.52" transform="translate(58.39 40.54)" fill="#eab8a4"/>
    <path id="Path_30" data-name="Path 30" d="M68.78,52.71a7.52,7.52,0,0,1-7.52-7.52,7.44,7.44,0,0,1,1-3.69A7.52,7.52,0,1,0,72.47,51.74a7.55,7.55,0,0,1-3.69.97Z" fill="#c8866a"/>
    <path id="Path_31" data-name="Path 31" d="M86.07,59.92h-3a1.92,1.92,0,0,1-1.9-1.69l-1.45-12.1A1.91,1.91,0,0,1,81.61,44h5.91a1.91,1.91,0,0,1,1.9,2.14L88,58.23A1.91,1.91,0,0,1,86.07,59.92Z" fill="#9baac4"/>
    <path id="Path_32" data-name="Path 32" d="M84,58.23l-1.46-12.1A1.92,1.92,0,0,1,84.48,44H81.61a1.91,1.91,0,0,0-1.9,2.14l1.45,12.1a1.92,1.92,0,0,0,1.9,1.69h2.88A1.91,1.91,0,0,1,84,58.23Z" fill="#3b4456"/>
    <circle id="Ellipse_4" data-name="Ellipse 4" cx="4.87" cy="4.87" r="4.87" transform="translate(42.39 43.19)" fill="#9baac4"/>
    <path id="Path_33" data-name="Path 33" d="M50.13,50.06a4.87,4.87,0,0,1-4.87-4.87,4.79,4.79,0,0,1,.3-1.7,4.87,4.87,0,1,0,6.27,6.26,4.79,4.79,0,0,1-1.7.31Z" fill="#3b4456"/>
    <path id="Path_34" data-name="Path 34" d="M88.15,83.56V77.22a3.58,3.58,0,0,0-2.87-3.51V60.63h.79a2.63,2.63,0,0,0,2.61-2.31l1.46-12.1a2.65,2.65,0,0,0-2.61-2.95H81.61A2.64,2.64,0,0,0,79,45.43H73.7a7.94,7.94,0,0,0-1-2,.72.72,0,0,0-1.19.8,6.82,6.82,0,1,1-1.83-1.83.72.72,0,0,0,.8-1.19,8.23,8.23,0,0,0-12.41,4.2H52.19a5.59,5.59,0,1,0-5.65,8.17V73.71a3.59,3.59,0,0,0-2.87,3.51v6.34a2.63,2.63,0,0,0,.39,5.23H87.77a2.63,2.63,0,0,0,.38-5.23Zm-1.43-6.34v6.31H82.41V77.22a2.16,2.16,0,0,1,4.31,0Zm-2.87-3.51A3.58,3.58,0,0,0,81,77.22v6.31H78.46l-6-30.42a8.34,8.34,0,0,0,1.31-2.42h5.81l.92,7.63a2.63,2.63,0,0,0,2.61,2.31h.79V73.71Zm-3.14-28.6a1.18,1.18,0,0,1,.9-.4h5.92a1.19,1.19,0,0,1,1.18,1.34l-1.45,12.1a1.19,1.19,0,0,1-1.19,1.05h-3a1.21,1.21,0,0,1-1.19-1.05l-1.45-12.1a1.19,1.19,0,0,1,.29-.94Zm-1.64,1.75.29,2.39h-5.3a8,8,0,0,0,0-2.39ZM71.2,54.37,77,83.53H74.56L69,55.68a8.32,8.32,0,0,0,2.18-1.31ZM62.33,65.44H69.5l.5,2.39H61.85Zm-.76,3.83h8.69l1.08,5.46H60.48ZM60.2,76.16H71.63l.48,2.39H59.72ZM59.43,80h13l.71,3.54H58.73Zm8.21-23.88L69.21,64h-6.6l1.57-7.9a8.4,8.4,0,0,0,3.46,0Zm-4.83-.43L57.27,83.53H54.83l2.46-12.36a.72.72,0,1,0-1.41-.28L53.37,83.53H50.85V77.22A3.59,3.59,0,0,0,48,73.71V53.6a5.65,5.65,0,0,0,4.21-2.91h5.92a8.11,8.11,0,0,0,1.31,2.42l-3,15a.71.71,0,0,0,.56.84h.14a.73.73,0,0,0,.71-.58l2.78-14a8.16,8.16,0,0,0,2.18,1.31Zm-5.05-8.82a9,9,0,0,0,0,2.39h-5a5.78,5.78,0,0,0,.13-1.19,6,6,0,0,0-.13-1.2ZM43.1,48.06a4.16,4.16,0,1,1,4.16,4.15A4.16,4.16,0,0,1,43.1,48.06Zm4.16,27a2.15,2.15,0,0,1,2.15,2.15v6.31h-4.3v-6.3a2.15,2.15,0,0,1,2.15-2.15Zm40.51,12.3H44.06a1.2,1.2,0,1,1,0-2.39H87.77a1.2,1.2,0,0,1,0,2.39Z"/>
  </g>
</svg>
