<svg xmlns="http://www.w3.org/2000/svg" width="131.83" height="131.82" viewBox="0 0 131.83 131.82">
  <g id="Group_95" data-name="Group 95" transform="translate(-1025 -1997)">
    <g id="Layer_2" data-name="Layer 2" transform="translate(1025 1997)">
      <g id="Layer_2-2" data-name="Layer 2">
        <path id="Path_122" data-name="Path 122" d="M129.89,75.27V56.56l-18-3a47,47,0,0,0-4.76-11.5l10.6-14.81L104.54,14.06l-14.8,10.6a47.31,47.31,0,0,0-11.5-4.77l-3-18H56.56l-3,18a47,47,0,0,0-11.5,4.77L27.28,14.06,14.06,27.29l10.6,14.8a47,47,0,0,0-4.77,11.5l-18,3V75.27l18,3a47.31,47.31,0,0,0,4.77,11.5l-10.6,14.8L27.29,117.8l14.8-10.6a47,47,0,0,0,11.5,4.76l3,18H75.27l3-18a47.29,47.29,0,0,0,11.5-4.76l14.8,10.6,13.23-13.23-10.6-14.8a47.291,47.291,0,0,0,4.76-11.5Zm-64,28.57a37.92,37.92,0,1,1,.02,0Z" fill="#575f84"/>
        <path id="Path_123" data-name="Path 123" d="M21.78,104.54l10.6-14.8a47.71,47.71,0,0,1-4.77-11.5l-17.95-3V56.56l18-3a47.38,47.38,0,0,1,4.77-11.5L21.78,27.28l10-10-4.5-3.22L14.06,27.28l10.6,14.81a47,47,0,0,0-4.77,11.5l-18,3V75.27l18,3a47.31,47.31,0,0,0,4.77,11.5l-10.6,14.8L27.29,117.8l4.5-3.22Z" fill="#383f5b"/>
        <path id="Path_124" data-name="Path 124" d="M131.83,76.91v-22l-18.37-3a49.11,49.11,0,0,0-4-9.66L120.3,27.11,104.75,11.53,89.61,22.37a49.56,49.56,0,0,0-9.67-4L76.91,0h-22l-3,18.36a49.72,49.72,0,0,0-9.66,4L27.08,11.53,11.53,27.08,22.37,42.22a49.72,49.72,0,0,0-4,9.66L0,54.92v22l18.36,3a49.56,49.56,0,0,0,4,9.67L11.53,104.75l15.55,15.54,15.14-10.84a49.11,49.11,0,0,0,9.66,4l3,18.37h22l3-18.37a49,49,0,0,0,9.67-4l15.14,10.84,15.54-15.54L109.45,89.61a49,49,0,0,0,4-9.67Zm-21.76.83a45.479,45.479,0,0,1-4.57,11l-.63,1.08,10.38,14.48-10.92,10.92L89.85,104.87l-1.08.63a45.48,45.48,0,0,1-11,4.57l-1.2.32L73.63,128H58.2l-2.91-17.57-1.2-.32a45.48,45.48,0,0,1-11-4.57L42,104.87,27.49,115.25,16.58,104.33,27,89.85l-.62-1.08a45.48,45.48,0,0,1-4.57-11l-.32-1.2L3.86,73.63V58.2l17.58-2.91.32-1.2a45.48,45.48,0,0,1,4.57-11L27,42,16.58,27.49,27.49,16.58,42,27l1.08-.62a45.48,45.48,0,0,1,11-4.57l1.2-.32L58.2,3.86H73.63l2.91,17.58,1.2.32a45.48,45.48,0,0,1,11,4.57l1.08.62L104.3,16.58l10.92,10.91L104.87,42l.63,1.08a45.48,45.48,0,0,1,4.57,11l.32,1.2L128,58.2V73.63l-17.57,2.91Z"/>
        <circle id="Ellipse_10" data-name="Ellipse 10" cx="37.92" cy="37.92" r="37.92" transform="translate(27.99 27.99)" fill="#ffe477"/>
        <path id="Path_125" data-name="Path 125" d="M78.82,50.21a5.12,5.12,0,0,0,9.55,2.59h0a5.08,5.08,0,0,0,.71-2.59,5.38,5.38,0,0,0-.1-1h0a5.13,5.13,0,0,0-10.16,1Z"/>
        <path id="Path_126" data-name="Path 126" d="M66.17,60.57a5.35,5.35,0,1,0,5.35,5.34,5.35,5.35,0,0,0-5.35-5.34Z"/>
        <path id="Path_127" data-name="Path 127" d="M92.57,73.69a21.28,21.28,0,0,0-4.21-6.14c-.51-.54-1-1.09-1.62-1.64.57-.54,1.11-1.09,1.62-1.64a21.12,21.12,0,0,0,4.21-6.13,6.941,6.941,0,0,0,.1-6c-.07-.12-.14-.25-.22-.37a8.6,8.6,0,0,1-3.27,5.29,22.5,22.5,0,0,1-5.08,6.48,65.339,65.339,0,0,0-6.43-4.65c-.09-1.07-.21-2.13-.35-3.16a55.568,55.568,0,0,0-1.66-8c-.23-.78-.47-1.54-.73-2.26a21.3,21.3,0,0,0-3.5-6.56c-2-2.34-4-2.83-5.26-2.83a6.922,6.922,0,0,0-5.25,2.83,21.3,21.3,0,0,0-3.5,6.56,41.221,41.221,0,0,0-1.21,4c-1.44-.34-2.83-.61-4.16-.79a21.19,21.19,0,0,0-7.44.09c-3,.68-4.33,2.2-4.93,3.36s-1.07,3.13.1,6A21.12,21.12,0,0,0,44,64.27c.48.52,1,1,1.54,1.56a30.6,30.6,0,0,0-3.89,4.37,8.68,8.68,0,0,1,3.66,1,30.279,30.279,0,0,1,2.87-3,65.791,65.791,0,0,0,6.51,4.71q.27,3.12.8,6a33.84,33.84,0,0,1-5.64.92A8.54,8.54,0,0,1,48.6,83.4a35.07,35.07,0,0,0,7.61-1.06,41.234,41.234,0,0,0,1.21,4,21.36,21.36,0,0,0,3.5,6.57c2,2.34,4,2.83,5.25,2.83a5.12,5.12,0,0,0,.56,0,8.64,8.64,0,0,1-3.34-5.36,24.8,24.8,0,0,1-3.79-9A69.54,69.54,0,0,0,66.18,79c1.23.52,2.44,1,3.65,1.44a54.47,54.47,0,0,0,8.24,2.33c.76.15,1.5.28,2.23.37a27.421,27.421,0,0,0,3.79.28A16.119,16.119,0,0,0,87.73,83c3-.67,4.34-2.2,4.94-3.36s1.07-3.13-.1-6ZM81.41,65.91q-1.59,1.29-3.47,2.6V63.32C79.19,64.19,80.35,65.06,81.41,65.91Zm-15.23,9.2c-1.24-.56-2.52-1.17-3.82-1.85-1.52-.79-3-1.6-4.31-2.41-.1-1.57-.15-3.22-.15-4.94s.05-3.37.15-4.95q2.07-1.23,4.31-2.4c1.26-.65,2.54-1.27,3.81-1.85,1.24.56,2.52,1.18,3.82,1.85,1.52.79,3,1.6,4.31,2.41.1,1.58.15,3.23.15,4.94s0,3.34-.14,4.94c-1.36.81-2.8,1.62-4.32,2.41C68.69,73.94,67.42,74.55,66.18,75.11ZM58.46,56.66c.12-.95.26-1.88.41-2.76.94.3,1.92.63,2.92,1l-1,.54c-.77.4-1.54.81-2.28,1.22Zm13.15-1.22-1.09-.56c1-.38,2-.74,2.94-1.06.16.91.31,1.86.43,2.85q-1.12-.63-2.28-1.23ZM66.17,39.59c2.16,0,4.84,3.89,6.56,10.77-2.12.69-4.34,1.54-6.57,2.5-2.23-.94-4.43-1.76-6.56-2.42C61.31,43.51,64,39.59,66.17,39.59ZM42.81,53.79C43.4,52.65,45.33,52,48.26,52a31.65,31.65,0,0,1,7.21,1c-.34,1.9-.61,3.89-.79,5.94a67.76,67.76,0,0,0-6.49,4.62C43.71,59.26,41.89,55.56,42.81,53.79Zm8.07,12.08c1.1-.88,2.28-1.74,3.54-2.6,0,.88-.05,1.76-.05,2.64v2.6c-1.28-.89-2.45-1.77-3.53-2.64Zm8,12.07c-.16-.89-.3-1.82-.42-2.78.74.42,1.51.83,2.28,1.23l1.06.54C60.79,77.3,59.82,77.64,58.88,77.94Zm12.73-1.55c.78-.41,1.55-.82,2.3-1.24-.12.95-.25,1.88-.41,2.78-1-.3-1.93-.63-2.94-1l1-.53ZM89.54,78c-1,1.92-5.71,2.51-12.63.85.34-1.89.6-3.9.78-6a66.119,66.119,0,0,0,6.41-4.63c4.52,4.27,6.36,8,5.44,9.77Z"/>
        <path id="Path_128" data-name="Path 128" d="M46.38,78.84a5.14,5.14,0,1,0-1.495,3.644A5.14,5.14,0,0,0,46.38,78.84Z"/>
        <path id="Path_129" data-name="Path 129" d="M77,88.8A5.13,5.13,0,0,0,75.39,85h0a5.18,5.18,0,0,0-3.26-1.37H71.9A5.13,5.13,0,1,0,77,88.8Z"/>
      </g>
    </g>
  </g>
</svg>
