<svg id="Layer_2" data-name="Layer 2" xmlns="http://www.w3.org/2000/svg" width="131.83" height="131.82" viewBox="0 0 131.83 131.82">
  <g id="Layer_2-2" data-name="Layer 2">
    <path id="Path_194" data-name="Path 194" d="M129.89,75.27V56.56l-18-3a47,47,0,0,0-4.76-11.5l10.6-14.81L104.54,14.06l-14.8,10.6a47.31,47.31,0,0,0-11.5-4.77l-3-18H56.56l-3,18a47,47,0,0,0-11.5,4.77L27.28,14.06,14.06,27.29l10.6,14.8a47,47,0,0,0-4.77,11.5l-18,3V75.27l18,3a47.31,47.31,0,0,0,4.77,11.5l-10.6,14.8L27.29,117.8l14.8-10.6a47,47,0,0,0,11.5,4.76l3,18H75.27l3-18a47.29,47.29,0,0,0,11.5-4.76l14.8,10.6,13.23-13.23-10.6-14.8a47.291,47.291,0,0,0,4.76-11.5Zm-64,28.57a37.92,37.92,0,1,1,.02,0Z" fill="#575f84"/>
    <path id="Path_195" data-name="Path 195" d="M21.78,104.54l10.6-14.8a47.71,47.71,0,0,1-4.77-11.5l-17.95-3V56.56l18-3a47.38,47.38,0,0,1,4.77-11.5L21.78,27.28l10-10-4.5-3.22L14.06,27.28l10.6,14.81a47,47,0,0,0-4.77,11.5l-18,3V75.27l18,3a47.31,47.31,0,0,0,4.77,11.5l-10.6,14.8L27.29,117.8l4.5-3.22Z" fill="#383f5b"/>
    <path id="Path_196" data-name="Path 196" d="M131.83,76.91v-22l-18.37-3a49.11,49.11,0,0,0-4-9.66L120.3,27.11,104.75,11.53,89.61,22.37a49.56,49.56,0,0,0-9.67-4L76.91,0h-22l-3,18.36a49.72,49.72,0,0,0-9.66,4L27.08,11.53,11.53,27.08,22.37,42.22a49.72,49.72,0,0,0-4,9.66L0,54.92v22l18.36,3a49.56,49.56,0,0,0,4,9.67L11.53,104.75l15.55,15.54,15.14-10.84a49.11,49.11,0,0,0,9.66,4l3,18.37h22l3-18.37a49,49,0,0,0,9.67-4l15.14,10.84,15.54-15.54L109.45,89.61a49,49,0,0,0,4-9.67Zm-21.76.83a45.479,45.479,0,0,1-4.57,11l-.63,1.08,10.38,14.48-10.92,10.92L89.85,104.87l-1.08.63a45.48,45.48,0,0,1-11,4.57l-1.2.32L73.63,128H58.2l-2.91-17.57-1.2-.32a45.48,45.48,0,0,1-11-4.57L42,104.87,27.49,115.25,16.58,104.33,27,89.85l-.62-1.08a45.48,45.48,0,0,1-4.57-11l-.32-1.2L3.86,73.63V58.2l17.58-2.91.32-1.2a45.48,45.48,0,0,1,4.57-11L27,42,16.58,27.49,27.49,16.58,42,27l1.08-.62a45.48,45.48,0,0,1,11-4.57l1.2-.32L58.2,3.86H73.63l2.91,17.58,1.2.32a45.48,45.48,0,0,1,11,4.57l1.08.62L104.3,16.58l10.92,10.91L104.87,42l.63,1.08a45.48,45.48,0,0,1,4.57,11l.32,1.2L128,58.2V73.63l-17.57,2.91Z"/>
    <circle id="Ellipse_20" data-name="Ellipse 20" cx="37.92" cy="37.92" r="37.92" transform="translate(27.99 27.99)" fill="#ffe477"/>
    <path id="Path_197" data-name="Path 197" d="M62.35,75l2.51,6.69h10V90a3.34,3.34,0,0,1-3.35,3.34h-10V75Z" fill="#d3a06c"/>
    <path id="Path_198" data-name="Path 198" d="M61.52,75V93.4H53.15A3.34,3.34,0,0,1,49.8,90V81.66h8.37L60.68,75Z" fill="#d3a06c"/>
    <path id="Path_199" data-name="Path 199" d="M62.35,75H74.9l2.51,6.69H64.86Z" fill="#b27946"/>
    <path id="Path_200" data-name="Path 200" d="M60.68,75l-2.51,6.69H47.3L49.8,75Z" fill="#b27946"/>
    <path id="Path_201" data-name="Path 201" d="M65.21,60.15l-2.07-.78a1.29,1.29,0,0,1-.45-.29,1.2,1.2,0,0,1,.45-1.97L69,54.9h8A14.84,14.84,0,0,0,62.55,43.19h-.4a14.85,14.85,0,0,0-8.52,27,4.78,4.78,0,0,1,2,3.9V75H69v-.9a4.78,4.78,0,0,1,2-3.9,14.86,14.86,0,0,0,6-8.61H69Z" fill="#ffeaa7"/>
    <path id="Path_202" data-name="Path 202" d="M59.19,56.37l.22,2.71H56.5a2.51,2.51,0,1,1,0-5.02h.19a2.51,2.51,0,0,1,2.5,2.31Z" fill="#fcd770"/>
    <path id="Path_203" data-name="Path 203" d="M69,58.24v3.35l-3.83-1.44-2.07-.78a1.29,1.29,0,0,1-.45-.29,1.2,1.2,0,0,1,.45-1.97L69,54.9Z" fill="#aab2bd"/>
    <path id="Path_204" data-name="Path 204" d="M82.87,60.62a.924.924,0,0,0,.15.36l-.31.61H69V58.24H80.75v1.68Z" fill="#ff826e"/>
    <path id="Path_205" data-name="Path 205" d="M82.71,54.9l.31.61a3,3,0,0,0-.15.36l-2.12.7v1.67H69V54.9Z" fill="#b4dd7f"/>
    <path id="Path_206" data-name="Path 206" d="M97.48,56.57v3.35l-2.11.7c-.05.12-.09.24-.15.36l1,2-2.37,2.36-2-1a3.68,3.68,0,0,1-.35.15l-.71,2.12H87.45l-.71-2.12a.924.924,0,0,1-.36-.15l-2,1L82,63l.69-1.39L83,61c-.06-.12-.1-.24-.15-.36l-2.12-.7V56.57l2.12-.7a3,3,0,0,1,.15-.36l-.31-.61L82,53.51l2.36-2.37,2,1,.36-.15.71-2.11h3.34L91.5,52l.35.15,2-1,2.37,2.37-1,2a3,3,0,0,1,.15.36Zm-5,1.67a1.387,1.387,0,1,1-.01,0Z" fill="#fcd770"/>
    <path id="Path_207" data-name="Path 207" d="M67.37,89.19h5v1.67h-5Z"/>
    <path id="Path_208" data-name="Path 208" d="M98.32,56l-2-.69,1-1.93L94,50.13l-1.94,1L91.4,49H86.84l-.68,2.06-1.94-1L81,53.35l.36.71H77.72A15.76,15.76,0,0,0,62.56,42.35h-.41a15.69,15.69,0,0,0-9,28.54,3.9,3.9,0,0,1,1.67,3.21H49.23l-3.14,8.4H49V90a4.18,4.18,0,0,0,4.18,4.18h18.4A4.19,4.19,0,0,0,75.74,90V82.5h2.88l-3.14-8.36h-5.6a3.94,3.94,0,0,1,1.67-3.21,15.62,15.62,0,0,0,6-8.47h3.76l-.36.72,3.22,3.22,1.94-1,.68,2h4.55l.69-2,1.94,1,3.21-3.22-1-1.94,2-.68ZM61.45,74.14,60.31,59.92H62.4a2.63,2.63,0,0,0,.44.24l1.49.55L63.25,74.14Zm2-15.55a.37.37,0,0,1-.24-.35.38.38,0,0,1,.24-.35l4.78-1.79v4.28Zm6.45.49h10v1.44l.7.23H69.88Zm10-3.11v1.44h-10V55.73H80.62ZM54.11,69.52a14,14,0,0,1,8-25.5h.41A14.09,14.09,0,0,1,76,54.06H68.9l-6,2.27a2,2,0,0,0-1.32,1.91h-1.4L60,56.3a3.36,3.36,0,0,0-3.33-3.08H56.5a3.35,3.35,0,0,0,0,6.7h2.14l1.13,14.22H56.5a5.59,5.59,0,0,0-2.39-4.58ZM58.5,58.24h-2a1.67,1.67,0,0,1,0-3.34h.19a1.68,1.68,0,0,1,1.67,1.54ZM50.38,75.81h9.09l-1.88,5H48.5ZM50.64,90V82.5h8.11l1.93-5.15V92.54H53.15A2.52,2.52,0,0,1,50.64,90Zm23.42,0a2.51,2.51,0,0,1-2.51,2.51h-9.2V77.35l1.93,5.15h9.78Zm2.14-9.2H65.44l-1.88-5H74.32ZM70.59,69.52a5.61,5.61,0,0,0-2.38,4.58H64.93l1-12.82,2.93,1.1h7a14,14,0,0,1-5.27,7.1ZM96.65,59.31,94.73,60l-.14.37c0,.11-.09.21-.13.32L94.3,61l.9,1.81-1.51,1.51-1.81-.9-.36.16-.32.13-.37.14-.64,1.92H88.05l-.64-1.92L87,63.71l-.32-.13-.36-.16-1.81.9L83,62.81,83.9,61l-.16-.36c0-.11-.09-.21-.13-.32l-.1-.32-1.92-.64V57.17l1.92-.64.14-.37.13-.31.16-.37L83,53.67l1.51-1.51,1.81.91.36-.17.32-.12.37-.14.64-1.93h2.14l.64,1.93.37.14.32.12.36.17,1.81-.91,1.51,1.52-.9,1.8.16.37c.05.1.09.21.13.31l.14.37,1.92.64Z"/>
    <path id="Path_209" data-name="Path 209" d="M89.12,54.06a4.18,4.18,0,1,0,4.18,4.18,4.18,4.18,0,0,0-4.18-4.18Zm0,6.69a2.51,2.51,0,1,1,2.51-2.51A2.51,2.51,0,0,1,89.12,60.75Z"/>
    <path id="Path_210" data-name="Path 210" d="M51.48,58.24H49.8A13.35,13.35,0,0,0,49.93,60l1.66-.23a10.231,10.231,0,0,1-.11-1.53Z"/>
    <path id="Path_211" data-name="Path 211" d="M51.93,61.35l-1.61.48a12.51,12.51,0,0,0,5.76,7.28l.84-1.45a10.79,10.79,0,0,1-4.99-6.31Z"/>
    <path id="Path_212" data-name="Path 212" d="M66.53,47.37h1.68V49H66.53Z"/>
    <path id="Path_213" data-name="Path 213" d="M56.5,47.37h1.67V49H56.5Z"/>
    <path id="Path_214" data-name="Path 214" d="M63.19,47.37h1.67V49H63.19Z"/>
    <path id="Path_215" data-name="Path 215" d="M59.84,47.37h1.68V49H59.84Z"/>
  </g>
</svg>
