<svg xmlns="http://www.w3.org/2000/svg" width="130.53" height="130.57" viewBox="0 0 130.53 130.57">
  <g id="Group_101" data-name="Group 101" transform="translate(-1025 -2357)">
    <g id="Group_91" data-name="Group 91">
      <path id="Path_376" data-name="Path 376" d="M146.82,1098.76v-18.53L129,1077.29a47.121,47.121,0,0,0-4.72-11.38l10.5-14.66-13.1-13.09-14.66,10.49a47.114,47.114,0,0,0-11.38-4.72l-2.94-17.77H74.22l-2.94,17.77a46.79,46.79,0,0,0-11.38,4.72l-14.66-10.49-13.1,13.1,10.5,14.65a46.72,46.72,0,0,0-4.72,11.38l-17.78,2.94v18.53l17.78,2.94a47.119,47.119,0,0,0,4.72,11.38l-10.5,14.66,13.1,13.09,14.66-10.49a47,47,0,0,0,11.38,4.72l2.94,17.78H92.74l2.94-17.78a47,47,0,0,0,11.38-4.72l14.66,10.49,13.1-13.09-10.5-14.66A46.719,46.719,0,0,0,129,1101.7ZM83.48,1127A37.55,37.55,0,1,1,121,1089.5,37.55,37.55,0,0,1,83.48,1127Z" transform="translate(1006.8 1332.79)" fill="#575f84"/>
      <path id="Path_377" data-name="Path 377" d="M39.79,1127.74l10.49-14.66a46.7,46.7,0,0,1-4.71-11.38l-17.78-2.94v-18.53l17.78-2.94a46.7,46.7,0,0,1,4.71-11.38l-10.49-14.66,9.91-9.9-4.46-3.19-13.1,13.09,10.5,14.66a47.12,47.12,0,0,0-4.72,11.38l-17.78,2.94v18.53l17.78,2.94a47.119,47.119,0,0,0,4.72,11.38l-10.5,14.66,13.1,13.09,4.46-3.19Z" transform="translate(1006.8 1332.79)" fill="#383f5b"/>
      <path id="Path_378" data-name="Path 378" d="M148.73,1100.38v-21.77l-18.18-3a49,49,0,0,0-4-9.56l10.74-15-15.4-15.39-15,10.73a48.794,48.794,0,0,0-9.57-4l-3-18.18H72.6l-3,18.18a48.8,48.8,0,0,0-9.57,4l-15-10.73-15.39,15.39,10.74,15a48.8,48.8,0,0,0-4,9.57l-18.18,3v21.77l18.18,3a49.312,49.312,0,0,0,4,9.57l-10.74,15L45,1143.33l15-10.73a48.793,48.793,0,0,0,9.57,4l3,18.18H94.36l3-18.18a48.793,48.793,0,0,0,9.57-4l15,10.73,15.4-15.39-10.74-15a49.308,49.308,0,0,0,4-9.57Zm-21.54.82a45.128,45.128,0,0,1-4.52,10.92l-.62,1.07,10.27,14.34-10.81,10.8-14.34-10.26-1.06.61a44.758,44.758,0,0,1-10.92,4.53l-1.19.32-2.88,17.39H75.84L73,1133.53l-1.19-.32a44.763,44.763,0,0,1-10.92-4.53l-1.06-.61-14.34,10.26-10.81-10.8,10.27-14.34-.62-1.07a45.13,45.13,0,0,1-4.52-10.92l-.32-1.19-17.4-2.87v-15.28l17.4-2.88.32-1.19a45.131,45.131,0,0,1,4.52-10.92l.62-1.07-10.27-14.34,10.81-10.8,14.33,10.27,1.07-.62a44.763,44.763,0,0,1,10.92-4.53l1.19-.32,2.88-17.39H91.12L94,1045.46l1.19.32a44.758,44.758,0,0,1,10.92,4.53l1.06.62,14.34-10.27,10.81,10.8-10.27,14.34.62,1.07a45.13,45.13,0,0,1,4.52,10.92l.32,1.19,17.4,2.88v15.28l-17.4,2.87Z" transform="translate(1006.8 1332.79)"/>
      <circle id="Ellipse_29" data-name="Ellipse 29" cx="38" cy="38" r="38" transform="translate(1052.28 2384.29)" fill="#ffe477"/>
      <path id="Path_379" data-name="Path 379" d="M62.22,1110.7a1.58,1.58,0,0,1,.5,1.16,1.6,1.6,0,1,1-1.6-1.6,1.56,1.56,0,0,1,1.1.44Z" transform="translate(1006.8 1332.79)" fill="#fcd770"/>
      <path id="Path_380" data-name="Path 380" d="M94.66,1111.86a1.6,1.6,0,1,1-1.6-1.6A1.6,1.6,0,0,1,94.66,1111.86Z" transform="translate(1006.8 1332.79)" fill="#fcd770"/>
      <path id="Path_381" data-name="Path 381" d="M78.69,1107.07a1.61,1.61,0,1,1-.67.15A1.533,1.533,0,0,1,78.69,1107.07Z" transform="translate(1006.8 1332.79)" fill="#fcd770"/>
      <path id="Path_382" data-name="Path 382" d="M73.9,1095.89a2.39,2.39,0,0,1,2.39,2.39,2.36,2.36,0,0,1-1.39,2.17,2.231,2.231,0,0,1-1,.23,2.42,2.42,0,0,1-2.4-2.4,2.39,2.39,0,0,1,2.4-2.39Z" transform="translate(1006.8 1332.79)" fill="#4fc1e9"/>
      <path id="Path_383" data-name="Path 383" d="M104.31,1094.76a1.41,1.41,0,0,1-.07-.47,1.6,1.6,0,1,1,.07.47Z" transform="translate(1006.8 1332.79)" fill="#fcd770"/>
      <path id="Path_384" data-name="Path 384" d="M105.84,1065.55a1.6,1.6,0,0,1,0,3.19,1.56,1.56,0,0,1-1.1-.44,1.58,1.58,0,0,1-.5-1.16,1.6,1.6,0,0,1,1.6-1.59Z" transform="translate(1006.8 1332.79)" fill="#fcd770"/>
      <path id="Path_385" data-name="Path 385" d="M94.7,1079a2.35,2.35,0,0,1,.76,1.74,2.4,2.4,0,1,1-2.4-2.4,2.36,2.36,0,0,1,1.64.66Z" transform="translate(1006.8 1332.79)" fill="#4fc1e9"/>
      <path id="Path_386" data-name="Path 386" d="M75.5,1067.14a1.6,1.6,0,1,1-1.6-1.59,1.6,1.6,0,0,1,1.6,1.59Z" transform="translate(1006.8 1332.79)" fill="#fcd770"/>
      <path id="Path_387" data-name="Path 387" d="M62.44,1088.6a1.55,1.55,0,0,1,.28.9,1.61,1.61,0,1,1-.28-.9Z" transform="translate(1006.8 1332.79)" fill="#fcd770"/>
      <path id="Path_388" data-name="Path 388" d="M97.64,1096.85a4.9,4.9,0,0,1,.21,1.43,4.76,4.76,0,1,1-.21-1.43Z" transform="translate(1006.8 1332.79)" fill="#69d6f4"/>
      <path id="Path_389" data-name="Path 389" d="M73.9,1075.93a4.79,4.79,0,1,1-4.79,4.79A4.79,4.79,0,0,1,73.9,1075.93Z" transform="translate(1006.8 1332.79)" fill="#69d6f4"/>
      <path id="Path_390" data-name="Path 390" d="M73.9,1081.52a.8.8,0,0,1-.8-.8H71.5a2.4,2.4,0,0,0,2.4,2.39Z" transform="translate(1006.8 1332.79)"/>
      <path id="Path_391" data-name="Path 391" d="M93.06,1099.08v1.6a2.41,2.41,0,0,0,2.4-2.4h-1.6A.8.8,0,0,1,93.06,1099.08Z" transform="translate(1006.8 1332.79)"/>
      <path id="Path_392" data-name="Path 392" d="M105.84,1091.9a2.39,2.39,0,0,0-2.39,2.3l-5.35,1.67a5.63,5.63,0,0,0-4.24-3.11v-9a3.166,3.166,0,0,0,1.9-4.78l9.11-9.69a2.39,2.39,0,1,0-1.43-2.19,2.34,2.34,0,0,0,.27,1.09l-9.12,9.7a3.15,3.15,0,0,0-4.61,2H79.42a5.59,5.59,0,0,0-4.72-4.73v-5.8a2.4,2.4,0,1,0-1.6,0v5.8a5.6,5.6,0,0,0-4.79,5.53,5.54,5.54,0,0,0,.58,2.47l-6.36,4.38a2.392,2.392,0,1,0,.99,1.93,2.579,2.579,0,0,0-.09-.62l6.37-4.37a5.519,5.519,0,0,0,3.3,1.73v9a3.166,3.166,0,0,0-1.9,4.78l-9.11,9.69a2.39,2.39,0,1,0,1.43,2.19,2.47,2.47,0,0,0-.27-1.09l9.12-9.7a3.181,3.181,0,0,0,1.53.41,3.662,3.662,0,0,0,.57-.06L77,1107a2.4,2.4,0,1,0,1.67-.68h-.22l-2.56-5.55a3.111,3.111,0,0,0,1.07-1.66H87.54a5.59,5.59,0,0,0,4.72,4.73v5.8a2.4,2.4,0,1,0,1.6,0v-5.8a5.6,5.6,0,0,0,4.79-5.53,5.141,5.141,0,0,0-.08-.88l5.36-1.68a2.39,2.39,0,1,0,1.91-3.82Zm-44.72-1.6a.8.8,0,1,1,.8-.8.8.8,0,0,1-.8.8Zm18.37,18.36a.8.8,0,1,1-.8-.8.8.8,0,0,1,.8.8Zm26.35-42.31a.79.79,0,0,1,.79.79.8.8,0,1,1-.79-.79Zm-12.78,12.77a1.6,1.6,0,1,1-1.6,1.6A1.6,1.6,0,0,1,93.06,1079.12ZM73.9,1066.35a.79.79,0,0,1,.8.79.8.8,0,0,1-1.6,0,.79.79,0,0,1,.8-.79Zm-4,14.37a4,4,0,1,0,.01,0Zm-8.79,31.93a.8.8,0,0,1,0-1.59.8.8,0,0,1,.8.8.79.79,0,0,1-.79.79Zm11.18-14.37a1.615,1.615,0,1,0,.01,0Zm2.4-3.08v-9a5.58,5.58,0,0,0,4.72-4.72H90a3.21,3.21,0,0,0,2.28,2.28v9a5.58,5.58,0,0,0-4.72,4.72H77a3.21,3.21,0,0,0-2.3-2.28Zm18.36,17.45a.79.79,0,0,1-.8-.79.8.8,0,1,1,1.6,0,.79.79,0,0,1-.79.79Zm0-10.37a4,4,0,1,1,.01,0Zm12.78-7.19a.785.785,0,1,1,.01,0Z" transform="translate(1006.8 1332.79)"/>
    </g>
  </g>
</svg>
