<svg xmlns="http://www.w3.org/2000/svg" width="130.139" height="130.14" viewBox="0 0 130.139 130.14">
  <g id="Group_61" data-name="Group 61" transform="translate(-1485 -1874.14)">
    <path id="Path_243" data-name="Path 243" d="M128.567,1266.777V1248.31l-17.735-2.936a46.7,46.7,0,0,0-4.7-11.344l10.459-14.621-13.055-13.055-14.621,10.459a47.068,47.068,0,0,0-11.344-4.706l-2.936-17.727H56.17l-2.936,17.727a47.276,47.276,0,0,0-11.353,4.706l-14.612-10.459-13.063,13.055,10.468,14.646a47.075,47.075,0,0,0-4.706,11.344L2.24,1248.335V1266.8l17.727,2.936a47.274,47.274,0,0,0,4.706,11.353L14.214,1295.7l13.055,13.055L41.881,1298.3a47.275,47.275,0,0,0,11.353,4.689l2.936,17.727H74.637l2.936-17.727a47.072,47.072,0,0,0,11.344-4.706l14.621,10.459,13.055-13.055-10.459-14.612a46.906,46.906,0,0,0,4.7-11.353ZM65.4,1294.98a37.445,37.445,0,1,1,37.445-37.445A37.445,37.445,0,0,1,65.4,1294.98Z" transform="translate(1484.666 681.666)" fill="#575f84"/>
    <path id="Path_244" data-name="Path 244" d="M21.839,1297.779,32.3,1283.166a47.274,47.274,0,0,1-4.732-11.353L9.84,1268.878V1250.41l17.727-2.936a47.07,47.07,0,0,1,4.732-11.319l-10.459-14.621,9.872-9.88-4.442-3.174-13.055,13.055,10.459,14.621a47.075,47.075,0,0,0-4.706,11.344L2.24,1250.436V1268.9l17.727,2.936a47.271,47.271,0,0,0,4.706,11.353L14.214,1297.8l13.055,13.055,4.442-3.174Z" transform="translate(1484.666 679.566)" fill="#383f5b"/>
    <path id="Path_245" data-name="Path 245" d="M130.139,1268.06v-21.7l-18.127-3a49.362,49.362,0,0,0-3.957-9.54l10.7-14.944-15.319-15.319-14.927,10.672a49.235,49.235,0,0,0-9.549-3.957l-3-18.127H54.219l-3,18.127a49.16,49.16,0,0,0-9.514,3.957l-14.944-10.7-15.319,15.318,10.689,14.97a49.233,49.233,0,0,0-3.957,9.549l-18.17,3v21.7l18.127,3a49.154,49.154,0,0,0,4,9.54l-10.7,14.944,15.319,15.318L41.7,1300.2a49.161,49.161,0,0,0,9.54,3.957l3,18.127h21.7l3-18.127a49.235,49.235,0,0,0,9.549-3.957l14.944,10.7,15.319-15.319-10.672-14.97a49.153,49.153,0,0,0,3.957-9.54Zm-21.48.851a44.764,44.764,0,0,1-4.51,10.885l-.621,1.064,10.212,14.306-10.766,10.748L88.669,1295.7l-1.064.621a44.9,44.9,0,0,1-10.885,4.51l-1.191.315L72.661,1318.5H57.453l-2.868-17.353-1.191-.315a44.756,44.756,0,0,1-10.885-4.51l-1.064-.621-14.306,10.212L16.365,1295.14l10.212-14.306-.621-1.064a44.761,44.761,0,0,1-4.51-10.885l-.315-1.192-17.352-2.868v-15.233l17.352-2.868.315-1.191a44.765,44.765,0,0,1,4.51-10.885l.613-1.064-10.212-14.306,10.774-10.774,14.3,10.212,1.072-.621a44.771,44.771,0,0,1,10.885-4.51l1.183-.315,2.876-17.353H72.678l2.876,17.378,1.191.315a44.765,44.765,0,0,1,10.885,4.51l1.064.621L103,1208.531l10.774,10.723-10.212,14.306.621,1.064a44.763,44.763,0,0,1,4.51,10.885l.315,1.191,17.353,2.868V1264.8l-17.353,2.868Z" transform="translate(1485 682)"/>
    <path id="Path_246" data-name="Path 246" d="M73.67,1290.25H91.388V1257.8l-17.718-8.51Z" transform="translate(1474.025 673.486)" fill="#57a4ff"/>
    <path id="Path_247" data-name="Path 247" d="M70.393,1288.833H51.67V1239.78H70.393Z" transform="translate(1477.303 674.903)" fill="#fff5cc"/>
    <path id="Path_248" data-name="Path 248" d="M66.5,1224.42a37.6,37.6,0,1,0,37.607,37.6,37.6,37.6,0,0,0-37.607-37.6Zm18.221,62.125H48.288v-8.093a24.544,24.544,0,0,1,0-32.867v-8.093H67.011a24.535,24.535,0,0,1,17.718,40.96Z" transform="translate(1480.693 677.191)" fill="#ffe477"/>
    <path id="Path_249" data-name="Path 249" d="M119.017,1262.012a37.684,37.684,0,0,0-41.437-37.445,37.607,37.607,0,0,1,0,74.823,37.684,37.684,0,0,0,41.437-37.445Z" transform="translate(1473.443 677.197)" fill="#383f5b"/>
    <path id="Path_250" data-name="Path 250" d="M73.67,1249.25v40.994h7.659v-37.3Z" transform="translate(1474.025 673.492)" fill="#006df0"/>
    <path id="Path_251" data-name="Path 251" d="M51.68,1239.78h7.659v49.053H51.68Z" transform="translate(1477.301 674.903)" fill="#ffc477"/>
    <path id="Path_252" data-name="Path 252" d="M66.165,1222.17a39.513,39.513,0,1,0,39.522,39.516,39.511,39.511,0,0,0-39.522-39.516Zm0,75.2a35.684,35.684,0,1,1,35.675-35.681A35.685,35.685,0,0,1,66.165,1297.367Z" transform="translate(1481.028 677.526)"/>
    <path id="Path_253" data-name="Path 253" d="M56.21,1247H67.222v3.83H56.21Z" transform="translate(1476.626 673.827)"/>
    <path id="Path_254" data-name="Path 254" d="M71.974,1237.53H49.43v52.883H89.684v-35.565l-17.71-8.51Zm-3.83,49.053H53.26v-45.249H68.144Zm17.718-29.335v29.335H71.974v-36.024Z" transform="translate(1477.636 675.238)"/>
    <path id="Path_255" data-name="Path 255" d="M78.45,1263h3.872v24.578h-3.83Z" transform="translate(1473.313 671.444)"/>
    <path id="Path_256" data-name="Path 256" d="M56.21,1254H67.222v3.83H56.21Z" transform="translate(1476.626 672.785)"/>
    <path id="Path_257" data-name="Path 257" d="M56.21,1261.07H67.222v3.83H56.21Z" transform="translate(1476.626 671.732)"/>
    <path id="Path_258" data-name="Path 258" d="M56.21,1268.1H67.222v3.83H56.21Z" transform="translate(1476.626 670.684)"/>
    <path id="Path_259" data-name="Path 259" d="M56.21,1275.14H67.222v3.821H56.21Z" transform="translate(1476.626 669.635)"/>
    <path id="Path_260" data-name="Path 260" d="M43.321,1259a26.382,26.382,0,0,0,0,16.425l3.634-1.183a22.68,22.68,0,0,1,0-14.059Z" transform="translate(1478.742 672.04)"/>
    <path id="Path_261" data-name="Path 261" d="M93.676,1252.955l3.336-1.889A26.526,26.526,0,0,0,79.991,1238.3l-.851,3.728a22.663,22.663,0,0,1,14.536,10.927Z" transform="translate(1473.21 675.124)"/>
    <path id="Path_262" data-name="Path 262" d="M98.35,1260.131a22.714,22.714,0,0,1,0,14.051l3.634,1.192a26.451,26.451,0,0,0,0-16.434Z" transform="translate(1470.349 672.049)"/>
  </g>
</svg>
