<svg id="Layer_2" data-name="Layer 2" xmlns="http://www.w3.org/2000/svg" width="131.83" height="131.82" viewBox="0 0 131.83 131.82">
  <g id="Layer_2-2" data-name="Layer 2">
    <path id="Path_39" data-name="Path 39" d="M129.89,75.27V56.56l-18-3a47,47,0,0,0-4.76-11.5l10.6-14.81L104.54,14.06l-14.8,10.6a47.31,47.31,0,0,0-11.5-4.77l-3-18H56.56l-3,18a47,47,0,0,0-11.5,4.77L27.28,14.06,14.06,27.29l10.6,14.8a47,47,0,0,0-4.77,11.5l-18,3V75.27l18,3a47.31,47.31,0,0,0,4.77,11.5l-10.6,14.8L27.29,117.8l14.8-10.6a47,47,0,0,0,11.5,4.76l3,18H75.27l3-18a47.29,47.29,0,0,0,11.5-4.76l14.8,10.6,13.23-13.23-10.6-14.8a47.291,47.291,0,0,0,4.76-11.5Zm-64,28.57a37.92,37.92,0,1,1,.02,0Z" fill="#575f84"/>
    <path id="Path_40" data-name="Path 40" d="M21.78,104.54l10.6-14.8a47.71,47.71,0,0,1-4.77-11.5l-17.95-3V56.56l18-3a47.38,47.38,0,0,1,4.77-11.5L21.78,27.28l10-10-4.5-3.22L14.06,27.28l10.6,14.81a47,47,0,0,0-4.77,11.5l-18,3V75.27l18,3a47.31,47.31,0,0,0,4.77,11.5l-10.6,14.8L27.29,117.8l4.5-3.22Z" fill="#383f5b"/>
    <path id="Path_41" data-name="Path 41" d="M131.83,76.91v-22l-18.37-3a49.11,49.11,0,0,0-4-9.66L120.3,27.11,104.75,11.53,89.61,22.37a49.56,49.56,0,0,0-9.67-4L76.91,0h-22l-3,18.36a49.72,49.72,0,0,0-9.66,4L27.08,11.53,11.53,27.08,22.37,42.22a49.72,49.72,0,0,0-4,9.66L0,54.92v22l18.36,3a49.56,49.56,0,0,0,4,9.67L11.53,104.75l15.55,15.54,15.14-10.84a49.11,49.11,0,0,0,9.66,4l3,18.37h22l3-18.37a49,49,0,0,0,9.67-4l15.14,10.84,15.54-15.54L109.45,89.61a49,49,0,0,0,4-9.67Zm-21.76.83a45.479,45.479,0,0,1-4.57,11l-.63,1.08,10.38,14.48-10.92,10.92L89.85,104.87l-1.08.63a45.48,45.48,0,0,1-11,4.57l-1.2.32L73.63,128H58.2l-2.91-17.57-1.2-.32a45.48,45.48,0,0,1-11-4.57L42,104.87,27.49,115.25,16.58,104.33,27,89.85l-.62-1.08a45.48,45.48,0,0,1-4.57-11l-.32-1.2L3.86,73.63V58.2l17.58-2.91.32-1.2a45.48,45.48,0,0,1,4.57-11L27,42,16.58,27.49,27.49,16.58,42,27l1.08-.62a45.48,45.48,0,0,1,11-4.57l1.2-.32L58.2,3.86H73.63l2.91,17.58,1.2.32a45.48,45.48,0,0,1,11,4.57l1.08.62L104.3,16.58l10.92,10.91L104.87,42l.63,1.08a45.48,45.48,0,0,1,4.57,11l.32,1.2L128,58.2V73.63l-17.57,2.91Z"/>
    <circle id="Ellipse_6" data-name="Ellipse 6" cx="37.92" cy="37.92" r="37.92" transform="translate(27.99 27.99)" fill="#ffe477"/>
    <path id="Path_42" data-name="Path 42" d="M87.56,86.67H45.77V53.29L66.66,43.08l20.9,10.21Z" fill="#f5f5f7"/>
    <path id="Path_43" data-name="Path 43" d="M66.66,43.08l-1.54.75,19.36,9.46V65.94A23.259,23.259,0,0,1,72.243,86.418l-.473.252H87.56V53.29Z" fill="#e5e1e5"/>
    <path id="Path_44" data-name="Path 44" d="M66.66,85.9a.78.78,0,0,1-.77-.77V76.42a.77.77,0,1,1,1.54,0v8.71a.77.77,0,0,1-.77.77Z" fill="#e5e1e5"/>
    <path id="Path_45" data-name="Path 45" d="M69,66.35a.78.78,0,0,1-.77-.77V62.14a.78.78,0,0,1,1.55,0v3.44A.78.78,0,0,1,69,66.35Z" fill="#e5e1e5"/>
    <path id="Path_46" data-name="Path 46" d="M64.35,66.35a.78.78,0,0,1-.77-.77V62.14a.77.77,0,1,1,1.54,0v3.44A.77.77,0,0,1,64.35,66.35Z" fill="#e5e1e5"/>
    <path id="Path_47" data-name="Path 47" d="M66.66,76.42a5.1,5.1,0,0,1-5.1-5.11v-5a.69.69,0,0,1,.69-.69h8.83a.69.69,0,0,1,.69.69v5A5.11,5.11,0,0,1,66.66,76.42Z" fill="#60b7ff"/>
    <path id="Path_48" data-name="Path 48" d="M71.08,65.58H68a.69.69,0,0,1,.69.69v5a5.11,5.11,0,0,1-3.57,4.87,5,5,0,0,0,1.54.24,5.11,5.11,0,0,0,5.11-5.11v-5A.69.69,0,0,0,71.08,65.58Z" fill="#26a6fe"/>
    <path id="Path_49" data-name="Path 49" d="M91.45,57.66l-24.79-12-24.78,12a.51.51,0,0,1-.73-.46V52.59a.5.5,0,0,1,.29-.46L66.66,40,91.89,52.13a.5.5,0,0,1,.29.46V57.2a.51.51,0,0,1-.73.46Z" fill="#d77f4a"/>
    <path id="Path_50" data-name="Path 50" d="M91.89,52.13,66.66,40l-1.54.74,22.1,10.67a3.63,3.63,0,0,1,1.88,3v2.18l2.35,1.13a.51.51,0,0,0,.73-.46V52.59a.5.5,0,0,0-.29-.46Z" fill="#c86d36"/>
    <path id="Path_51" data-name="Path 51" d="M63.58,44.69l-5.48-.6L54.1,46a4.52,4.52,0,0,1-2.56,4.43l-10.41,5v1.8a.51.51,0,0,0,.73.46L65.12,46.44Z" fill="#c86d36"/>
    <path id="Path_52" data-name="Path 52" d="M91.57,83.59H41.76a.61.61,0,0,0-.61.61v1.85a.61.61,0,0,0,.61.62H91.57a.61.61,0,0,0,.61-.62V84.2A.61.61,0,0,0,91.57,83.59Z" fill="#9b8e99"/>
    <path id="Path_53" data-name="Path 53" d="M91.57,83.59H88.49a.61.61,0,0,1,.61.61v1.85a.61.61,0,0,1-.61.62h3.08a.61.61,0,0,0,.61-.62V84.2A.61.61,0,0,0,91.57,83.59Z" fill="#918291"/>
    <circle id="Ellipse_7" data-name="Ellipse 7" cx="10.87" cy="10.87" r="10.87" transform="translate(55.79 35.64)" fill="#fedf30"/>
    <path id="Path_54" data-name="Path 54" d="M69.92,36.13a10.87,10.87,0,0,1-6.34,19.71,10.62,10.62,0,0,1-3.25-.5,10.75,10.75,0,0,0,6.33,2,10.87,10.87,0,0,0,3.26-21.25Z" fill="#fac600"/>
    <path id="Path_55" data-name="Path 55" d="M68.66,39.12a.81.81,0,0,1,.82,1.09c-.55,1.41-1.15,2.81-1.74,4.21,0,.08,0,.12.06.16l3.31,1.91a.84.84,0,0,1,.18,1.39l-6,5.7a.86.86,0,0,1-1,.23.8.8,0,0,1-.4-1c.21-.54.44-1.08.66-1.61l1.08-2.6c0-.08,0-.12-.06-.15-1.12-.65-2.25-1.28-3.36-1.95A.83.83,0,0,1,62,45.13l6-5.7a1,1,0,0,1,.6-.31Z" fill="#fea95c"/>
    <path id="Path_56" data-name="Path 56" d="M71.12,46.49,67.8,44.58c-.07,0-.1-.08-.06-.16.59-1.4,1.19-2.8,1.74-4.21a.81.81,0,0,0-.82-1.09,1,1,0,0,0-.6.31l-2.17,2c-.09.31-.66,1.48-1,2.3a.92.92,0,0,0,.4,1.14L68,46.49a.84.84,0,0,1,.18,1.39l-3.84,3.63c-.18.43-.36.86-.52,1.29a.8.8,0,0,0,.4,1,.86.86,0,0,0,1-.23l6-5.7a.84.84,0,0,0-.17-1.39Z" fill="#fe9738"/>
    <path id="Path_57" data-name="Path 57" d="M71.5,45.83l-2.83-1.64c.51-1.21,1-2.45,1.53-3.7a1.54,1.54,0,0,0-.2-1.44,1.61,1.61,0,0,0-2.5-.18l-6,5.7a1.66,1.66,0,0,0-.5,1.37,1.64,1.64,0,0,0,.8,1.21c.95.58,1.92,1.13,2.88,1.67-.48,1.13-1.06,2.49-1.53,3.7a1.56,1.56,0,0,0,.79,2,1.59,1.59,0,0,0,1.88-.36c2-1.87,4-3.83,6-5.7a1.61,1.61,0,0,0-.32-2.61Zm-.74,1.49c-2.11,2-6,5.7-6.15,5.8h0c.54-1.39,1.2-2.9,1.74-4.19a.86.86,0,0,0-.38-1.12c-1.12-.64-2.24-1.27-3.35-1.94-.08,0-.08-.07,0-.14,1.32-1.25,5.69-5.49,6.14-5.8h.05c-.54,1.41-1.15,2.81-1.73,4.19a.86.86,0,0,0,.38,1.12c1.11.64,2.21,1.29,3.32,1.92.11.07.12.08,0,.16Zm16.8,27.42a.76.76,0,0,0,.77-.77V57l2.78,1.35a1.3,1.3,0,0,0,1.24-.07A1.28,1.28,0,0,0,93,57.2V52.59a1.3,1.3,0,0,0-.72-1.16L78.16,44.64a11.65,11.65,0,1,0-22.55,5.54L41.92,56.79v-4l11-5.3a.772.772,0,1,0-.67-1.39L41.1,51.43a1.3,1.3,0,0,0-.72,1.16V57.2a1.28,1.28,0,0,0,.6,1.09,1.3,1.3,0,0,0,1.24.07L45,57V82.82H41.76a1.38,1.38,0,0,0-1.38,1.38v1.85a1.38,1.38,0,0,0,1.38,1.39H91.57A1.38,1.38,0,0,0,93,86.05V84.2a1.38,1.38,0,0,0-1.38-1.38H88.33V77.05a.77.77,0,1,0-1.54,0v5.77H67.43V77.14a5.89,5.89,0,0,0,5.11-5.83v-5a1.46,1.46,0,0,0-1.46-1.46H69.75V62.14a.78.78,0,0,0-1.55,0v2.67H65.12V62.14a.77.77,0,1,0-1.54,0v2.67H62.25a1.46,1.46,0,0,0-1.46,1.46v5a5.89,5.89,0,0,0,5.1,5.83v5.68H46.54V56.27l9.66-4.66a11.64,11.64,0,0,0,20.93,0l9.66,4.66V74a.77.77,0,0,0,.77.74ZM62.33,71.31v-5H71v5a4.34,4.34,0,1,1-8.67,0Zm29.08,13V85.9H41.92V84.36ZM66.66,56.61a10.11,10.11,0,1,1,10.11-10.1,10.11,10.11,0,0,1-10.11,10.1Zm11-6.43a11.48,11.48,0,0,0,.6-3.67v-.09l13.1,6.33v4Z"/>
  </g>
</svg>
