<svg xmlns="http://www.w3.org/2000/svg" width="131.82" height="131.79" viewBox="0 0 131.82 131.79">
  <g id="Group_64" data-name="Group 64" transform="translate(-1499.33 -2406.93)">
    <path id="Path_430" data-name="Path 430" d="M144.22,1800.18v-18.71l-18-3a47.08,47.08,0,0,0-4.77-11.49l10.6-14.81L118.86,1739l-14.8,10.6a47.362,47.362,0,0,0-11.5-4.76l-3-18H70.88l-3,18a47.677,47.677,0,0,0-11.5,4.76L41.61,1739l-13.23,13.23L39,1767a47,47,0,0,0-4.76,11.5l-18,3v18.71l18,3A47.047,47.047,0,0,0,39,1814.64l-10.6,14.81,13.23,13.23,14.8-10.6a47.682,47.682,0,0,0,11.5,4.76l3,18H89.59l3-18a47.356,47.356,0,0,0,11.5-4.76l14.81,10.6,13.23-13.23-10.61-14.81a47.076,47.076,0,0,0,4.77-11.49Zm-64,28.56a37.681,37.681,0,1,1,.02,0Z" transform="translate(1485 682)" fill="#575f84"/>
    <path id="Path_431" data-name="Path 431" d="M36.11,1829.45l10.6-14.81a47.081,47.081,0,0,1-4.77-11.49l-18-3v-18.71l18-3A47.081,47.081,0,0,1,46.71,1767l-10.6-14.81,10-10-4.5-3.23-13.23,13.23L39,1767a47.05,47.05,0,0,0-4.76,11.49l-18,3v18.71l18,3A47.048,47.048,0,0,0,39,1814.64l-10.6,14.81,13.23,13.23,4.5-3.23Z" transform="translate(1485 682)" fill="#383f5b"/>
    <path id="Path_432" data-name="Path 432" d="M146.15,1801.81v-22l-18.36-3a50.068,50.068,0,0,0-4-9.67L134.62,1752l-15.55-15.55-15.13,10.84a49.438,49.438,0,0,0-9.67-4l-3-18.36h-22l-3,18.36a49.2,49.2,0,0,0-9.67,4l-15.2-10.85L25.86,1752l10.84,15.13a49.441,49.441,0,0,0-4,9.67l-18.37,3v22l18.37,3a49.2,49.2,0,0,0,4,9.67l-10.84,15.14L41.4,1845.2l15.14-10.84a49.2,49.2,0,0,0,9.67,4l3,18.36h22l3-18.36a49.447,49.447,0,0,0,9.67-4l15.13,10.84,15.55-15.54-10.84-15.14a49.815,49.815,0,0,0,4-9.67Zm-21.76.84a45.414,45.414,0,0,1-4.57,11l-.62,1.08,10.37,14.48-10.91,10.91-14.49-10.37-1.08.62a45.205,45.205,0,0,1-11,4.58l-1.21.32L88,1852.87H72.52l-2.91-17.57-1.2-.32a45.279,45.279,0,0,1-11-4.58l-1.08-.62-14.48,10.37L30.9,1829.24l10.38-14.48-.63-1.08a45.812,45.812,0,0,1-4.57-11l-.32-1.21-17.57-2.9V1783.1l17.57-2.9.32-1.21a45.81,45.81,0,0,1,4.57-11l.63-1.07L30.9,1752.4l10.92-10.91,14.48,10.37,1.08-.62a45.513,45.513,0,0,1,11-4.58l1.2-.32,2.91-17.57H88l2.91,17.57,1.21.32a45.206,45.206,0,0,1,11,4.58l1.08.62,14.49-10.37,10.91,10.91-10.37,14.49.62,1.07a45.409,45.409,0,0,1,4.57,11l.33,1.21,17.57,2.9v15.44l-17.58,2.9Z" transform="translate(1485 682)"/>
    <circle id="Ellipse_32" data-name="Ellipse 32" cx="38" cy="38" r="38" transform="translate(1527.24 2434.82)" fill="#ffe477"/>
    <path id="Path_433" data-name="Path 433" d="M65.08,1804.86h-3a3.72,3.72,0,0,1-3.71-3.72v-31.72a3.72,3.72,0,0,1,3.71-3.72h38.25a3.73,3.73,0,0,1,3.72,3.72v31.72a3.73,3.73,0,0,1-3.72,3.72Z" transform="translate(1485 682)" fill="#fff"/>
    <path id="Path_434" data-name="Path 434" d="M100.36,1765.7H62.11a3.72,3.72,0,0,0-3.71,3.72v3h45.68v-3A3.73,3.73,0,0,0,100.36,1765.7Z" transform="translate(1485 682)" fill="#ff5a5a"/>
    <path id="Path_435" data-name="Path 435" d="M59.42,1772.39h44.1" transform="translate(1485 682)" fill="#231f20"/>
    <rect id="Rectangle_144" data-name="Rectangle 144" width="5.94" height="10.21" transform="translate(1547.67 2483.17)" fill="#a5dc69"/>
    <rect id="Rectangle_145" data-name="Rectangle 145" width="5.94" height="12.63" transform="translate(1568.47 2480.76)" fill="#78d2fa"/>
    <rect id="Rectangle_146" data-name="Rectangle 146" width="5.94" height="20.48" transform="translate(1558.07 2472.9)" fill="#f5c86e"/>
    <rect id="Rectangle_147" data-name="Rectangle 147" width="5.94" height="21.87" transform="translate(1578.86 2471.52)" fill="#ff5a5a"/>
    <circle id="Ellipse_33" data-name="Ellipse 33" cx="2.41" cy="2.41" r="2.41" transform="translate(1558.11 2460.33)" fill="#f5c86e"/>
    <circle id="Ellipse_34" data-name="Ellipse 34" cx="2.41" cy="2.41" r="2.41" transform="translate(1568.94 2471.38)" fill="#78d2fa"/>
    <circle id="Ellipse_35" data-name="Ellipse 35" cx="2.41" cy="2.41" r="2.41" transform="translate(1579.43 2460.33)" fill="#ff5a5a"/>
    <circle id="Ellipse_36" data-name="Ellipse 36" cx="2.41" cy="2.41" r="2.41" transform="translate(1548.17 2470.49)" fill="#a5dc69"/>
    <path id="Path_436" data-name="Path 436" d="M101.76,1805.67a3.25,3.25,0,0,0,3.25-3.24v-33a4.66,4.66,0,0,0-4.65-4.65H62.11a4.65,4.65,0,0,0-4.64,4.65v33a3.24,3.24,0,0,0,3.24,3.24h1v4.78H58.4a.93.93,0,0,0,0,1.86h45.68a.93.93,0,1,0,0-1.86h-3.34v-4.78Zm-39.65-39h38.25a2.79,2.79,0,0,1,2.79,2.79v2H59.33v-2a2.79,2.79,0,0,1,2.78-2.83Zm1.49,43.82v-8.35h4.08v8.35Zm10.4,0v-18.62h4.08v18.62Zm10.39,0v-10.77h4.09v10.77Zm10.4,0v-10a.93.93,0,1,0-1.85,0v10h-2.6V1798.8a.93.93,0,0,0-.93-.93H83.47a.92.92,0,0,0-.93.93v11.69h-2.6V1790.9a.93.93,0,0,0-.94-.9H73.07a.92.92,0,0,0-.93.92v19.55h-2.6v-9.28a.93.93,0,0,0-.93-.93H62.67a.93.93,0,0,0-.93.93v2.65h-1a1.39,1.39,0,0,1-1.38-1.39v-29.12h43.82v29.11a1.39,1.39,0,0,1-1.39,1.39h-1v-14.3a.93.93,0,0,0-.93-.93h-6a.93.93,0,0,0-.92.93v4.69a.93.93,0,0,0,1.85,0v-3.76h4.09v20Z" transform="translate(1485 682)"/>
    <path id="Path_437" data-name="Path 437" d="M78.09,1770h21a.93.93,0,1,0,0-1.85h-21a.93.93,0,1,0,0,1.85Z" transform="translate(1485 682)"/>
    <path id="Path_438" data-name="Path 438" d="M67.13,1770a.92.92,0,1,0-.66-.27A.929.929,0,0,0,67.13,1770Z" transform="translate(1485 682)"/>
    <path id="Path_439" data-name="Path 439" d="M63.41,1770a.93.93,0,1,0,0-1.85,1,1,0,0,0-.66.27.93.93,0,0,0,0,1.31A1,1,0,0,0,63.41,1770Z" transform="translate(1485 682)"/>
    <path id="Path_440" data-name="Path 440" d="M70.84,1770a1,1,0,0,0,.66-.27.93.93,0,0,0,0-1.31.941.941,0,0,0-1.32,0,.93.93,0,0,0,0,1.31A1,1,0,0,0,70.84,1770Z" transform="translate(1485 682)"/>
    <path id="Path_441" data-name="Path 441" d="M93.86,1796.59a.92.92,0,1,0,.66.27.93.93,0,0,0-.66-.27Z" transform="translate(1485 682)"/>
    <path id="Path_442" data-name="Path 442" d="M96.84,1784.08a3.35,3.35,0,1,0-2.71-1.38L88,1788.87a3.221,3.221,0,0,0-1.61-.42,3.312,3.312,0,0,0-1.47.34l-6.44-6.44a3.27,3.27,0,0,0,.42-1.61,3.35,3.35,0,0,0-6.69,0,3.43,3.43,0,0,0,.5,1.76l-5.52,5.5a3.269,3.269,0,0,0-1.61-.42,3.35,3.35,0,1,0,3.34,3.34,3.27,3.27,0,0,0-.42-1.61l5.55-5.55a3.321,3.321,0,0,0,3.08-.08l6.38,6.38a3.28,3.28,0,0,0-.5,1.75,3.34,3.34,0,0,0,6.68,0,3.38,3.38,0,0,0-.41-1.61l6.33-6.33a3.322,3.322,0,0,0,1.23.21Zm0-4.83a1.49,1.49,0,1,1-1.49,1.49,1.49,1.49,0,0,1,1.49-1.49Zm-31.26,13.14a1.49,1.49,0,1,1,1.48-1.49,1.49,1.49,0,0,1-1.48,1.49Zm9.94-10.17a1.49,1.49,0,1,1,1.48-1.48,1.49,1.49,0,0,1-1.48,1.48Zm10.83,11.06a1.49,1.49,0,1,1,1.49-1.49,1.49,1.49,0,0,1-1.49,1.49Z" transform="translate(1485 682)"/>
    <path id="Path_443" data-name="Path 443" d="M70.58,1778.33a.93.93,0,0,0,.66-1.58.91.91,0,0,0-1.31,0,.925.925,0,0,0,.65,1.58Z" transform="translate(1485 682)"/>
    <path id="Path_444" data-name="Path 444" d="M62.67,1778.33h4.46a.93.93,0,1,0,0-1.86H62.67a.93.93,0,0,0,0,1.86Z" transform="translate(1485 682)"/>
    <path id="Path_445" data-name="Path 445" d="M67.13,1782.79a.93.93,0,1,0,0-1.86H62.67a.93.93,0,0,0,0,1.86Z" transform="translate(1485 682)"/>
  </g>
</svg>
