<svg xmlns="http://www.w3.org/2000/svg" width="131.83" height="131.82" viewBox="0 0 131.83 131.82">
  <g id="Group_93" data-name="Group 93" transform="translate(-1025 -921)">
    <g id="Layer_2" data-name="Layer 2" transform="translate(1025 921)">
      <g id="Layer_2-2" data-name="Layer 2">
        <path id="Path_72" data-name="Path 72" d="M129.89,75.27V56.56l-18-3a47,47,0,0,0-4.76-11.5l10.6-14.81L104.54,14.06l-14.8,10.6a47.31,47.31,0,0,0-11.5-4.77l-3-18H56.56l-3,18a47,47,0,0,0-11.5,4.77L27.28,14.06,14.06,27.29l10.6,14.8a47,47,0,0,0-4.77,11.5l-18,3V75.27l18,3a47.31,47.31,0,0,0,4.77,11.5l-10.6,14.8L27.29,117.8l14.8-10.6a47,47,0,0,0,11.5,4.76l3,18H75.27l3-18a47.29,47.29,0,0,0,11.5-4.76l14.8,10.6,13.23-13.23-10.6-14.8a47.291,47.291,0,0,0,4.76-11.5Zm-64,28.57a37.92,37.92,0,1,1,.02,0Z" fill="#575f84"/>
        <path id="Path_73" data-name="Path 73" d="M21.78,104.54l10.6-14.8a47.71,47.71,0,0,1-4.77-11.5l-17.95-3V56.56l18-3a47.38,47.38,0,0,1,4.77-11.5L21.78,27.28l10-10-4.5-3.22L14.06,27.28l10.6,14.81a47,47,0,0,0-4.77,11.5l-18,3V75.27l18,3a47.31,47.31,0,0,0,4.77,11.5l-10.6,14.8L27.29,117.8l4.5-3.22Z" fill="#383f5b"/>
        <path id="Path_74" data-name="Path 74" d="M131.83,76.91v-22l-18.37-3a49.11,49.11,0,0,0-4-9.66L120.3,27.11,104.75,11.53,89.61,22.37a49.56,49.56,0,0,0-9.67-4L76.91,0h-22l-3,18.36a49.72,49.72,0,0,0-9.66,4L27.08,11.53,11.53,27.08,22.37,42.22a49.72,49.72,0,0,0-4,9.66L0,54.92v22l18.36,3a49.56,49.56,0,0,0,4,9.67L11.53,104.75l15.55,15.54,15.14-10.84a49.11,49.11,0,0,0,9.66,4l3,18.37h22l3-18.37a49,49,0,0,0,9.67-4l15.14,10.84,15.54-15.54L109.45,89.61a49,49,0,0,0,4-9.67Zm-21.76.83a45.479,45.479,0,0,1-4.57,11l-.63,1.08,10.38,14.48-10.92,10.92L89.85,104.87l-1.08.63a45.48,45.48,0,0,1-11,4.57l-1.2.32L73.63,128H58.2l-2.91-17.57-1.2-.32a45.48,45.48,0,0,1-11-4.57L42,104.87,27.49,115.25,16.58,104.33,27,89.85l-.62-1.08a45.48,45.48,0,0,1-4.57-11l-.32-1.2L3.86,73.63V58.2l17.58-2.91.32-1.2a45.48,45.48,0,0,1,4.57-11L27,42,16.58,27.49,27.49,16.58,42,27l1.08-.62a45.48,45.48,0,0,1,11-4.57l1.2-.32L58.2,3.86H73.63l2.91,17.58,1.2.32a45.48,45.48,0,0,1,11,4.57l1.08.62L104.3,16.58l10.92,10.91L104.87,42l.63,1.08a45.48,45.48,0,0,1,4.57,11l.32,1.2L128,58.2V73.63l-17.57,2.91Z"/>
        <circle id="Ellipse_9" data-name="Ellipse 9" cx="37.92" cy="37.92" r="37.92" transform="translate(27.99 27.99)" fill="#ffe477"/>
        <path id="Path_75" data-name="Path 75" d="M65.54,78.08v1h1.32v-1Zm0-2.89V76.5h1.32V75.19Zm0-2.9V73.6h1.32V72.29Zm0-2.9v1.32h1.32V69.39Zm0-2.9v1.32h1.32V66.49Zm0-2.9v1.32h1.32V63.59Zm0-2.9V62h1.32V60.69Zm0-2.9v1.32h1.32V57.79Zm0-2.89v1.31h1.32V54.9Z" fill="#fa6164"/>
        <path id="Path_76" data-name="Path 76" d="M44.66,47.78V84.49L87,84.22V47.51ZM46,49.09l39.7-.25V82.91L46,83.16Z" fill="#fa6164"/>
        <path id="Path_77" data-name="Path 77" d="M66.24,44.09a4.77,4.77,0,0,0-.76.06l-1.1-1.3a.52.52,0,0,0-.67-.12l-1.13.65a.52.52,0,0,0-.24.64l.56,1.61a4,4,0,0,0-.76,1.3l-1.68.3a.55.55,0,0,0-.44.53v1.3a.54.54,0,0,0,.44.53l1.67.32a4.6,4.6,0,0,0,.75,1.31l-.57,1.6a.54.54,0,0,0,.23.65l1.13.65a.51.51,0,0,0,.67-.11l1.12-1.29a3.67,3.67,0,0,0,.75.07,4.56,4.56,0,0,0,.75-.06l1.1,1.3a.54.54,0,0,0,.68.12l1.13-.65a.52.52,0,0,0,.24-.64l-.56-1.61A4.44,4.44,0,0,0,70.3,50l1.68-.3a.55.55,0,0,0,.44-.53v-1.3a.52.52,0,0,0-.43-.53L70.31,47a4.23,4.23,0,0,0-.74-1.31l.57-1.6a.54.54,0,0,0-.23-.65l-1.13-.66a.54.54,0,0,0-.68.12L67,44.16a3.67,3.67,0,0,0-.76-.07Zm2.15,4.36a2.18,2.18,0,1,1-1.043-2.01,2.18,2.18,0,0,1,1.043,2.01Z" fill="#fbc941"/>
        <path id="Path_78" data-name="Path 78" d="M68.39,48.45a2.18,2.18,0,1,1-1.043-2.01,2.18,2.18,0,0,1,1.043,2.01Z" fill="#fff"/>
        <path id="Path_79" data-name="Path 79" d="M73.08,47.8a1.18,1.18,0,0,0-1-1.16l-1.32-.25a5.46,5.46,0,0,0-.48-.85l.45-1.26a1.14,1.14,0,0,0,.07-.41,1.21,1.21,0,0,0-.59-1l-1.13-.66a1.15,1.15,0,0,0-.6-.16,1.22,1.22,0,0,0-.91.42l-.87,1a3.911,3.911,0,0,0-.49,0h-.46l-.87-1A1.24,1.24,0,0,0,64,42a1.14,1.14,0,0,0-.59.16l-1.13.64a1.2,1.2,0,0,0-.6,1,1.39,1.39,0,0,0,.06.4l.45,1.27a4.39,4.39,0,0,0-.49.84l-1.33.24a1.19,1.19,0,0,0-1,1.17v1.3h0a1.2,1.2,0,0,0,1,1.18l1.32.25a4.35,4.35,0,0,0,.48.84l-.45,1.27a1.12,1.12,0,0,0-.07.4,1.17,1.17,0,0,0,.59,1l1.12.66a1.32,1.32,0,0,0,.61.16,1.2,1.2,0,0,0,.9-.42l.88-1a3.911,3.911,0,0,0,.49,0h.46l.87,1a1.19,1.19,0,0,0,1.51.27h0l1.13-.65a1.18,1.18,0,0,0,.6-1,1.09,1.09,0,0,0-.07-.4l-.44-1.27a4.39,4.39,0,0,0,.49-.84l1.32-.24a1.2,1.2,0,0,0,1-1.17V47.8ZM68.41,53.58ZM71.76,49l-2,.36-.13.35a3.65,3.65,0,0,1-.64,1.1l-.25.29.71,1.9-1,.55L67.21,52l-.37.06a4.209,4.209,0,0,1-.62.05h0a3.39,3.39,0,0,1-.64-.06L65.19,52,63.9,53.5,63,53l.67-1.86-.24-.29a3.83,3.83,0,0,1-.64-1.11l-.12-.36-2-.38V47.9l1.94-.35.13-.35a3.64,3.64,0,0,1,.65-1.11l.24-.28L63,43.9l1-.55,1.27,1.51.38-.06a3.18,3.18,0,0,1,.62,0h0a4.6,4.6,0,0,1,.64,0l.37.07,1.29-1.5.95.56-.67,1.86.24.29a3.59,3.59,0,0,1,.63,1.11l.13.35,2,.37Z"/>
        <path id="Path_80" data-name="Path 80" d="M69.05,48.44a2.82,2.82,0,0,0-2.81-2.83h0a2.82,2.82,0,0,0-2.83,2.8h0a2.83,2.83,0,0,0,2.83,2.83h0a2.82,2.82,0,0,0,2.83-2.82Zm-1.76,1.07a1.5,1.5,0,0,1-1.07.45h0a1.58,1.58,0,0,1-1.07-.45,1.53,1.53,0,0,1-.44-1.07h0a1.5,1.5,0,0,1,.45-1.07,1.53,1.53,0,0,1,1.07-.44h0a1.46,1.46,0,0,1,1.06.45,1.5,1.5,0,0,1,.45,1.07h0a1.54,1.54,0,0,1-.45,1.06Z" fill="#25101b"/>
        <path id="Path_81" data-name="Path 81" d="M66.24,79.48a4.769,4.769,0,0,0-.76.06l-1.1-1.3a.52.52,0,0,0-.67-.12l-1.13.64a.53.53,0,0,0-.24.65L62.9,81a4,4,0,0,0-.76,1.3l-1.68.3a.55.55,0,0,0-.44.53v1.3a.55.55,0,0,0,.44.53l1.67.32a4.6,4.6,0,0,0,.75,1.31l-.57,1.6a.54.54,0,0,0,.23.65l1.13.65a.52.52,0,0,0,.67-.11l1.12-1.29a4.36,4.36,0,0,0,1.5,0l1.1,1.3a.54.54,0,0,0,.68.12l1.13-.65a.52.52,0,0,0,.24-.64l-.56-1.61a4.58,4.58,0,0,0,.76-1.3L72,85a.53.53,0,0,0,.44-.52v-1.3a.54.54,0,0,0-.43-.54l-1.68-.31a4.23,4.23,0,0,0-.74-1.31l.57-1.6a.54.54,0,0,0-.23-.65l-1.13-.66a.54.54,0,0,0-.68.12L67,79.55A3.67,3.67,0,0,0,66.24,79.48Zm2.15,4.36a2.18,2.18,0,1,1-1.043-2.01A2.18,2.18,0,0,1,68.39,83.84Z" fill="#fbc941"/>
        <path id="Path_82" data-name="Path 82" d="M68.39,83.84a2.18,2.18,0,1,1-1.043-2.01A2.18,2.18,0,0,1,68.39,83.84Z" fill="#fff"/>
        <path id="Path_83" data-name="Path 83" d="M69.05,83.83h0a2.82,2.82,0,0,0-.82-2,2.85,2.85,0,0,0-2-.84h0a2.83,2.83,0,0,0-2,.83,2.78,2.78,0,0,0-.83,2h0a2.83,2.83,0,0,0,2.83,2.83h0a2.82,2.82,0,0,0,2.83-2.82ZM67.29,84.9a1.49,1.49,0,0,1-1.07.44h0a1.5,1.5,0,0,1-1.51-1.51h0a1.5,1.5,0,0,1,.45-1.07,1.53,1.53,0,0,1,1.07-.44h0a1.46,1.46,0,0,1,1.06.45,1.48,1.48,0,0,1,.45,1.07h0a1.56,1.56,0,0,1-.45,1.06Z" fill="#25101b"/>
        <path id="Path_84" data-name="Path 84" d="M73.08,83.19a1.18,1.18,0,0,0-1-1.16l-1.32-.25a5.46,5.46,0,0,0-.48-.85l.45-1.26a1.18,1.18,0,0,0,.07-.41,1.21,1.21,0,0,0-.59-1l-1.13-.66a1.15,1.15,0,0,0-.6-.16,1.19,1.19,0,0,0-.91.42l-.87,1h-.49a3.46,3.46,0,0,0-.46,0l-.87-1a1.24,1.24,0,0,0-.92-.42,1.14,1.14,0,0,0-.59.16l-1.13.64a1.2,1.2,0,0,0-.6,1,1.39,1.39,0,0,0,.06.4l.45,1.27a4.64,4.64,0,0,0-.49.83L60.34,82a1.21,1.21,0,0,0-1,1.18v1.3h0a1.2,1.2,0,0,0,1,1.18l1.32.25a4.35,4.35,0,0,0,.48.84L61.68,88a1.12,1.12,0,0,0-.07.4,1.17,1.17,0,0,0,.59,1l1.12.65a1.22,1.22,0,0,0,.61.17,1.2,1.2,0,0,0,.9-.42l.88-1a3.911,3.911,0,0,0,.49,0h.46l.87,1a1.19,1.19,0,0,0,.92.43,1.27,1.27,0,0,0,.59-.16l1.13-.65a1.2,1.2,0,0,0,.6-1,1.32,1.32,0,0,0-.06-.39l-.45-1.27a4.39,4.39,0,0,0,.49-.84l1.32-.24a1.19,1.19,0,0,0,1-1.17v-1.3h0Zm-4.59,5.73L67.21,87.4l-.37.07a4.212,4.212,0,0,1-.62,0h0a3.391,3.391,0,0,1-.64-.06l-.37-.06L63.9,88.89l-.9-.55.67-1.86-.24-.29a4,4,0,0,1-.64-1.11l-.12-.36-1.95-.37v-1.1l1.94-.35.13-.35a3.64,3.64,0,0,1,.65-1.11l.24-.28L63,79.29l1-.55,1.27,1.51.38-.06a3.18,3.18,0,0,1,.62,0h0a4.6,4.6,0,0,1,.64,0l.37.07,1.29-1.5.95.56-.67,1.86.24.29a3.59,3.59,0,0,1,.63,1.11l.13.35,2,.37v1.1l-2,.35-.13.36a3.78,3.78,0,0,1-.64,1.1l-.25.29.66,1.87ZM69.49,88.46Z"/>
        <path id="Path_85" data-name="Path 85" d="M53.08,52a3.68,3.68,0,0,0-3.21,1.88l-6.48,11.5,3.52-1.86L51.18,56a1,1,0,0,1,1.54-.17l.56.61a.983.983,0,0,0,1.7-.69V53.91A1.87,1.87,0,0,0,53.08,52Z" fill="#fd7e72"/>
        <path id="Path_86" data-name="Path 86" d="M82.57,53.92A3.69,3.69,0,0,0,79.36,52a1.87,1.87,0,0,0-1.87,1.87v1.92a.99.99,0,0,0,1.71.69l.56-.61a1,1,0,0,1,1.54.17l4.27,7.48L89,65.38Z" fill="#fd7e72"/>
        <path id="Path_87" data-name="Path 87" d="M57.48,77.72H46.91a4.25,4.25,0,0,1-4.25-4.26V67.78a4.25,4.25,0,0,1,4.25-4.26H58.39a4.26,4.26,0,0,1,4.2,4.94l-.91,5.68A4.25,4.25,0,0,1,57.48,77.72Z" fill="#fbc941"/>
        <path id="Path_88" data-name="Path 88" d="M46.91,66.16H58.39a4.25,4.25,0,0,1,4.08,3l.12-.74a4.26,4.26,0,0,0-4.2-4.94H46.91a4.25,4.25,0,0,0-4.25,4.26v2.64a4.25,4.25,0,0,1,4.25-4.22Z" fill="#fff"/>
        <path id="Path_89" data-name="Path 89" d="M75,77.72H85.52a4.26,4.26,0,0,0,4.26-4.26V67.78a4.26,4.26,0,0,0-4.26-4.26H74.05a4.27,4.27,0,0,0-4.21,4.94l.92,5.68A4.25,4.25,0,0,0,75,77.72Z" fill="#fbc941"/>
        <path id="Path_90" data-name="Path 90" d="M59.92,74.12h1.32V72.8H59.92Zm-2.9,0h1.32V72.8H57Zm-2.9,0h1.32V72.8H54.12Zm-2.9,0h1.32V72.8H51.22Zm-2.9,0h1.32V72.8H48.32Zm-2.89,0h1.31V72.8H45.43Zm-2.9,0h1.32V72.8H42.53Z" fill="#fff"/>
        <path id="Path_91" data-name="Path 91" d="M88.17,74.12h1.32V72.8H88.17Zm-2.9,0h1.32V72.8H85.27Zm-2.9,0h1.32V72.8H82.37Zm-2.89,0h1.31V72.8H79.48Zm-2.9,0h1.31V72.8H76.58Zm-2.9,0H75V72.8H73.68Zm-2.9,0H72.1V72.8H70.78Z" fill="#fff"/>
        <path id="Path_92" data-name="Path 92" d="M85.52,63.52H74.05a4.27,4.27,0,0,0-4.21,4.94l.12.74a4.27,4.27,0,0,1,4.09-3H85.52a4.26,4.26,0,0,1,4.26,4.26V67.78a4.26,4.26,0,0,0-4.26-4.26Z" fill="#fff"/>
        <path id="Path_93" data-name="Path 93" d="M69.84,68.46a4.26,4.26,0,0,1,3.84-4.92H58.76a4.25,4.25,0,0,1,3.83,4.92l-.07.44a3.82,3.82,0,0,1,7.39,0Z" fill="#fd7e72"/>
        <path id="Path_94" data-name="Path 94" d="M89.61,65.06h0L83.14,53.59a4.38,4.38,0,0,0-3.78-2.21,2.53,2.53,0,0,0-2.53,2.53v1.92a1.62,1.62,0,0,0,2.82,1.09l.55-.61a.29.29,0,0,1,.23-.09.4.4,0,0,1,.15,0,.32.32,0,0,1,.11.12l3.71,6.5H48l3.71-6.5a.32.32,0,0,1,.11-.12.4.4,0,0,1,.15,0,.26.26,0,0,1,.22.09l.56.61a1.61,1.61,0,0,0,1.19.53A1.63,1.63,0,0,0,55.13,57a1.58,1.58,0,0,0,.47-1.14V53.91a2.51,2.51,0,0,0-.73-1.79,2.56,2.56,0,0,0-1.79-.74,4.35,4.35,0,0,0-3.78,2.21L42.82,65.06h0A4.87,4.87,0,0,0,42,67.78v5.68a4.93,4.93,0,0,0,4.91,4.92H57.48a4.93,4.93,0,0,0,4.85-4.14l.84-5.2a3.256,3.256,0,0,1,5.1-1.66,3.18,3.18,0,0,1,1,1.62l.84,5.2A4.93,4.93,0,0,0,75,78.38H85.52a4.93,4.93,0,0,0,4.92-4.92V67.78a4.88,4.88,0,0,0-.83-2.72Zm-8.39-10a1.58,1.58,0,0,0-.79-.21,1.63,1.63,0,0,0-1.2.52l-.55.61a.3.3,0,0,1-.44.01.29.29,0,0,1-.09-.21V53.91a1.18,1.18,0,0,1,.35-.85,1.21,1.21,0,0,1,.86-.36A3,3,0,0,1,82,54.24l5,8.85a4.72,4.72,0,0,0-1.07-.21l-4.09-7.16a1.49,1.49,0,0,0-.62-.61Zm-30.78-.87a3,3,0,0,1,2.64-1.54,1.23,1.23,0,0,1,1.21,1.21v1.92a.33.33,0,0,1-.09.21.29.29,0,0,1-.21.09.33.33,0,0,1-.23-.1l-.56-.61A1.61,1.61,0,0,0,52,54.9a1.58,1.58,0,0,0-.79.21,1.52,1.52,0,0,0-.62.61l-4.08,7.16a4.8,4.8,0,0,0-1.08.21Zm7,22.82H46.91a3.6,3.6,0,0,1-3.59-3.6V67.78a3.6,3.6,0,0,1,3.59-3.6H59.05a3.59,3.59,0,0,1,1.17.44h.4l.06.05h0l.06.06a4,4,0,0,1,.3.28A3.59,3.59,0,0,1,62,67.77a3,3,0,0,1,0,.52v.06l-.06.38v.06L61,74a3.6,3.6,0,0,1-3.52,3.06Zm8.74-11.67a4.44,4.44,0,0,0-2.76,1l-.3.25a4.85,4.85,0,0,0-1.28-2.27l-.12-.12h8.92l-.13.12a5,5,0,0,0-1.28,2.27,3.473,3.473,0,0,0-.29-.25,4.44,4.44,0,0,0-2.72-.95Zm22.9,8.07a3.6,3.6,0,0,1-3.6,3.6H75a3.59,3.59,0,0,1-3.55-3l-.85-5.24-.07-.44a3.771,3.771,0,0,1,0-.58,3.59,3.59,0,0,1,.94-2.42,3.827,3.827,0,0,1,.29-.28h0l.06-.06h0l.06-.05h.36a3.61,3.61,0,0,1,1.1-.4H85.52a3.6,3.6,0,0,1,3.6,3.6Z"/>
        <path id="Path_95" data-name="Path 95" d="M41.32,69.76H40v1.31h1.32Z"/>
        <path id="Path_96" data-name="Path 96" d="M41.32,47.64V46.31H40v1.33Zm0,2.93V49.24H40v1.33Zm0,2.93V52.17H40V53.5Zm0,2.93V55.1H40v1.33Zm0,2.93V58H40v1.33Zm0,2.94V61H40v1.3Zm0,2.93V63.89H40v1.34Zm0,2.93V66.83H40v1.33Z"/>
        <path id="Path_97" data-name="Path 97" d="M41.32,44.71V43.39H40v1.32Z"/>
        <path id="Path_98" data-name="Path 98" d="M53.27,44.71h1.19V43.39H53.27Zm-2.63,0h1.19V43.39H50.64Zm-2.63,0h1.2V43.39H48Zm-2.63,0h1.2V43.39h-1.2Zm-2.63,0H44V43.39H42.8Z"/>
        <path id="Path_99" data-name="Path 99" d="M55.9,44.71h1.32V43.39H55.9Z"/>
        <path id="Path_100" data-name="Path 100" d="M55.9,45.79h1.32v.91H55.9Z"/>
        <path id="Path_101" data-name="Path 101" d="M91.12,69.76h1.32v1.31H91.12Z"/>
        <path id="Path_102" data-name="Path 102" d="M92.44,47.64V46.31H91.12v1.33Zm0,2.93V49.24H91.12v1.33Zm0,2.93V52.17H91.12V53.5Zm0,2.93V55.1H91.12v1.33Zm0,2.93V58H91.12v1.33Zm0,2.94V61H91.12v1.3Zm0,2.93V63.89H91.12v1.34Zm0,2.93V66.83H91.12v1.33Z"/>
        <path id="Path_103" data-name="Path 103" d="M91.12,43.39h1.32v1.32H91.12Z"/>
        <path id="Path_104" data-name="Path 104" d="M79.17,43.39H78v1.32h1.2Zm2.63,0H80.6v1.32h1.2Zm2.63,0h-1.2v1.32h1.2Zm2.63,0h-1.2v1.32h1.2Zm2.63,0h-1.2v1.32h1.2Z"/>
        <path id="Path_105" data-name="Path 105" d="M75.22,43.39h1.32v1.32H75.22Z"/>
        <path id="Path_106" data-name="Path 106" d="M75.22,45.79h1.32v.91H75.22Z"/>
        <path id="Path_107" data-name="Path 107" d="M80.67,88.69H82v1.24H80.67Z"/>
        <path id="Path_108" data-name="Path 108" d="M80.67,86H82v1.24H80.67Z"/>
        <path id="Path_109" data-name="Path 109" d="M80.67,91.42H82v1.31H80.67Z"/>
        <path id="Path_110" data-name="Path 110" d="M56.45,91.42h1.37v1.31H56.45Z"/>
        <path id="Path_111" data-name="Path 111" d="M59.48,91.42h1.37v1.31H59.48Z"/>
        <path id="Path_112" data-name="Path 112" d="M62.5,91.42h1.38v1.31H62.5Z"/>
        <path id="Path_113" data-name="Path 113" d="M53.42,91.42H54.8v1.31H53.42Z"/>
        <path id="Path_114" data-name="Path 114" d="M77.64,91.42H79v1.31H77.64Z"/>
        <path id="Path_115" data-name="Path 115" d="M74.61,91.42H76v1.31H74.61Z"/>
        <path id="Path_116" data-name="Path 116" d="M71.59,91.42H73v1.31H71.59Z"/>
        <path id="Path_117" data-name="Path 117" d="M68.56,91.42h1.37v1.31H68.56Z"/>
        <path id="Path_118" data-name="Path 118" d="M65.53,91.42h1.38v1.31H65.53Z"/>
        <path id="Path_119" data-name="Path 119" d="M50.45,91.42h1.32v1.31H50.45Z"/>
        <path id="Path_120" data-name="Path 120" d="M50.45,88.69h1.32v1.24H50.45Z"/>
        <path id="Path_121" data-name="Path 121" d="M50.45,86h1.32v1.24H50.45Z"/>
      </g>
    </g>
  </g>
</svg>
