<svg xmlns="http://www.w3.org/2000/svg" width="131.83" height="131.82" viewBox="0 0 131.83 131.82">
  <g id="Group_94" data-name="Group 94" transform="translate(-1025 -1101)">
    <g id="Layer_2" data-name="Layer 2" transform="translate(1025 1101)">
      <g id="Layer_2-2" data-name="Layer 2">
        <path id="Path_58" data-name="Path 58" d="M129.89,75.27V56.56l-18-3a47,47,0,0,0-4.76-11.5l10.6-14.81L104.54,14.06l-14.8,10.6a47.31,47.31,0,0,0-11.5-4.77l-3-18H56.56l-3,18a47,47,0,0,0-11.5,4.77L27.28,14.06,14.06,27.29l10.6,14.8a47,47,0,0,0-4.77,11.5l-18,3V75.27l18,3a47.31,47.31,0,0,0,4.77,11.5l-10.6,14.8L27.29,117.8l14.8-10.6a47,47,0,0,0,11.5,4.76l3,18H75.27l3-18a47.29,47.29,0,0,0,11.5-4.76l14.8,10.6,13.23-13.23-10.6-14.8a47.291,47.291,0,0,0,4.76-11.5Zm-64,28.57a37.92,37.92,0,1,1,.02,0Z" fill="#575f84"/>
        <path id="Path_59" data-name="Path 59" d="M21.78,104.54l10.6-14.8a47.71,47.71,0,0,1-4.77-11.5l-17.95-3V56.56l18-3a47.38,47.38,0,0,1,4.77-11.5L21.78,27.28l10-10-4.5-3.22L14.06,27.28l10.6,14.81a47,47,0,0,0-4.77,11.5l-18,3V75.27l18,3a47.31,47.31,0,0,0,4.77,11.5l-10.6,14.8L27.29,117.8l4.5-3.22Z" fill="#383f5b"/>
        <path id="Path_60" data-name="Path 60" d="M131.83,76.91v-22l-18.37-3a49.11,49.11,0,0,0-4-9.66L120.3,27.11,104.75,11.53,89.61,22.37a49.56,49.56,0,0,0-9.67-4L76.91,0h-22l-3,18.36a49.72,49.72,0,0,0-9.66,4L27.08,11.53,11.53,27.08,22.37,42.22a49.72,49.72,0,0,0-4,9.66L0,54.92v22l18.36,3a49.56,49.56,0,0,0,4,9.67L11.53,104.75l15.55,15.54,15.14-10.84a49.11,49.11,0,0,0,9.66,4l3,18.37h22l3-18.37a49,49,0,0,0,9.67-4l15.14,10.84,15.54-15.54L109.45,89.61a49,49,0,0,0,4-9.67Zm-21.76.83a45.479,45.479,0,0,1-4.57,11l-.63,1.08,10.38,14.48-10.92,10.92L89.85,104.87l-1.08.63a45.48,45.48,0,0,1-11,4.57l-1.2.32L73.63,128H58.2l-2.91-17.57-1.2-.32a45.48,45.48,0,0,1-11-4.57L42,104.87,27.49,115.25,16.58,104.33,27,89.85l-.62-1.08a45.48,45.48,0,0,1-4.57-11l-.32-1.2L3.86,73.63V58.2l17.58-2.91.32-1.2a45.48,45.48,0,0,1,4.57-11L27,42,16.58,27.49,27.49,16.58,42,27l1.08-.62a45.48,45.48,0,0,1,11-4.57l1.2-.32L58.2,3.86H73.63l2.91,17.58,1.2.32a45.48,45.48,0,0,1,11,4.57l1.08.62L104.3,16.58l10.92,10.91L104.87,42l.63,1.08a45.48,45.48,0,0,1,4.57,11l.32,1.2L128,58.2V73.63l-17.57,2.91Z"/>
        <circle id="Ellipse_8" data-name="Ellipse 8" cx="37.92" cy="37.92" r="37.92" transform="translate(27.99 27.99)" fill="#ffe477"/>
        <path id="Path_61" data-name="Path 61" d="M85.91,56.29a3,3,0,0,0,3-3V51.84a3,3,0,0,0-3-3H80V47.4a1.48,1.48,0,0,0,1.48-1.48V44.44A1.48,1.48,0,0,0,80,43H44.46A1.48,1.48,0,0,0,43,44.44v1.48a1.48,1.48,0,0,0,1.48,1.48V62.63L43,61.23V88.86H72.23L51.85,69.61H72.59V82.19a2.21,2.21,0,0,0,2.22,2.22H86.65a2.21,2.21,0,0,0,2.22-2.22V63a2.21,2.21,0,0,0-2.22-2.22H80V56.29Zm-3-4.45H66.67V50.36H83ZM65.18,54.16l-2.36-1.58L65.18,51Zm1.49-.84H83v1.49H66.67Zm20.72-1.48v1.48a1.49,1.49,0,0,1-1.48,1.49H84.43V50.36h1.48a1.48,1.48,0,0,1,1.48,1.48Zm-42.93-7.4H80v1.48H44.46Zm0,42.94V85.9h1.48V84.41H44.46V82.93h1.48V81.45H44.46V80h1.48V78.49H44.46V77h1.48V75.53H44.46V74.05h1.48V72.57H44.46V71.09h1.48V69.61H44.46V64.67l24,22.71ZM87.39,63V82.19a.74.74,0,0,1-.74.74H74.81a.74.74,0,0,1-.74-.74V63a.74.74,0,0,1,.74-.74H86.65a.74.74,0,0,1,.74.74Zm-8.88-2.22H65.92v1.48h6.8a2.26,2.26,0,0,0-.13.74v.74H65.92v1.48h6.67v3H50.28L45.94,64V47.4H78.51v1.48H65.7l-5.55,3.7,5.55,3.71H78.51Z"/>
        <path id="Path_62" data-name="Path 62" d="M58.52,51.84H53.43l-1.33,10L50,59.25H47.42v1.48h1.86l3.83,4.77,1.62-12.18h3.79Z"/>
        <path id="Path_63" data-name="Path 63" d="M63.18,55.76,60,58.94l-3.17-3.18-1,1.05L59,60l-3.18,3.17,1,1L60,61l3.18,3.18,1.05-1L61.05,60l3.18-3.18Z"/>
        <path id="Path_64" data-name="Path 64" d="M65.92,57.77H77v1.48H65.92Z"/>
        <path id="Path_65" data-name="Path 65" d="M47.42,71.53V84.41H61.06ZM48.9,75l8.43,8H48.9Z"/>
        <path id="Path_66" data-name="Path 66" d="M85.91,63.69H75.55v5.92H85.91Zm-1.48,4.44H77v-3h7.4Z"/>
        <path id="Path_67" data-name="Path 67" d="M81.47,72.57h4.44v1.48H81.47Z"/>
        <path id="Path_68" data-name="Path 68" d="M75.55,77H80v1.48H75.55Z"/>
        <path id="Path_69" data-name="Path 69" d="M75.55,80H80v1.48H75.55Z"/>
        <path id="Path_70" data-name="Path 70" d="M77,75.53h1.48V74.05H80V72.57H78.51V71.09H77v1.48H75.55v1.48H77Z"/>
        <path id="Path_71" data-name="Path 71" d="M84.65,77.23l-1,1-1-1-1,1,1,1-1,1,1,1,1-1,1,1,1-1-1-1,1-1Z"/>
      </g>
    </g>
  </g>
</svg>
