<svg xmlns="http://www.w3.org/2000/svg" width="131.83" height="131.82" viewBox="0 0 131.83 131.82">
  <g id="Group_90" data-name="Group 90" transform="translate(-1025 -1638)">
    <g id="Layer_2" data-name="Layer 2" transform="translate(1025 1638)">
      <g id="Layer_2-2" data-name="Layer 2">
        <path id="Path_35" data-name="Path 35" d="M129.89,75.27V56.56l-18-3a47,47,0,0,0-4.76-11.5l10.6-14.81L104.54,14.06l-14.8,10.6a47.31,47.31,0,0,0-11.5-4.77l-3-18H56.56l-3,18a47,47,0,0,0-11.5,4.77L27.28,14.06,14.06,27.29l10.6,14.8a47,47,0,0,0-4.77,11.5l-18,3V75.27l18,3a47.31,47.31,0,0,0,4.77,11.5l-10.6,14.8L27.29,117.8l14.8-10.6a47,47,0,0,0,11.5,4.76l3,18H75.27l3-18a47.29,47.29,0,0,0,11.5-4.76l14.8,10.6,13.23-13.23-10.6-14.8a47.291,47.291,0,0,0,4.76-11.5Zm-64,28.57a37.92,37.92,0,1,1,.02,0Z" fill="#575f84"/>
        <path id="Path_36" data-name="Path 36" d="M21.78,104.54l10.6-14.8a47.71,47.71,0,0,1-4.77-11.5l-17.95-3V56.56l18-3a47.38,47.38,0,0,1,4.77-11.5L21.78,27.28l10-10-4.5-3.22L14.06,27.28l10.6,14.81a47,47,0,0,0-4.77,11.5l-18,3V75.27l18,3a47.31,47.31,0,0,0,4.77,11.5l-10.6,14.8L27.29,117.8l4.5-3.22Z" fill="#383f5b"/>
        <path id="Path_37" data-name="Path 37" d="M131.83,76.91v-22l-18.37-3a49.11,49.11,0,0,0-4-9.66L120.3,27.11,104.75,11.53,89.61,22.37a49.56,49.56,0,0,0-9.67-4L76.91,0h-22l-3,18.36a49.72,49.72,0,0,0-9.66,4L27.08,11.53,11.53,27.08,22.37,42.22a49.72,49.72,0,0,0-4,9.66L0,54.92v22l18.36,3a49.56,49.56,0,0,0,4,9.67L11.53,104.75l15.55,15.54,15.14-10.84a49.11,49.11,0,0,0,9.66,4l3,18.37h22l3-18.37a49,49,0,0,0,9.67-4l15.14,10.84,15.54-15.54L109.45,89.61a49,49,0,0,0,4-9.67Zm-21.76.83a45.479,45.479,0,0,1-4.57,11l-.63,1.08,10.38,14.48-10.92,10.92L89.85,104.87l-1.08.63a45.48,45.48,0,0,1-11,4.57l-1.2.32L73.63,128H58.2l-2.91-17.57-1.2-.32a45.48,45.48,0,0,1-11-4.57L42,104.87,27.49,115.25,16.58,104.33,27,89.85l-.62-1.08a45.48,45.48,0,0,1-4.57-11l-.32-1.2L3.86,73.63V58.2l17.58-2.91.32-1.2a45.48,45.48,0,0,1,4.57-11L27,42,16.58,27.49,27.49,16.58,42,27l1.08-.62a45.48,45.48,0,0,1,11-4.57l1.2-.32L58.2,3.86H73.63l2.91,17.58,1.2.32a45.48,45.48,0,0,1,11,4.57l1.08.62L104.3,16.58l10.92,10.91L104.87,42l.63,1.08a45.48,45.48,0,0,1,4.57,11l.32,1.2L128,58.2V73.63l-17.57,2.91Z"/>
        <circle id="Ellipse_5" data-name="Ellipse 5" cx="37.92" cy="37.92" r="37.92" transform="translate(27.99 27.99)" fill="#ffe477"/>
        <path id="Path_38" data-name="Path 38" d="M90.92,47.74a4.31,4.31,0,0,0-7.35-3L81.41,46.9A12.15,12.15,0,0,0,75,45.93a11.87,11.87,0,0,0-6.89,3.4L61.34,56.1a11.83,11.83,0,0,0-2.68,4.1,11.78,11.78,0,0,0-4.09,2.67L47.8,69.63a11.82,11.82,0,0,0-3.39,6.89,12.07,12.07,0,0,0,.92,6.42l-2.16,2.15a4.313,4.313,0,1,0,6.1,6.1L51.42,89a12.19,12.19,0,0,0,4.87,1,11.27,11.27,0,0,0,1.54-.1,11.83,11.83,0,0,0,6.89-3.39l6.77-6.77a11.88,11.88,0,0,0,2.68-4.1A11.83,11.83,0,0,0,78.26,73L85,66.25a11.87,11.87,0,0,0,3.4-6.89A12.13,12.13,0,0,0,87.5,53l2.16-2.16A4.28,4.28,0,0,0,90.92,47.74ZM71.49,62.87a11.64,11.64,0,0,0-2.71-2L73.64,56a3.46,3.46,0,0,0,0,.46,4.3,4.3,0,0,0,4.3,4.3h.46l-4.86,4.85A11.59,11.59,0,0,0,71.49,62.87ZM58,76.4a4.31,4.31,0,0,0-3.05-1.26,3.4,3.4,0,0,0-.45,0l4.85-4.86a11.92,11.92,0,0,0,4.74,4.74l-4.86,4.86A4.34,4.34,0,0,0,58,76.4Zm5.41-18.27,6.77-6.77a9.12,9.12,0,0,1,9-2.27l-2.5,2.49a6.17,6.17,0,0,0-4.51,1.81L65.4,60.16a1.43,1.43,0,0,0-.15.18h0A6.21,6.21,0,0,0,65.4,69l.22.28A3.35,3.35,0,0,1,66,72.83a9.08,9.08,0,0,1-2.66-14.7ZM49.83,71.67,56.6,64.9a8.26,8.26,0,0,1,1.26-1.05,12,12,0,0,0,.32,3.53L51.86,73.7a6.13,6.13,0,0,0-1.8,4.51l-2.5,2.5A9.14,9.14,0,0,1,49.83,71.67Zm-2.6,17.48a1.44,1.44,0,0,1-2-2l8.69-8.69a1.414,1.414,0,0,1,2,2ZM69.46,77.76l-6.77,6.77a9.14,9.14,0,0,1-9,2.27l2.5-2.5a6.15,6.15,0,0,0,4.51-1.8l6.77-6.77a6.2,6.2,0,0,0,.46-8.25,6.869,6.869,0,0,0-.46-.55,3.34,3.34,0,0,1-.61-3.87A8.91,8.91,0,0,1,69.5,64.9,9.1,9.1,0,0,1,69.46,77.76ZM83,64.22,76.23,71A9,9,0,0,1,75,72a12,12,0,0,0-.31-3.54L81,62.19a6.12,6.12,0,0,0,1.8-4.51l2.5-2.5A9.12,9.12,0,0,1,83,64.22Zm4.63-15.46-8.69,8.69a1.44,1.44,0,0,1-2-2l8.69-8.69a1.44,1.44,0,0,1,2,2Z"/>
      </g>
    </g>
  </g>
</svg>
