<svg xmlns="http://www.w3.org/2000/svg" width="131.82" height="131.7" viewBox="0 0 131.82 131.7">
  <g id="Group_62" data-name="Group 62" transform="translate(-1500.33 -2057.13)">
    <path id="Path_393" data-name="Path 393" d="M145.22,1450.34v-18.71l-18-3a47.077,47.077,0,0,0-4.77-11.49l10.6-14.81-13.23-13.23-14.8,10.6a47.346,47.346,0,0,0-11.5-4.76l-3-18H71.88l-3,18a47.677,47.677,0,0,0-11.5,4.76l-14.8-10.6-13.23,13.23L40,1417.17a47.05,47.05,0,0,0-4.76,11.49l-18,3v18.71l18,3A47.051,47.051,0,0,0,40,1464.81l-10.6,14.81,13.23,13.23,14.8-10.6a47.682,47.682,0,0,0,11.5,4.76l3,18H90.59l3-18a47.352,47.352,0,0,0,11.5-4.76l14.81,10.6,13.23-13.23-10.61-14.81a47.078,47.078,0,0,0,4.77-11.49Zm-64,28.57a37.7,37.7,0,1,1,.02,0Z" transform="translate(1485 682)" fill="#575f84"/>
    <path id="Path_394" data-name="Path 394" d="M37.11,1479.62l10.6-14.81a47,47,0,0,1-4.77-11.5l-18-3V1431.6l18-3a47.078,47.078,0,0,1,4.77-11.49l-10.6-14.81,10-10-4.5-3.23L29.38,1402.3,40,1417.17a47.05,47.05,0,0,0-4.76,11.49l-18,3v18.71l18,3A47.051,47.051,0,0,0,40,1464.81l-10.6,14.81,13.23,13.23,4.5-3.23Z" transform="translate(1485 682)" fill="#383f5b"/>
    <path id="Path_395" data-name="Path 395" d="M147.15,1452v-22l-18.36-3a49.811,49.811,0,0,0-4-9.67l10.84-15.13-15.55-15.55-15.13,10.84a49.448,49.448,0,0,0-9.67-4l-3-18.36h-22l-3,18.36a49.2,49.2,0,0,0-9.67,4L42.4,1386.61l-15.54,15.55,10.84,15.13a49.449,49.449,0,0,0-4,9.67l-18.37,3v22l18.37,3a49.45,49.45,0,0,0,4,9.67l-10.84,15.13,15.54,15.55,15.14-10.84a49.2,49.2,0,0,0,9.67,4l3,18.36h22l3-18.36a49.463,49.463,0,0,0,9.67-4l15.13,10.84,15.55-15.55-10.84-15.13a50.072,50.072,0,0,0,4-9.67Zm-21.76.84a45.41,45.41,0,0,1-4.57,11l-.62,1.07,10.37,14.49-10.91,10.91L105.17,1480l-1.08.62a45.206,45.206,0,0,1-11,4.58l-1.21.32L89,1503H73.52l-2.91-17.57-1.2-.32a45.279,45.279,0,0,1-11-4.58L57.3,1480l-14.48,10.37L31.9,1479.41l10.38-14.49-.63-1.07a45.809,45.809,0,0,1-4.57-11l-.32-1.21-17.57-2.9V1433.3l17.57-2.9.32-1.21a45.809,45.809,0,0,1,4.57-11l.63-1.08L31.9,1402.57l10.92-10.91L57.3,1402l1.08-.62a45.121,45.121,0,0,1,11-4.58l1.2-.32,2.91-17.57H89l2.91,17.57,1.21.32a45.2,45.2,0,0,1,11,4.58l1.08.62,14.49-10.37,10.91,10.91-10.37,14.49.62,1.07a45.41,45.41,0,0,1,4.57,11l.33,1.21,17.57,2.9v15.44l-17.58,2.9Z" transform="translate(1485 682)"/>
    <circle id="Ellipse_30" data-name="Ellipse 30" cx="38" cy="38" r="38" transform="translate(1528.24 2084.99)" fill="#ffe477"/>
    <path id="Path_396" data-name="Path 396" d="M86.34,1441.05h19.58v19.57H86.34Z" transform="translate(1485 682)" fill="#e0e0e2"/>
    <path id="Path_397" data-name="Path 397" d="M69.32,1422.32l-3.4,21.28H79.54l-3.41-21.28Z" transform="translate(1485 682)" fill="#c6c5ca"/>
    <path id="Path_398" data-name="Path 398" d="M77,1441.05h9.36v9.36H77Z" transform="translate(1485 682)" fill="#acabb1"/>
    <path id="Path_399" data-name="Path 399" d="M64.21,1450.41H80.39v10.21H64.21Z" transform="translate(1485 682)" fill="#787680"/>
    <path id="Path_400" data-name="Path 400" d="M93.15,1453.81h6v6.81h-6Z" transform="translate(1485 682)" fill="#c0ab91"/>
    <path id="Path_401" data-name="Path 401" d="M99.11,1444.45h3.41v3.41H99.11Z" transform="translate(1485 682)" fill="#bdfdff"/>
    <path id="Path_402" data-name="Path 402" d="M89.75,1444.45h3.4v3.41h-3.4Z" transform="translate(1485 682)" fill="#bdfdff"/>
    <path id="Path_403" data-name="Path 403" d="M77,1418.92l-.85,3.4H69.32l-.85-3.4Z" transform="translate(1485 682)" fill="#898890"/>
    <path id="Path_404" data-name="Path 404" d="M67.62,1440.2l-1.7-.86,1-.71,2.45-1.84,4.14,3.31-1.58,1,.85,2.55H67.62Z" transform="translate(1485 682)" fill="#3e3d42"/>
    <path id="Path_405" data-name="Path 405" d="M63,1439.28l-1.38.92v3.4H60l-1.7-3.4.85-1.71Z" transform="translate(1485 682)" fill="#898890"/>
    <path id="Path_406" data-name="Path 406" d="M63,1439.28l1.17-.79,3.41,1.71v3.4h-6v-3.4Z" transform="translate(1485 682)" fill="#acabb1"/>
    <path id="Path_407" data-name="Path 407" d="M73.46,1440.1l2.67-1.61,2.55,2.56L77,1443.6H72.73l-.85-2.55Z" transform="translate(1485 682)" fill="#57565c"/>
    <path id="Path_408" data-name="Path 408" d="M78.68,1443.6l-.4,3.46H58.66l-.4-3.41Z" transform="translate(1485 682)" fill="#b39a7c"/>
    <path id="Path_409" data-name="Path 409" d="M80.39,1450.41h6v10.21h-6Z" transform="translate(1485 682)" fill="#898890"/>
    <path id="Path_410" data-name="Path 410" d="M92.3,1435.09v6H78.68l.57-.53.46-.43,5.43-5Z" transform="translate(1485 682)" fill="#787680"/>
    <path id="Path_411" data-name="Path 411" d="M92.3,1430.83v4.26H85.14l4.61-4.26Z" transform="translate(1485 682)" fill="#d8d7da"/>
    <path id="Path_412" data-name="Path 412" d="M103.37,1430.83H100l-3.78,4.26h7.19Z" transform="translate(1485 682)" fill="#acabb1"/>
    <path id="Path_413" data-name="Path 413" d="M103.37,1435.09v6H92.3v-1.6l3.88-4.36Z" transform="translate(1485 682)" fill="#c6c5ca"/>
    <path id="Path_414" data-name="Path 414" d="M78.28,1447.06l-.4,3.35-.9,7.66H60L58.66,1447H77.83Z" transform="translate(1485 682)" fill="#d9ccbc"/>
    <path id="Path_415" data-name="Path 415" d="M78.08,1448.71l.2-1.65H58.66l.2,1.7Z" transform="translate(1485 682)" fill="#a78966"/>
    <path id="Path_416" data-name="Path 416" d="M66.77,1458.07a2.56,2.56,0,1,1-2.56-2.55A2.56,2.56,0,0,1,66.77,1458.07Z" transform="translate(1485 682)" fill="#acabb1"/>
    <path id="Path_417" data-name="Path 417" d="M75.28,1458.07a2.56,2.56,0,1,1-2.55-2.55A2.56,2.56,0,0,1,75.28,1458.07Z" transform="translate(1485 682)" fill="#acabb1"/>
    <path id="Path_418" data-name="Path 418" d="M65.07,1458.07a.86.86,0,0,1-.86.85.85.85,0,0,1,0-1.7.86.86,0,0,1,.86.85Z" transform="translate(1485 682)" fill="#787680"/>
    <path id="Path_419" data-name="Path 419" d="M73.58,1458.07a.85.85,0,1,1-.85-.85A.85.85,0,0,1,73.58,1458.07Z" transform="translate(1485 682)" fill="#787680"/>
    <path id="Path_420" data-name="Path 420" d="M105.92,1440.2h-1.7v-9.37a.85.85,0,0,0-.85-.85H100a.85.85,0,0,0-.63.29l-6.18,6.94v-6.38a.85.85,0,0,0-.85-.85H89.75a.85.85,0,0,0-.58.23l-9.6,8.86L77,1422.36l.81-3.23a.88.88,0,0,0-.15-.74.9.9,0,0,0-.68-.32H68.47a.86.86,0,0,0-.67.32.87.87,0,0,0-.16.73l.81,3.24-2.51,15.9-.11.09-1.24-.62a.84.84,0,0,0-.85,0l-.88.59-3.58-.71a.85.85,0,0,0-.93.45l-.85,1.71a.85.85,0,0,0,0,.76l1.08,2.17h-.32a.85.85,0,0,0-.64.28.87.87,0,0,0-.21.67l1.7,14.47a.85.85,0,0,0,.85.75h1a3.2,3.2,0,0,0,.36.85H55.7v1.7h50.22a.85.85,0,0,0,.85-.85V1441A.85.85,0,0,0,105.92,1440.2Zm-5.57-8.52h2.17v2.56H98.07Zm-7.2,8.09,3.41-3.83h6v4.26H93.15Zm-3.07-8.09h1.37v2.56H87.32Zm-4.59,4.24h6v4.26H80.86Zm-6.35,6h6.35v7.66H78.84l.69-5.86a.87.87,0,0,0-.21-.67.85.85,0,0,0-.64-.28h-.11Zm.4,17.87H75.65a3.2,3.2,0,0,0,.36-.85h1a.85.85,0,0,0,.85-.75l.81-6.91h.9Zm-8.52-1.7a1.7,1.7,0,1,1-.02-.02Zm4.87-38.3-.42,1.7H70l-.43-1.7Zm-5.84,3.4h1v1.71h1.71v-1.71h.85v3.41h1.7v-3.41h.12l2.4,15.81-1.1-1.1a.86.86,0,0,0-1-.13l-2.16,1.3-3.68-2.93a.84.84,0,0,0-1,0l-.91.68Zm7.54,18-1.06,1.59H73.34l-.44-1.32,3.1-1.86Zm-8.29-3.29L72,1440l-.53.32a.83.83,0,0,0-.37,1l.47,1.44h-3.1v-2.55a.85.85,0,0,0-.47-.77l-.47-.23Zm-6.79,2.78,1.77-1.17,2.49,1.24v2H62.51Zm-2.93-1.19,1.38.28a.75.75,0,0,0-.15.46v2.55h-.32l-1.28-2.55Zm-.37,5H77.73l-.2,1.7H59.41Zm1.51,12.77-1.1-9.36H77.33l-1.1,9.36H76a3.39,3.39,0,0,0-6.57,0H67.5a3.39,3.39,0,0,0-6.57,0Zm9.08,2.55H67.14a3.2,3.2,0,0,0,.36-.85h1.94a3.2,3.2,0,0,0,.36.81Zm-7.29-1.7a1.752,1.752,0,1,0,0-.04Zm18.73,1.7v-8.51h4.25v1.7h-1.7v1.71h1.7v1.7h-1.7v1.7h1.7v1.7Zm17,0H94v-5.1h4.26Zm6.81,0H100v-6a.85.85,0,0,0-.85-.85h-6a.85.85,0,0,0-.85.85v6H87.2V1441.9h17.87Z" transform="translate(1485 682)"/>
    <path id="Path_421" data-name="Path 421" d="M93.15,1443.6h-3.4a.85.85,0,0,0-.85.85v3.41a.85.85,0,0,0,.85.85h3.4a.85.85,0,0,0,.85-.85v-3.41A.85.85,0,0,0,93.15,1443.6Zm-.85,3.4H90.6v-1.71h1.7Z" transform="translate(1485 682)"/>
    <path id="Path_422" data-name="Path 422" d="M99.11,1448.71h3.41a.85.85,0,0,0,.85-.85v-3.41a.85.85,0,0,0-.85-.85H99.11a.85.85,0,0,0-.85.85v3.41a.85.85,0,0,0,.85.85Zm.85-3.41h1.71v1.7H100Z" transform="translate(1485 682)"/>
    <path id="Path_423" data-name="Path 423" d="M94.86,1456.37h1.7v1.7h-1.7Z" transform="translate(1485 682)"/>
    <path id="Path_424" data-name="Path 424" d="M73.58,1415.51v1.7h1.7v-.85H77a.85.85,0,0,0,.85-.85v-1.7h-1.7v.85h-1.7a.85.85,0,0,0-.87.85Z" transform="translate(1485 682)"/>
    <path id="Path_425" data-name="Path 425" d="M71.88,1415.51v-1.7h1.7a.85.85,0,0,0,.85-.85v-2.55h-1.7v1.7H71a.85.85,0,0,0-.85.85v4.25h1.71Z" transform="translate(1485 682)"/>
    <path id="Path_426" data-name="Path 426" d="M76.13,1410.41h1.7v1.7h-1.7Z" transform="translate(1485 682)"/>
  </g>
</svg>
