<svg id="Layer_2" data-name="Layer 2" xmlns="http://www.w3.org/2000/svg" width="131.83" height="131.82" viewBox="0 0 131.83 131.82">
  <g id="Layer_2-2" data-name="Layer 2">
    <path id="Path_216" data-name="Path 216" d="M129.89,75.27V56.56l-18-3a47,47,0,0,0-4.76-11.5l10.6-14.81L104.54,14.06l-14.8,10.6a47.31,47.31,0,0,0-11.5-4.77l-3-18H56.56l-3,18a47,47,0,0,0-11.5,4.77L27.28,14.06,14.06,27.29l10.6,14.8a47,47,0,0,0-4.77,11.5l-18,3V75.27l18,3a47.31,47.31,0,0,0,4.77,11.5l-10.6,14.8L27.29,117.8l14.8-10.6a47,47,0,0,0,11.5,4.76l3,18H75.27l3-18a47.29,47.29,0,0,0,11.5-4.76l14.8,10.6,13.23-13.23-10.6-14.8a47.291,47.291,0,0,0,4.76-11.5Zm-64,28.57a37.92,37.92,0,1,1,.02,0Z" fill="#575f84"/>
    <path id="Path_217" data-name="Path 217" d="M21.78,104.54l10.6-14.8a47.71,47.71,0,0,1-4.77-11.5l-17.95-3V56.56l18-3a47.38,47.38,0,0,1,4.77-11.5L21.78,27.28l10-10-4.5-3.22L14.06,27.28l10.6,14.81a47,47,0,0,0-4.77,11.5l-18,3V75.27l18,3a47.31,47.31,0,0,0,4.77,11.5l-10.6,14.8L27.29,117.8l4.5-3.22Z" fill="#383f5b"/>
    <path id="Path_218" data-name="Path 218" d="M131.83,76.91v-22l-18.37-3a49.11,49.11,0,0,0-4-9.66L120.3,27.11,104.75,11.53,89.61,22.37a49.56,49.56,0,0,0-9.67-4L76.91,0h-22l-3,18.36a49.72,49.72,0,0,0-9.66,4L27.08,11.53,11.53,27.08,22.37,42.22a49.72,49.72,0,0,0-4,9.66L0,54.92v22l18.36,3a49.56,49.56,0,0,0,4,9.67L11.53,104.75l15.55,15.54,15.14-10.84a49.11,49.11,0,0,0,9.66,4l3,18.37h22l3-18.37a49,49,0,0,0,9.67-4l15.14,10.84,15.54-15.54L109.45,89.61a49,49,0,0,0,4-9.67Zm-21.76.83a45.479,45.479,0,0,1-4.57,11l-.63,1.08,10.38,14.48-10.92,10.92L89.85,104.87l-1.08.63a45.48,45.48,0,0,1-11,4.57l-1.2.32L73.63,128H58.2l-2.91-17.57-1.2-.32a45.48,45.48,0,0,1-11-4.57L42,104.87,27.49,115.25,16.58,104.33,27,89.85l-.62-1.08a45.48,45.48,0,0,1-4.57-11l-.32-1.2L3.86,73.63V58.2l17.58-2.91.32-1.2a45.48,45.48,0,0,1,4.57-11L27,42,16.58,27.49,27.49,16.58,42,27l1.08-.62a45.48,45.48,0,0,1,11-4.57l1.2-.32L58.2,3.86H73.63l2.91,17.58,1.2.32a45.48,45.48,0,0,1,11,4.57l1.08.62L104.3,16.58l10.92,10.91L104.87,42l.63,1.08a45.48,45.48,0,0,1,4.57,11l.32,1.2L128,58.2V73.63l-17.57,2.91Z"/>
    <circle id="Ellipse_21" data-name="Ellipse 21" cx="37.92" cy="37.92" r="37.92" transform="translate(27.99 25.79)" fill="#ffe477"/>
    <path id="Path_219" data-name="Path 219" d="M61.32,74.32,59.64,65.1H47.91l-1.68,9.22,7.55-2.52Z" fill="#f7ec2f"/>
    <path id="Path_220" data-name="Path 220" d="M50.15,86.89c1.82,0,1.82-1.68,3.63-1.68s1.82,1.68,3.63,1.68c1.47,0,1.76-1.08,2.77-1.5l3.66-10.23L53.78,71.8,43.72,75.16l3.65,10.23C48.37,85.81,48.68,86.89,50.15,86.89Z" fill="#3f4e56"/>
    <path id="Path_221" data-name="Path 221" d="M85.86,49.43a9.46,9.46,0,0,0-6.68-2.77H52.1l5,5h31Z" fill="#f5fafc"/>
    <path id="Path_222" data-name="Path 222" d="M88.46,52l-.32-.32h-31l.21.21A10.73,10.73,0,0,0,64.92,55h1.51l.75-1.67h5L71,55H87.21a1.76,1.76,0,0,0,1.25-3Z" fill="#1493b0"/>
    <path id="Path_223" data-name="Path 223" d="M52.1,61.75h3.35V65.1H52.1Z" fill="#ed4720"/>
    <path id="Path_224" data-name="Path 224" d="M67.19,69.29V84.38h4.19a2.52,2.52,0,1,1,5,0H84V69.29Z" fill="#d3d3d3"/>
    <circle id="Ellipse_22" data-name="Ellipse 22" cx="2.51" cy="2.51" r="2.51" transform="translate(71.38 81.87)" fill="#3f4e56"/>
    <path id="Path_225" data-name="Path 225" d="M89.82,72.64H84V84.38a2.52,2.52,0,1,1,5,0h3.35V77.67Z" fill="#55d5f2"/>
    <circle id="Ellipse_23" data-name="Ellipse 23" cx="2.51" cy="2.51" r="2.51" transform="translate(83.95 81.87)" fill="#3f4e56"/>
    <path id="Path_226" data-name="Path 226" d="M56.29,38.28H52.1v8.38h6.71Z" fill="#55d5f2"/>
    <path id="Path_227" data-name="Path 227" d="M65.51,40l1.68,6.7h5L68,40Z" fill="#55d5f2"/>
    <path id="Path_228" data-name="Path 228" d="M67.18,53.37l-3.35,7.54,2.51.84,5.86-8.38Z" fill="#55d5f2"/>
    <path id="Path_229" data-name="Path 229" d="M64.67,87.73a3.27,3.27,0,0,1-2.38-1.06A1.62,1.62,0,0,0,61,86.05a1.59,1.59,0,0,0-1.24.62,3.21,3.21,0,0,1-4.77,0,1.56,1.56,0,0,0-2.49,0,3.21,3.21,0,0,1-4.77,0,1.57,1.57,0,0,0-2.5,0,3.3,3.3,0,0,1-2.39,1.06V86.05a1.63,1.63,0,0,0,1.25-.61,3.21,3.21,0,0,1,4.77,0,1.59,1.59,0,0,0,2.5,0,3.21,3.21,0,0,1,4.77,0,1.61,1.61,0,0,0,1.24.61,1.63,1.63,0,0,0,1.25-.61,3.21,3.21,0,0,1,4.77,0,1.61,1.61,0,0,0,1.24.61v1.68Z" fill="#1493b0"/>
    <path id="Path_230" data-name="Path 230" d="M87.3,72.64v5h5l-2.51-5Z" fill="#f5fafc"/>
    <path id="Path_231" data-name="Path 231" d="M48,84.77l-3.2-9.09L52.94,73V84.48a3.6,3.6,0,0,1,.85-.1,3,3,0,0,1,.83.1V73l8.14,2.71L59.51,84.8A3,3,0,0,1,61,84.38h.38l3.2-9a.82.82,0,0,0,0-.65.86.86,0,0,0-.49-.43l-2-.68L60.47,65a.84.84,0,0,0-.83-.69H56.29V61.75a.83.83,0,0,0-.84-.84H52.1a.84.84,0,0,0-.84.84v2.51H47.91a.84.84,0,0,0-.82.69L45.5,73.68l-2,.68a.83.83,0,0,0-.49.43.86.86,0,0,0,0,.65l3.2,9h.39a2.89,2.89,0,0,1,1.52.39Zm4.9-22.19h1.68v1.68H52.94Zm-.84,3.36H59l1.29,7.13L54,71a.75.75,0,0,0-.26,0,.84.84,0,0,0-.27,0l-6.2,2.06,1.3-7.13Z"/>
    <path id="Path_232" data-name="Path 232" d="M51.32,46.93v.08a.78.78,0,0,0,.16.24l5.23,5.24a11.48,11.48,0,0,0,8.18,3.39h.22l-2.08,4.69a.89.89,0,0,0,0,.68.85.85,0,0,0,.5.45l2.52.84a.75.75,0,0,0,.26,0,.83.83,0,0,0,.69-.35l4.44-6.35H87.21a2.56,2.56,0,0,0,2.4-1.61,2.53,2.53,0,0,0-.56-2.83l-2.6-2.6a10.18,10.18,0,0,0-7.27-3h-6.5l-3.94-6.31a.87.87,0,0,0-.71-.39H65.51a.83.83,0,0,0-.81,1l1.41,5.66H59.43L57.1,38a.85.85,0,0,0-.81-.6H52.1a.85.85,0,0,0-.84.84v8.43a.79.79,0,0,0,.06.26Zm1.62-7.81h2.73l2,6.7H52.94Zm14.62,1.67,3.14,5H67.84l-1.25-5Zm-.37,6.71h12a8.55,8.55,0,0,1,5.09,1.67h-6.2v1.68h8l.85.86.92.91a.93.93,0,0,1,.2,1,.92.92,0,0,1-.86.57H72.64l.25-.35A.85.85,0,0,0,73,53a.84.84,0,0,0-.75-.45h-5a.88.88,0,0,0-.54.2,1.09,1.09,0,0,0-.23.29l-.52,1.18h-1a9.77,9.77,0,0,1-6.56-2.51l-.43-.38L54.12,47.5H67.19ZM65,60.41l2.75-6.21H70.6L66,60.75Z"/>
    <path id="Path_233" data-name="Path 233" d="M50.43,67.61h6.7v1.68h-6.7Z"/>
    <path id="Path_234" data-name="Path 234" d="M61.32,49.17H63v1.68H61.32Z"/>
    <path id="Path_235" data-name="Path 235" d="M64.67,49.17h1.68v1.68H64.67Z"/>
    <path id="Path_236" data-name="Path 236" d="M68,49.17h1.7v1.68H68Z"/>
    <path id="Path_237" data-name="Path 237" d="M71.38,49.17h1.67v1.68H71.38Z"/>
    <path id="Path_238" data-name="Path 238" d="M74.73,49.17h1.68v1.68H74.73Z"/>
    <path id="Path_239" data-name="Path 239" d="M93.08,77.3l-2.51-5a.85.85,0,0,0-.75-.47h-5V69.29a.85.85,0,0,0-.84-.84H67.19a.85.85,0,0,0-.84.84V84.38a.84.84,0,0,0,.84.83h3.47a3.34,3.34,0,0,0,6.47,0h6.1a3.34,3.34,0,0,0,6.47,0h2.63a.84.84,0,0,0,.84-.83V77.67h0a.71.71,0,0,0-.08-.34Zm-3.49,5.9v-.15a3,3,0,0,0-.29-.53.39.39,0,0,0-.08-.1,3.471,3.471,0,0,0-.3-.37s-.1-.09-.15-.14l-.3-.25-.19-.12-.34-.19-.21-.09a2.519,2.519,0,0,0-.39-.12h-.2a3.2,3.2,0,0,0-.63-.07,4.069,4.069,0,0,0-.6.06h-.14a3.22,3.22,0,0,0-.55.18h0l-.35.17v-8h1.67v4.19a.85.85,0,0,0,.84.84h4.19v5H89.71a3.4,3.4,0,0,0-.12-.34Zm-3.13,2.85a1.67,1.67,0,1,1,1.187-.486,1.68,1.68,0,0,1-1.187.486ZM77,83.2v-.15a3,3,0,0,0-.29-.53.39.39,0,0,0-.08-.1,3.469,3.469,0,0,0-.3-.37l-.15-.14-.3-.25-.19-.12-.34-.19-.21-.09a2.909,2.909,0,0,0-.39-.12h-.2a3.2,3.2,0,0,0-.63-.07,3.38,3.38,0,0,0-.63.07H73.1a2.641,2.641,0,0,0-.4.12l-.2.09-.34.19-.19.12a2.481,2.481,0,0,0-.3.25l-.16.14a3.37,3.37,0,0,0-.29.37.39.39,0,0,0-.08.1,2.47,2.47,0,0,0-.29.53.88.88,0,0,0,0,.15,2,2,0,0,0-.12.34H68V70.13H83.11V83.54h-6A3.4,3.4,0,0,0,77,83.2Zm-3.13,2.85a1.67,1.67,0,1,1,.02,0ZM91,76.83H88.14V73.48H89.3Z"/>
  </g>
</svg>
